{
.appVersion = "3151";
.formatVersion = 3;
axes = (
{
name = Weight;
tag = wght;
},
{
name = Width;
tag = wdth;
}
);
customParameters = (
{
name = "Use Typo Metrics";
value = 1;
},
{
name = fsType;
value = (
);
}
);
date = "2022-07-30 15:19:26 +0000";
familyName = "Duyet Serif";
featurePrefixes = (
{
automatic = 1;
code = "languagesystem DFLT dflt;

languagesystem latn dflt;
languagesystem latn AZE;
languagesystem latn CRT;
languagesystem latn KAZ;
languagesystem latn TAT;
languagesystem latn TRK;
languagesystem latn ROM;
languagesystem latn MOL;
languagesystem latn CAT;
";
name = Languagesystems;
}
);
features = (
{
automatic = 1;
code = "feature locl;
feature ordn;
feature case;
feature ss01;
";
tag = aalt;
},
{
code = "lookup ccmp_Other_1 {
	@CombiningTopAccents = [acutecomb brevecomb caroncomb circumflexcomb commaturnedabovecomb dieresiscomb dotaccentcomb gravecomb hungarumlautcomb macroncomb ringcomb tildecomb];
	@CombiningNonTopAccents = [cedillacomb ogonekcomb];
	sub [i j]' @CombiningTopAccents by [idotless jdotless];
	sub [i j]' @CombiningNonTopAccents @CombiningTopAccents by [idotless jdotless];
	sub iogonek' @CombiningTopAccents by idotless ogonekcomb;
} ccmp_Other_1;
";
tag = ccmp;
},
{
automatic = 1;
code = "lookup locl_latn_0 {
	script latn;
	language AZE;
	sub i by idotaccent;
	language CRT;
	sub i by idotaccent;
	language KAZ;
	sub i by idotaccent;
	language TAT;
	sub i by idotaccent;
	language TRK;
	sub i by idotaccent;
} locl_latn_0;

lookup locl_latn_1 {
	script latn;
	language ROM;
	sub Scedilla by Scommaaccent;
	sub scedilla by scommaaccent;
	language MOL;
	sub Scedilla by Scommaaccent;
	sub scedilla by scommaaccent;
} locl_latn_1;

lookup locl_latn_2 {
	script latn;
	language CAT;
	sub l periodcentered' l by periodcentered.loclCAT;
	sub L periodcentered' L by periodcentered.loclCAT.case;
} locl_latn_2;
";
tag = locl;
},
{
automatic = 1;
code = "sub [zero one two three four five six seven eight nine] [A a]' by ordfeminine;

glyphs = (
{
glyphname = horncomb;
layers = (
{
anchors = (
{
name = _topright;
pos = (0,0);
}
);
associatedMasterId = "";
layerId = m01;
shapes = (
{
closed = 1;
nodes = (
(-34,626,ls),
(-27,621,o),
(-21,613,o),
(-18,604,cs),
(-15,595,o),
(-13,583,o),
(-13,568,cs),
(-13,552,o),
(-18,535,o),
(-29,519,cs),
(-39,502,o),
(-55,487,o),
(-76,476,cs),
(-98,464,o),
(-126,458,o),
(-161,458,cs),
(-162,458,ls),
(-123,459,o),
(-90,461,o),
(-64,466,cs),
(-38,471,o),
(-18,477,o),
(-3,485,cs),
(12,493,o),
(23,501,o),
(29,511,cs),
(35,521,o),
(39,531,o),
(39,542,cs),
(39,563,o),
(31,580,o),
(17,594,cs),
(3,608,o),
(-14,619,o),
(-33,626,cs)
);
}
);
width = 0;
}
);
unicode = 795;
},
{
glyphname = dotbelowcomb;
layers = (
{
anchors = (
{
name = _bottom;
pos = (-10,0);
}
);
associatedMasterId = "";
layerId = m01;
shapes = (
{
closed = 1;
nodes = (
(27,-176,ls),
(36,-176,o),
(43,-174,o),
(50,-170,cs),
(57,-166,o),
(62,-161,o),
(66,-154,cs),
(70,-148,o),
(72,-141,o),
(72,-133,cs),
(71,-122,o),
(67,-112,o),
(59,-104,cs),
(50,-95,o),
(40,-91,o),
(28,-91,cs),
(15,-91,o),
(5,-95,o),
(-4,-104,cs),
(-12,-112,o),
(-17,-122,o),
(-17,-133,cs),
(-16,-145,o),
(-12,-155,o),
(-4,-163,cs),
(5,-171,o),
(15,-176,o),
(27,-176,cs)
);
}
);
width = 0;
}
);
unicode = 803;
},
{
glyphname = hookabovecomb;
layers = (
{
anchors = (
{
name = _top;
pos = (0,0);
}
);
associatedMasterId = "";
layerId = m01;
shapes = (
{
closed = 1;
nodes = (
(-114,669,ls),
(-133,669,o),
(-150,664,o),
(-166,653,cs),
(-182,642,o),
(-194,628,o),
(-203,609,cs),
(-203,609,ls),
(-195,616,o),
(-187,622,o),
(-178,626,cs),
(-169,630,o),
(-160,632,o),
(-150,632,cs),
(-137,632,o),
(-126,628,o),
(-117,621,cs),
(-108,613,o),
(-104,602,o),
(-104,589,cs),
(-104,575,o),
(-110,561,o),
(-122,547,cs),
(-134,532,o),
(-152,519,o),
(-177,506,cs),
(-176,506,ls),
(-133,518,o),
(-102,533,o),
(-81,551,cs),
(-61,569,o),
(-50,589,o),
(-50,610,cs),
(-50,628,o),
(-56,642,o),
(-69,653,cs),
(-81,664,o),
(-96,669,o),
(-114,669,cs)
);
}
);
width = 0;
}
);
unicode = 777;
},
{
glyphname = A;
kernLeft = A;
kernRight = A;
lastChange = "2022-09-01 21:01:03 +0000";
layers = (
{
anchors = (
{
name = bottom;
pos = (170,0);
},
{
name = ogonek;
pos = (354,0);
},
{
name = top;
pos = (336,720);
}
);
layerId = m002;
shapes = (
{
closed = 1;
nodes = (
(95,0,ls),
(108,0,o),
(115,4,o),
(115,9,cs),
(115,14,o),
(112,18,o),
(98,20,cs),
(82,21,ls),
(47,25,o),
(40,42,o),
(61,75,cs),
(136,189,ls),
(146,204,o),
(160,211,o),
(181,211,cs),
(304,211,ls),
(324,211,o),
(335,203,o),
(335,189,cs),
(337,57,ls),
(337,32,o),
(329,23,o),
(302,21,cs),
(279,20,ls),
(266,19,o),
(256,15,o),
(256,8,cs),
(256,3,o),
(261,0,o),
(271,0,cs),
(461,0,ls),
(474,0,o),
(481,3,o),
(481,9,cs),
(481,14,o),
(476,18,o),
(467,20,cs),
(452,22,ls),
(423,27,o),
(416,37,o),
(415,68,cs),
(402,607,ls),
(402,618,o),
(396,620,o),
(389,620,cs),
(383,620,o),
(374,618,o),
(367,607,cs),
(23,76,ls),
(2,44,o),
(-15,31,o),
(-42,26,cs),
(-58,23,ls),
(-67,21,o),
(-74,18,o),
(-74,10,cs),
(-74,4,o),
(-70,0,o),
(-62,0,cs)
);
},
{
closed = 1;
nodes = (
(174,236,o),
(169,242,o),
(175,251,cs),
(325,483,l),
(331,483,l),
(334,251,ls),
(334,242,o),
(325,236,o),
(314,236,cs),
(185,236,ls)
);
}
);
width = 526;
}
);
unicode = 65;
},
{
glyphname = AE;
kernRight = E;
lastChange = "2022-08-23 19:51:09 +0000";
layers = (
{
layerId = m002;
shapes = (
{
closed = 1;
nodes = (
(106,0,ls),
(121,0,o),
(128,3,o),
(128,9,cs),
(128,14,o),
(122,19,o),
(110,20,cs),
(93,21,ls),
(59,25,o),
(56,43,o),
(87,75,cs),
(306,296,ls),
(312,302,o),
(320,304,o),
(328,304,cs),
(492,304,ls),
(503,304,o),
(506,300,o),
(504,292,cs),
(430,56,ls),
(423,32,o),
(414,27,o),
(381,23,cs),
(353,20,ls),
(343,18,o),
(335,14,o),
(335,8,cs),
(335,3,o),
(339,0,o),
(351,0,cs),
(753,0,ls),
(770,0,o),
(783,7,o),
(788,20,cs),
(846,171,ls),
(850,180,o),
(844,185,o),
(835,185,cs),
(826,185,o),
(820,181,o),
(816,174,cs),
(788,124,ls),
(742,44,o),
(677,21,o),
(600,21,cs),
(526,21,o),
(506,38,o),
(519,79,cs),
(585,292,ls),
(588,300,o),
(596,304,o),
(606,304,cs),
(662,304,ls),
(697,304,o),
(711,295,o),
(710,256,cs),
(708,214,ls),
(708,207,o),
(715,202,o),
(724,203,cs),
(733,204,o),
(738,208,o),
(742,218,cs),
(802,409,ls),
(805,418,o),
(797,423,o),
(789,423,cs),
(780,423,o),
(775,419,o),
(770,412,cs),
(745,370,ls),
(729,342,o),
(706,330,o),
(672,330,cs),
(614,330,ls),
(604,330,o),
(599,334,o),
(601,342,cs),
(665,547,ls),
(675,579,o),
(698,591,o),
(760,591,cs),
(852,591,o),
(891,556,o),
(885,479,cs),
(883,448,ls),
(883,441,o),
(888,437,o),
(897,437,cs),
(906,437,o),
(913,442,o),
(915,451,cs),
(950,592,ls),
(953,605,o),
(944,612,o),
(927,612,cs),
(486,612,ls),
(475,612,o),
(467,609,o),
(467,602,cs),
(467,598,o),
(470,594,o),
(478,592,cs),
(504,588,ls),
(534,583,o),
(544,580,o),
(521,556,cs),
(47,76,ls),
(17,46,o),
(-14,31,o),
(-41,26,cs),
(-57,23,ls),
(-66,21,o),
(-74,18,o),
(-74,10,cs),
(-74,4,o),
(-70,0,o),
(-61,0,cs)
);
},
{
closed = 1;
nodes = (
(574,567,ls),
(583,576,o),
(592,575,o),
(589,564,cs),
(520,342,ls),
(518,334,o),
(511,330,o),
(500,330,cs),
(361,330,ls),
(350,330,o),
(346,337,o),
(354,344,cs)
);
}
);
width = 900;
}
);
metricLeft = A;
metricRight = E;
unicode = 198;
},
{
glyphname = B;
kernLeft = H;
lastChange = "2022-09-01 21:00:59 +0000";
layers = (
{
background = {
shapes = (
{
closed = 1;
nodes = (
(209,0,ls),
(377,0,o),
(511,90,o),
(511,203,cs),
(511,272,o),
(461,323,o),
(377,341,c),
(378,345,l),
(482,366,o),
(558,431,o),
(558,499,cs),
(558,565,o),
(486,612,o),
(384,612,cs),
(164,612,ls),
(152,612,o),
(144,609,o),
(144,602,cs),
(144,597,o),
(148,594,o),
(159,592,cs),
(182,589,ls),
(212,585,o),
(217,578,o),
(210,556,cs),
(54,56,ls),
(46,32,o),
(38,27,o),
(5,23,cs),
(-16,24,ls),
(-29,22,o),
(-36,17,o),
(-36,10,cs),
(-36,3,o),
(-31,0,o),
(-22,0,cs)
);
},
{
closed = 1;
nodes = (
(153,21,o),
(130,40,o),
(141,80,cs),
(205,283,ls),
(214,314,o),
(240,328,o),
(289,328,cs),
(376,328,o),
(427,284,o),
(427,207,cs),
(427,101,o),
(335,21,o),
(213,21,cs)
);
},
{
closed = 1;
nodes = (
(244,349,o),
(230,362,o),
(240,396,cs),
(290,557,ls),
(297,580,o),
(320,591,o),
(360,591,cs),
(431,591,o),
(475,555,o),
(475,496,cs),
(475,415,o),
(391,349,o),
(290,349,cs)
);
}
);
};
layerId = m002;
shapes = (
{
closed = 1;
nodes = (
(209,0,ls),
(377,0,o),
(511,90,o),
(511,203,cs),
(511,267,o),
(468,317,o),
(389,338,cs),
(381,340,o),
(381,345,o),
(389,347,cs),
(491,373,o),
(558,435,o),
(558,499,cs),
(558,565,o),
(486,612,o),
(384,612,cs),
(164,612,ls),
(152,612,o),
(144,609,o),
(144,602,cs),
(144,597,o),
(148,594,o),
(159,592,cs),
(182,589,ls),
(212,585,o),
(217,578,o),
(210,556,cs),
(54,56,ls),
(46,32,o),
(38,26,o),
(5,23,cs),
(-16,24,ls),
(-29,22,o),
(-36,17,o),
(-36,10,cs),
(-36,3,o),
(-31,0,o),
(-22,0,cs)
);
},
{
closed = 1;
nodes = (
(153,21,o),
(129,40,o),
(141,80,cs),
(205,283,ls),
(214,314,o),
(240,328,o),
(289,328,cs),
(376,328,o),
(427,284,o),
(427,207,cs),
(427,101,o),
(335,21,o),
(213,21,cs)
);
},
{
closed = 1;
nodes = (
(244,349,o),
(230,362,o),
(240,396,cs),
(290,557,ls),
(297,580,o),
(320,591,o),
(360,591,cs),
(431,591,o),
(475,555,o),
(475,496,cs),
(475,415,o),
(391,349,o),
(290,349,cs)
);
}
);
width = 551;
}
);
unicode = 66;
},
{
glyphname = C;
kernLeft = O;
kernRight = C;
lastChange = "2022-09-01 20:50:49 +0000";
layers = (
{
anchors = (
{
name = bottom;
pos = (229,0);
},
{
name = top;
pos = (375,720);
}
);
background = {
shapes = (
{
closed = 1;
nodes = (
(336,-8,o),
(386,0,o),
(413,7,cs),
(424,9,o),
(428,14,o),
(431,22,cs),
(482,155,ls),
(485,164,o),
(482,171,o),
(470,171,cs),
(462,171,o),
(457,167,o),
(453,161,cs),
(430,121,ls),
(385,43,o),
(338,14,o),
(281,14,cs),
(183,14,o),
(144,97,o),
(144,199,cs),
(144,345,o),
(275,598,o),
(435,598,cs),
(494,598,o),
(531,569,o),
(528,467,cs),
(527,434,ls),
(527,425,o),
(532,421,o),
(542,420,cs),
(550,420,o),
(557,424,o),
(559,434,cs),
(592,562,ls),
(595,571,o),
(593,575,o),
(585,581,cs),
(540,608,o),
(493,620,o),
(439,620,cs),
(213,620,o),
(63,386,o),
(63,223,cs),
(63,79,o),
(131,-8,o),
(294,-8,cs)
);
}
);
};
layerId = m002;
shapes = (
{
closed = 1;
nodes = (
(336,-8,o),
(392,0,o),
(419,7,cs),
(430,9,o),
(434,14,o),
(437,22,cs),
(483,155,ls),
(486,164,o),
(482,171,o),
(470,171,cs),
(462,171,o),
(457,167,o),
(453,161,cs),
(428,121,ls),
(379,45,o),
(338,17,o),
(281,17,cs),
(183,17,o),
(144,88,o),
(144,190,cs),
(144,345,o),
(278,597,o),
(427,597,cs),
(490,597,o),
(523,560,o),
(527,467,cs),
(528,434,ls),
(528,425,o),
(534,420,o),
(542,420,cs),
(551,420,o),
(557,424,o),
(559,434,cs),
(593,562,ls),
(596,571,o),
(593,575,o),
(585,581,cs),
(540,608,o),
(493,620,o),
(439,620,cs),
(213,620,o),
(63,386,o),
(63,214,cs),
(63,71,o),
(131,-8,o),
(294,-8,cs)
);
}
);
width = 546;
}
);
unicode = 67;
},
{
glyphname = D;
kernLeft = H;
kernRight = O;
lastChange = "2022-09-01 20:50:56 +0000";
layers = (
{
anchors = (
{
name = bottom;
pos = (209,0);
},
{
name = center;
pos = (292,360);
},
{
name = top;
pos = (365,720);
}
);
background = {
shapes = (
{
closed = 1;
nodes = (
(194,0,ls),
(379,0,o),
(535,118,o),
(592,303,cs),
(650,487,o),
(576,612,o),
(397,612,cs),
(164,612,ls),
(153,612,o),
(146,609,o),
(145,603,cs),
(143,597,o),
(146,594,o),
(156,592,cs),
(182,589,ls),
(213,585,o),
(217,580,o),
(210,556,cs),
(54,56,ls),
(48,36,o),
(33,26,o),
(5,23,cs),
(-20,23,ls),
(-29,21,o),
(-34,18,o),
(-35,11,cs),
(-37,4,o),
(-33,0,o),
(-23,0,cs)
);
},
{
closed = 1;
nodes = (
(148,22,o),
(131,39,o),
(145,84,cs),
(283,528,ls),
(296,569,o),
(334,590,o),
(390,590,cs),
(523,590,o),
(560,484,o),
(503,303,cs),
(446,121,o),
(342,22,o),
(206,22,cs)
);
}
);
};
layerId = m002;
shapes = (
{
closed = 1;
nodes = (
(209,0,ls),
(416,0,o),
(611,189,o),
(611,398,cs),
(611,539,o),
(527,612,o),
(396,612,cs),
(164,612,ls),
(152,612,o),
(144,609,o),
(144,602,cs),
(144,598,o),
(147,594,o),
(159,592,cs),
(182,589,ls),
(213,585,o),
(217,580,o),
(210,556,cs),
(54,56,ls),
(47,32,o),
(38,26,o),
(5,23,cs),
(-16,24,ls),
(-30,22,o),
(-36,17,o),
(-36,10,cs),
(-36,4,o),
(-32,0,o),
(-22,0,cs)
);
},
{
closed = 1;
nodes = (
(158,22,o),
(131,39,o),
(145,84,cs),
(283,528,ls),
(296,569,o),
(334,590,o),
(389,590,cs),
(478,590,o),
(532,544,o),
(532,454,cs),
(532,233,o),
(391,22,o),
(215,22,cs)
);
}
);
width = 616;
}
);
unicode = 68;
},
{
glyphname = Eth;
kernLeft = H;
kernRight = O;
lastChange = "2022-08-23 19:52:33 +0000";
layers = (
{
layerId = m002;
shapes = (
{
ref = D;
},
{
closed = 1;
nodes = (
(355,304,ls),
(362,304,o),
(368,308,o),
(369,313,cs),
(371,320,ls),
(373,325,o),
(369,328,o),
(362,328,cs),
(69,328,ls),
(62,328,o),
(56,325,o),
(55,320,cs),
(53,313,ls),
(52,308,o),
(55,304,o),
(62,304,cs)
);
}
);
width = 616;
}
);
unicode = 208;
},
{
glyphname = E;
kernLeft = H;
kernRight = E;
lastChange = "2022-09-01 20:51:22 +0000";
layers = (
{
anchors = (
{
name = bottom;
pos = (168,0);
},
{
name = ogonek;
pos = (326,0);
},
{
name = top;
pos = (334,720);
},
{
name = topleft;
pos = (127,720);
}
);
background = {
shapes = (
{
closed = 1;
nodes = (
(375,0,ls),
(392,0,o),
(405,7,o),
(409,20,cs),
(468,171,ls),
(471,180,o),
(466,185,o),
(457,185,cs),
(447,185,o),
(442,181,o),
(438,174,cs),
(401,109,ls),
(361,37,o),
(302,21,o),
(222,21,cs),
(147,21,o),
(128,38,o),
(140,79,cs),
(207,292,ls),
(209,300,o),
(217,304,o),
(228,304,cs),
(288,304,ls),
(322,304,o),
(338,295,o),
(335,256,cs),
(331,214,ls),
(331,207,o),
(336,203,o),
(345,203,cs),
(354,203,o),
(360,208,o),
(363,218,cs),
(423,409,ls),
(427,418,o),
(421,423,o),
(412,423,cs),
(402,423,o),
(397,419,o),
(393,412,cs),
(370,370,ls),
(355,342,o),
(331,330,o),
(297,330,cs),
(236,330,ls),
(225,330,o),
(221,334,o),
(223,342,cs),
(286,547,ls),
(297,579,o),
(320,591,o),
(382,591,cs),
(462,591,o),
(520,573,o),
(511,495,cs),
(505,448,ls),
(504,441,o),
(509,437,o),
(519,437,cs),
(528,437,o),
(535,442,o),
(537,451,cs),
(572,592,ls),
(575,605,o),
(566,612,o),
(549,612,cs),
(164,612,ls),
(152,612,o),
(144,609,o),
(144,602,cs),
(144,598,o),
(147,594,o),
(159,592,cs),
(182,589,ls),
(213,585,o),
(217,580,o),
(210,556,cs),
(54,56,ls),
(47,32,o),
(38,26,o),
(5,23,cs),
(-16,24,ls),
(-30,22,o),
(-36,17,o),
(-36,10,cs),
(-36,4,o),
(-32,0,o),
(-22,0,cs)
);
}
);
};
layerId = m002;
shapes = (
{
closed = 1;
nodes = (
(375,0,ls),
(392,0,o),
(405,7,o),
(409,20,cs),
(468,171,ls),
(471,180,o),
(466,185,o),
(457,185,cs),
(447,185,o),
(442,181,o),
(438,174,cs),
(411,127,ls),
(360,39,o),
(291,21,o),
(222,21,cs),
(147,21,o),
(128,38,o),
(140,79,cs),
(207,292,ls),
(209,300,o),
(217,304,o),
(228,304,cs),
(285,304,ls),
(320,304,o),
(334,295,o),
(332,256,cs),
(331,214,ls),
(331,207,o),
(336,203,o),
(345,203,cs),
(354,203,o),
(361,208,o),
(365,218,cs),
(424,409,ls),
(428,418,o),
(421,423,o),
(412,423,cs),
(402,423,o),
(397,419,o),
(393,412,cs),
(368,370,ls),
(352,342,o),
(329,330,o),
(294,330,cs),
(236,330,ls),
(225,330,o),
(221,334,o),
(223,342,cs),
(286,547,ls),
(297,579,o),
(320,591,o),
(382,591,cs),
(462,591,o),
(519,564,o),
(508,478,cs),
(505,448,ls),
(504,441,o),
(509,437,o),
(519,437,cs),
(528,437,o),
(535,442,o),
(537,451,cs),
(573,592,ls),
(576,605,o),
(566,612,o),
(549,612,cs),
(164,612,ls),
(152,612,o),
(144,609,o),
(144,602,cs),
(144,598,o),
(147,594,o),
(159,592,cs),
(182,589,ls),
(213,585,o),
(217,580,o),
(210,556,cs),
(54,56,ls),
(47,32,o),
(38,26,o),
(5,23,cs),
(-16,24,ls),
(-30,22,o),
(-36,17,o),
(-36,10,cs),
(-36,4,o),
(-32,0,o),
(-22,0,cs)
);
}
);
width = 522;
}
);
unicode = 69;
},
{
glyphname = F;
kernLeft = H;
lastChange = "2022-09-01 20:52:39 +0000";
layers = (
{
background = {
shapes = (
{
closed = 1;
nodes = (
(217,0,ls),
(230,0,o),
(237,3,o),
(237,10,cs),
(237,15,o),
(233,19,o),
(223,20,cs),
(162,26,ls),
(131,29,o),
(125,37,o),
(133,60,cs),
(207,292,ls),
(209,300,o),
(217,304,o),
(228,304,cs),
(273,304,ls),
(307,304,o),
(323,295,o),
(320,256,cs),
(316,215,ls),
(316,208,o),
(321,204,o),
(330,204,cs),
(339,204,o),
(345,209,o),
(348,218,cs),
(408,408,ls),
(412,417,o),
(404,422,o),
(396,422,cs),
(386,422,o),
(382,418,o),
(378,411,cs),
(355,370,ls),
(340,342,o),
(316,330,o),
(282,330,cs),
(236,330,ls),
(225,330,o),
(221,334,o),
(223,342,cs),
(285,542,ls),
(296,575,o),
(322,591,o),
(390,591,cs),
(454,591,o),
(506,573,o),
(497,495,cs),
(491,448,ls),
(490,441,o),
(496,437,o),
(505,437,cs),
(514,437,o),
(521,442,o),
(523,451,cs),
(558,592,ls),
(561,605,o),
(552,612,o),
(535,612,cs),
(164,612,ls),
(152,612,o),
(144,609,o),
(144,602,cs),
(144,598,o),
(147,594,o),
(159,592,cs),
(182,589,ls),
(213,585,o),
(217,580,o),
(210,556,cs),
(54,56,ls),
(47,32,o),
(38,26,o),
(5,23,cs),
(-16,24,ls),
(-30,22,o),
(-36,17,o),
(-36,10,cs),
(-36,4,o),
(-32,0,o),
(-22,0,cs)
);
}
);
};
layerId = m002;
shapes = (
{
closed = 1;
nodes = (
(217,0,ls),
(230,0,o),
(237,3,o),
(237,10,cs),
(237,15,o),
(233,19,o),
(223,20,cs),
(162,26,ls),
(131,29,o),
(125,37,o),
(133,60,cs),
(207,292,ls),
(209,300,o),
(217,304,o),
(228,304,cs),
(269,304,ls),
(304,304,o),
(316,295,o),
(316,256,cs),
(316,215,ls),
(316,208,o),
(321,204,o),
(330,204,cs),
(339,204,o),
(345,209,o),
(348,218,cs),
(408,408,ls),
(412,417,o),
(404,422,o),
(396,422,cs),
(386,422,o),
(383,418,o),
(378,411,cs),
(352,370,ls),
(335,342,o),
(313,330,o),
(278,330,cs),
(236,330,ls),
(225,330,o),
(221,334,o),
(223,342,cs),
(285,542,ls),
(296,575,o),
(322,591,o),
(389,591,cs),
(453,591,o),
(501,556,o),
(493,478,cs),
(491,448,ls),
(490,441,o),
(496,437,o),
(505,437,cs),
(514,437,o),
(521,442,o),
(523,451,cs),
(558,592,ls),
(561,605,o),
(552,612,o),
(535,612,cs),
(164,612,ls),
(152,612,o),
(144,609,o),
(144,602,cs),
(144,598,o),
(147,594,o),
(159,592,cs),
(182,589,ls),
(213,585,o),
(217,580,o),
(210,556,cs),
(54,56,ls),
(47,32,o),
(38,26,o),
(5,23,cs),
(-16,24,ls),
(-30,22,o),
(-36,17,o),
(-36,10,cs),
(-36,4,o),
(-32,0,o),
(-22,0,cs)
);
}
);
width = 473;
}
);
unicode = 70;
},
{
glyphname = G;
kernLeft = O;
kernRight = G;
lastChange = "2022-09-01 20:53:01 +0000";
layers = (
{
anchors = (
{
name = bottom;
pos = (228,0);
},
{
name = top;
pos = (394,720);
}
);
background = {
shapes = (
{
closed = 1;
nodes = (
(328,-8,o),
(371,7,o),
(409,24,cs),
(437,37,o),
(448,47,o),
(452,60,cs),
(519,273,ls),
(526,297,o),
(530,305,o),
(565,309,cs),
(582,310,ls),
(592,311,o),
(599,314,o),
(599,321,cs),
(599,327,o),
(593,330,o),
(584,330,cs),
(376,330,ls),
(363,330,o),
(355,326,o),
(355,320,cs),
(355,315,o),
(360,311,o),
(370,310,cs),
(411,307,ls),
(445,304,o),
(446,297,o),
(439,274,cs),
(382,88,ls),
(365,32,o),
(324,14,o),
(275,14,cs),
(195,14,o),
(140,76,o),
(140,200,cs),
(140,312,o),
(241,598,o),
(452,598,cs),
(512,598,o),
(549,570,o),
(545,480,cs),
(544,447,ls),
(544,440,o),
(549,436,o),
(558,436,cs),
(568,436,o),
(574,442,o),
(576,450,cs),
(611,580,ls),
(613,590,o),
(612,594,o),
(604,598,cs),
(572,611,o),
(526,620,o),
(458,620,cs),
(189,620,o),
(60,366,o),
(60,215,cs),
(60,71,o),
(139,-8,o),
(271,-8,cs)
);
}
);
};
layerId = m002;
shapes = (
{
closed = 1;
nodes = (
(328,-8,o),
(371,7,o),
(409,24,cs),
(437,37,o),
(448,47,o),
(452,60,cs),
(519,273,ls),
(526,297,o),
(530,305,o),
(565,309,cs),
(582,310,ls),
(592,311,o),
(599,314,o),
(599,321,cs),
(599,327,o),
(593,330,o),
(584,330,cs),
(376,330,ls),
(363,330,o),
(355,326,o),
(355,320,cs),
(355,315,o),
(360,311,o),
(370,310,cs),
(411,307,ls),
(445,304,o),
(446,297,o),
(439,274,cs),
(382,88,ls),
(365,32,o),
(324,14,o),
(275,14,cs),
(195,14,o),
(140,76,o),
(140,200,cs),
(140,312,o),
(241,598,o),
(452,598,cs),
(512,598,o),
(538,569,o),
(543,472,cs),
(544,447,ls),
(544,440,o),
(549,436,o),
(558,436,cs),
(568,436,o),
(574,442,o),
(576,450,cs),
(611,580,ls),
(613,590,o),
(612,594,o),
(604,598,cs),
(572,611,o),
(526,620,o),
(458,620,cs),
(189,620,o),
(60,366,o),
(60,215,cs),
(60,71,o),
(139,-8,o),
(271,-8,cs)
);
}
);
width = 591;
}
);
unicode = 71;
},
{
glyphname = H;
kernLeft = H;
kernRight = H;
lastChange = "2022-09-01 20:53:06 +0000";
layers = (
{
background = {
shapes = (
{
closed = 1;
nodes = (
(182,0,ls),
(193,0,o),
(200,3,o),
(202,10,cs),
(204,15,o),
(200,19,o),
(192,20,cs),
(162,23,ls),
(131,26,o),
(126,33,o),
(133,57,cs),
(207,292,ls),
(209,300,o),
(217,304,o),
(228,304,cs),
(455,304,ls),
(466,304,o),
(469,300,o),
(467,292,cs),
(393,57,ls),
(386,33,o),
(377,26,o),
(344,23,cs),
(312,20,ls),
(304,19,o),
(298,15,o),
(297,10,cs),
(294,3,o),
(299,0,o),
(310,0,cs),
(519,0,ls),
(530,0,o),
(537,3,o),
(539,9,cs),
(540,14,o),
(537,18,o),
(527,20,cs),
(501,23,ls),
(470,27,o),
(466,32,o),
(473,56,cs),
(629,556,ls),
(636,580,o),
(645,585,o),
(678,589,cs),
(706,592,ls),
(716,594,o),
(722,598,o),
(724,603,cs),
(726,609,o),
(721,612,o),
(710,612,cs),
(501,612,ls),
(490,612,o),
(483,609,o),
(481,602,cs),
(480,597,o),
(483,593,o),
(491,592,cs),
(521,589,ls),
(552,586,o),
(557,579,o),
(550,555,cs),
(483,342,ls),
(481,334,o),
(474,330,o),
(463,330,cs),
(236,330,ls),
(225,330,o),
(221,334,o),
(223,342,cs),
(290,555,ls),
(297,579,o),
(306,586,o),
(339,589,cs),
(371,592,ls),
(379,593,o),
(385,597,o),
(386,602,cs),
(389,609,o),
(384,612,o),
(373,612,cs),
(164,612,ls),
(153,612,o),
(146,609,o),
(145,603,cs),
(143,598,o),
(146,594,o),
(156,592,cs),
(182,589,ls),
(213,585,o),
(217,580,o),
(210,556,cs),
(54,56,ls),
(47,32,o),
(38,27,o),
(5,23,cs),
(-20,23,ls),
(-29,21,o),
(-34,17,o),
(-35,11,cs),
(-37,4,o),
(-33,0,o),
(-23,0,cs)
);
}
);
};
layerId = m002;
shapes = (
{
closed = 1;
nodes = (
(182,0,ls),
(195,0,o),
(204,3,o),
(204,10,cs),
(204,15,o),
(199,20,o),
(187,20,cs),
(162,23,ls),
(131,26,o),
(126,33,o),
(133,57,cs),
(207,292,ls),
(209,300,o),
(217,304,o),
(228,304,cs),
(455,304,ls),
(466,304,o),
(469,300,o),
(467,292,cs),
(393,57,ls),
(386,33,o),
(377,26,o),
(344,23,cs),
(316,20,ls),
(305,20,o),
(296,16,o),
(296,9,cs),
(296,4,o),
(300,0,o),
(312,0,cs),
(519,0,ls),
(531,0,o),
(539,3,o),
(539,10,cs),
(539,14,o),
(536,18,o),
(524,20,cs),
(501,23,ls),
(470,27,o),
(466,32,o),
(473,56,cs),
(629,556,ls),
(636,580,o),
(645,586,o),
(678,589,cs),
(702,592,ls),
(718,593,o),
(724,598,o),
(724,604,cs),
(724,609,o),
(720,612,o),
(708,612,cs),
(501,612,ls),
(488,612,o),
(480,609,o),
(480,602,cs),
(480,597,o),
(484,592,o),
(496,592,cs),
(521,589,ls),
(552,586,o),
(557,579,o),
(550,555,cs),
(483,342,ls),
(481,334,o),
(474,330,o),
(463,330,cs),
(236,330,ls),
(225,330,o),
(221,334,o),
(223,342,cs),
(290,555,ls),
(297,579,o),
(306,586,o),
(339,589,cs),
(367,592,ls),
(378,592,o),
(388,596,o),
(388,603,cs),
(388,608,o),
(383,612,o),
(371,612,cs),
(164,612,ls),
(152,612,o),
(144,609,o),
(144,602,cs),
(144,598,o),
(147,594,o),
(159,592,cs),
(182,589,ls),
(213,585,o),
(217,580,o),
(210,556,cs),
(54,56,ls),
(47,32,o),
(38,26,o),
(5,23,cs),
(-16,24,ls),
(-30,22,o),
(-36,17,o),
(-36,10,cs),
(-36,4,o),
(-32,0,o),
(-22,0,cs)
);
}
);
width = 627;
}
);
unicode = 72;
},
{
glyphname = Hbar;
kernLeft = H;
kernRight = H;
lastChange = "2022-08-23 19:52:53 +0000";
layers = (
{
layerId = m002;
shapes = (
{
ref = H;
},
{
closed = 1;
nodes = (
(666,452,ls),
(673,452,o),
(678,456,o),
(680,461,cs),
(682,468,ls),
(683,473,o),
(680,476,o),
(673,476,cs),
(115,476,ls),
(108,476,o),
(102,473,o),
(101,468,cs),
(99,461,ls),
(98,456,o),
(101,452,o),
(108,452,cs)
);
}
);
width = 627;
}
);
unicode = 294;
},
{
glyphname = I;
kernLeft = H;
kernRight = H;
lastChange = "2022-08-25 19:54:44 +0000";
layers = (
{
anchors = (
{
name = bottom;
pos = (66,0);
},
{
name = ogonek;
pos = (100,0);
},
{
name = top;
pos = (232,720);
},
{
name = topleft;
pos = (127,720);
}
);
background = {
shapes = (
{
closed = 1;
nodes = (
(182,0,ls),
(195,0,o),
(204,3,o),
(204,10,cs),
(204,15,o),
(199,20,o),
(187,20,cs),
(162,23,ls),
(131,26,o),
(126,33,o),
(133,57,cs),
(290,555,ls),
(297,579,o),
(306,586,o),
(337,589,cs),
(365,592,ls),
(376,592,o),
(385,596,o),
(385,603,cs),
(385,608,o),
(381,612,o),
(369,612,cs),
(164,612,ls),
(152,612,o),
(144,609,o),
(144,602,cs),
(144,598,o),
(147,594,o),
(159,592,cs),
(182,589,ls),
(213,585,o),
(217,580,o),
(210,556,cs),
(54,56,ls),
(47,32,o),
(38,26,o),
(5,23,cs),
(-16,24,ls),
(-30,22,o),
(-36,17,o),
(-36,10,cs),
(-36,4,o),
(-32,0,o),
(-22,0,cs)
);
}
);
};
layerId = m002;
shapes = (
{
closed = 1;
nodes = (
(179,0,ls),
(192,0,o),
(200,3,o),
(200,10,cs),
(200,14,o),
(197,18,o),
(185,20,cs),
(162,23,ls),
(131,27,o),
(126,32,o),
(133,56,cs),
(290,556,ls),
(297,580,o),
(306,586,o),
(339,589,cs),
(362,592,ls),
(378,593,o),
(385,598,o),
(385,604,cs),
(385,609,o),
(381,612,o),
(369,612,cs),
(164,612,ls),
(152,612,o),
(144,609,o),
(144,602,cs),
(144,598,o),
(147,594,o),
(159,592,cs),
(182,589,ls),
(213,585,o),
(217,580,o),
(210,556,cs),
(54,56,ls),
(47,32,o),
(38,26,o),
(5,23,cs),
(-16,24,ls),
(-30,22,o),
(-36,17,o),
(-36,10,cs),
(-36,4,o),
(-32,0,o),
(-22,0,cs)
);
}
);
width = 288;
}
);
unicode = 73;
},
{
glyphname = J;
kernRight = J;
lastChange = "2022-09-01 21:01:27 +0000";
layers = (
{
background = {
shapes = (
{
closed = 1;
nodes = (
(-4,-215,o),
(85,-99,o),
(128,37,cs),
(290,556,ls),
(297,580,o),
(306,586,o),
(339,589,cs),
(362,592,ls),
(378,593,o),
(385,598,o),
(385,604,cs),
(385,609,o),
(381,612,o),
(369,612,cs),
(164,612,ls),
(152,612,o),
(144,609,o),
(144,602,cs),
(144,598,o),
(147,594,o),
(159,592,cs),
(182,589,ls),
(213,585,o),
(217,580,o),
(210,556,cs),
(13,-77,ls),
(-1,-144,o),
(-23,-175,o),
(-48,-175,cs),
(-84,-175,o),
(-54,-109,o),
(-98,-109,cs),
(-122,-109,o),
(-144,-128,o),
(-150,-155,cs),
(-158,-191,o),
(-136,-215,o),
(-94,-215,cs)
);
}
);
};
layerId = m002;
shapes = (
{
closed = 1;
nodes = (
(-2,-215,o),
(85,-99,o),
(128,37,cs),
(290,556,ls),
(297,580,o),
(306,586,o),
(339,589,cs),
(362,592,ls),
(378,593,o),
(385,598,o),
(385,604,cs),
(385,609,o),
(381,612,o),
(369,612,cs),
(164,612,ls),
(152,612,o),
(144,609,o),
(144,602,cs),
(144,598,o),
(147,594,o),
(159,592,cs),
(182,589,ls),
(213,585,o),
(217,580,o),
(210,556,cs),
(13,-77,ls),
(-1,-144,o),
(-23,-175,o),
(-48,-175,cs),
(-84,-175,o),
(-58,-109,o),
(-107,-109,cs),
(-135,-109,o),
(-152,-134,o),
(-152,-161,cs),
(-152,-193,o),
(-127,-215,o),
(-89,-215,cs)
);
}
);
width = 289;
}
);
unicode = 74;
},
{
glyphname = K;
kernLeft = H;
kernRight = K;
lastChange = "2022-09-01 20:53:20 +0000";
layers = (
{
anchors = (
{
name = bottom;
pos = (221,0);
},
{
name = top;
pos = (357,720);
}
);
background = {
shapes = (
{
closed = 1;
nodes = (
(182,0,ls),
(195,0,o),
(202,3,o),
(202,10,cs),
(202,15,o),
(199,19,o),
(190,20,cs),
(162,23,ls),
(131,26,o),
(126,33,o),
(133,57,cs),
(290,555,ls),
(297,579,o),
(306,586,o),
(339,589,cs),
(369,592,ls),
(379,592,o),
(388,597,o),
(388,603,cs),
(388,609,o),
(382,612,o),
(370,612,cs),
(164,612,ls),
(152,612,o),
(144,609,o),
(144,602,cs),
(144,598,o),
(147,594,o),
(159,592,cs),
(182,589,ls),
(213,585,o),
(217,580,o),
(210,556,cs),
(54,56,ls),
(47,32,o),
(38,26,o),
(5,23,cs),
(-16,24,ls),
(-30,22,o),
(-36,17,o),
(-36,10,cs),
(-36,4,o),
(-32,0,o),
(-22,0,cs)
);
},
{
closed = 1;
nodes = (
(526,530,ls),
(577,574,o),
(606,587,o),
(653,591,cs),
(676,592,ls),
(689,593,o),
(695,598,o),
(695,604,cs),
(695,609,o),
(689,612,o),
(678,612,cs),
(482,612,ls),
(469,612,o),
(463,609,o),
(463,603,cs),
(463,598,o),
(468,594,o),
(480,592,cs),
(501,589,ls),
(531,585,o),
(527,569,o),
(493,540,cs),
(217,305,l),
(206,305,l),
(187,243,l)
);
},
{
closed = 1;
nodes = (
(270,322,l),
(267,312,l),
(275,312,l),
(374,63,ls),
(384,38,o),
(371,24,o),
(343,21,cs),
(322,20,ls),
(310,19,o),
(304,14,o),
(304,8,cs),
(304,4,o),
(308,0,o),
(320,0,cs),
(512,0,ls),
(524,0,o),
(531,3,o),
(531,10,cs),
(531,15,o),
(527,18,o),
(518,20,cs),
(493,23,ls),
(476,26,o),
(467,32,o),
(460,50,cs),
(329,371,l)
);
}
);
};
layerId = m002;
shapes = (
{
closed = 1;
nodes = (
(182,0,ls),
(195,0,o),
(202,3,o),
(202,10,cs),
(202,15,o),
(199,19,o),
(190,20,cs),
(162,23,ls),
(131,26,o),
(126,33,o),
(133,57,cs),
(185,224,ls),
(191,241,o),
(199,254,o),
(215,267,cs),
(259,303,ls),
(267,310,o),
(277,309,o),
(281,300,cs),
(374,63,ls),
(383,38,o),
(371,24,o),
(343,21,cs),
(322,20,ls),
(310,19,o),
(304,14,o),
(304,8,cs),
(304,4,o),
(308,0,o),
(320,0,cs),
(512,0,ls),
(524,0,o),
(531,3,o),
(531,10,cs),
(531,15,o),
(527,18,o),
(518,20,cs),
(493,23,ls),
(476,26,o),
(467,32,o),
(460,50,cs),
(337,350,ls),
(332,360,o),
(336,369,o),
(345,377,cs),
(526,530,ls),
(577,574,o),
(606,587,o),
(653,591,cs),
(676,592,ls),
(689,593,o),
(695,598,o),
(695,604,cs),
(695,609,o),
(689,612,o),
(678,612,cs),
(482,612,ls),
(469,612,o),
(463,609,o),
(463,603,cs),
(463,598,o),
(468,594,o),
(480,592,cs),
(501,589,ls),
(531,585,o),
(527,569,o),
(493,540,cs),
(232,318,ls),
(223,310,o),
(214,314,o),
(217,324,cs),
(290,555,ls),
(297,579,o),
(306,586,o),
(339,589,cs),
(369,592,ls),
(379,592,o),
(388,597,o),
(388,603,cs),
(388,609,o),
(382,612,o),
(370,612,cs),
(164,612,ls),
(152,612,o),
(144,609,o),
(144,602,cs),
(144,598,o),
(147,594,o),
(159,592,cs),
(182,589,ls),
(213,585,o),
(217,580,o),
(210,556,cs),
(54,56,ls),
(47,32,o),
(38,26,o),
(5,23,cs),
(-16,24,ls),
(-30,22,o),
(-36,17,o),
(-36,10,cs),
(-36,4,o),
(-32,0,o),
(-22,0,cs)
);
}
);
width = 574;
}
);
unicode = 75;
},
{
glyphname = L;
kernLeft = H;
kernRight = L;
lastChange = "2022-09-01 20:16:45 +0000";
layers = (
{
anchors = (
{
name = bottom;
pos = (148,0);
},
{
name = center;
pos = (231,360);
},
{
name = top;
pos = (228,720);
},
{
name = topright;
pos = (369,720);
}
);
background = {
shapes = (
{
closed = 1;
nodes = (
(343,0,ls),
(360,0,o),
(373,7,o),
(377,20,cs),
(442,179,ls),
(445,189,o),
(439,194,o),
(430,194,cs),
(421,194,o),
(415,190,o),
(412,183,cs),
(369,109,ls),
(329,38,o),
(270,21,o),
(217,21,cs),
(159,21,o),
(128,38,o),
(140,79,cs),
(290,555,ls),
(297,579,o),
(306,586,o),
(339,589,cs),
(371,592,ls),
(379,593,o),
(385,597,o),
(386,602,cs),
(389,609,o),
(384,612,o),
(373,612,cs),
(164,612,ls),
(152,612,o),
(144,609,o),
(144,602,cs),
(144,598,o),
(147,594,o),
(159,592,cs),
(182,589,ls),
(213,585,o),
(217,580,o),
(210,556,cs),
(54,56,ls),
(47,32,o),
(38,26,o),
(5,23,cs),
(-16,24,ls),
(-30,22,o),
(-36,17,o),
(-36,10,cs),
(-36,4,o),
(-32,0,o),
(-22,0,cs)
);
}
);
};
layerId = m002;
shapes = (
{
closed = 1;
nodes = (
(343,0,ls),
(360,0,o),
(373,7,o),
(377,20,cs),
(442,179,ls),
(445,189,o),
(439,194,o),
(430,194,cs),
(421,194,o),
(415,190,o),
(412,183,cs),
(377,123,ls),
(337,53,o),
(270,21,o),
(212,21,cs),
(159,21,o),
(128,38,o),
(140,79,cs),
(290,555,ls),
(297,579,o),
(306,586,o),
(339,589,cs),
(371,592,ls),
(379,593,o),
(385,597,o),
(386,602,cs),
(389,609,o),
(384,612,o),
(373,612,cs),
(164,612,ls),
(152,612,o),
(144,609,o),
(144,602,cs),
(144,598,o),
(147,594,o),
(159,592,cs),
(182,589,ls),
(213,585,o),
(217,580,o),
(210,556,cs),
(54,56,ls),
(47,32,o),
(38,26,o),
(5,23,cs),
(-16,24,ls),
(-30,22,o),
(-36,17,o),
(-36,10,cs),
(-36,4,o),
(-32,0,o),
(-22,0,cs)
);
}
);
width = 476;
}
);
unicode = 76;
},
{
glyphname = Lslash;
kernLeft = H;
kernRight = L;
lastChange = "2022-08-23 19:53:25 +0000";
layers = (
{
layerId = m002;
shapes = (
{
ref = L;
},
{
closed = 1;
nodes = (
(186,326,l),
(31,261,ls),
(24,258,o),
(21,253,o),
(24,249,cs),
(29,243,ls),
(32,239,o),
(37,238,o),
(44,241,cs),
(179,298,l)
);
},
{
closed = 1;
nodes = (
(181,293,l),
(343,360,ls),
(350,363,o),
(352,368,o),
(350,372,cs),
(345,378,ls),
(343,382,o),
(337,383,o),
(330,381,cs),
(187,321,l)
);
}
);
width = 476;
}
);
unicode = 321;
},
{
glyphname = M;
lastChange = "2022-09-01 20:53:28 +0000";
layers = (
{
background = {
shapes = (
{
closed = 1;
nodes = (
(305,8,o),
(312,11,o),
(319,22,cs),
(668,562,l),
(683,562,l),
(700,612,l),
(693,612,ls),
(672,612,o),
(659,605,o),
(650,591,cs),
(363,150,l),
(358,150,l),
(351,586,ls),
(351,604,o),
(339,612,o),
(317,612,cs),
(269,612,l),
(283,22,ls),
(283,11,o),
(290,8,o),
(298,8,cs)
);
},
{
closed = 1;
nodes = (
(662,0,ls),
(676,0,o),
(683,4,o),
(683,10,cs),
(683,14,o),
(680,19,o),
(665,20,cs),
(645,23,ls),
(614,27,o),
(610,32,o),
(616,56,cs),
(750,556,ls),
(757,580,o),
(766,585,o),
(799,589,cs),
(827,592,ls),
(839,594,o),
(846,598,o),
(846,604,cs),
(846,609,o),
(842,612,o),
(833,612,cs),
(700,612,l),
(678,582,l),
(537,56,ls),
(530,32,o),
(521,27,o),
(488,23,cs),
(460,20,ls),
(448,18,o),
(442,14,o),
(442,8,cs),
(442,3,o),
(446,0,o),
(458,0,cs)
);
},
{
closed = 1;
nodes = (
(291,612,l),
(179,612,ls),
(166,612,o),
(159,609,o),
(159,603,cs),
(159,598,o),
(163,593,o),
(177,592,cs),
(197,589,ls),
(230,585,o),
(236,580,o),
(228,556,cs),
(54,73,ls),
(43,41,o),
(26,26,o),
(-13,25,cs),
(-27,23,ls),
(-36,22,o),
(-43,18,o),
(-43,10,cs),
(-43,4,o),
(-39,0,o),
(-28,0,cs),
(130,0,ls),
(145,0,o),
(152,3,o),
(152,10,cs),
(152,14,o),
(148,19,o),
(138,20,cs),
(124,21,ls),
(87,26,o),
(78,41,o),
(90,73,cs),
(266,562,l),
(271,562,l)
);
}
);
};
guides = (
{
angle = 165.1125;
pos = (76,104);
showMeasurement = 1;
}
);
layerId = m002;
shapes = (
{
closed = 1;
nodes = (
(305,8,o),
(312,11,o),
(319,22,cs),
(654,541,ls),
(659,548,o),
(669,546,o),
(667,538,cs),
(537,56,ls),
(530,32,o),
(521,27,o),
(488,23,cs),
(460,20,ls),
(448,18,o),
(442,14,o),
(442,8,cs),
(442,3,o),
(446,0,o),
(458,0,cs),
(662,0,ls),
(676,0,o),
(683,4,o),
(683,10,cs),
(683,14,o),
(680,19,o),
(665,20,cs),
(645,23,ls),
(614,27,o),
(610,32,o),
(616,56,cs),
(750,556,ls),
(757,580,o),
(766,585,o),
(799,589,cs),
(827,592,ls),
(839,594,o),
(846,598,o),
(846,604,cs),
(846,609,o),
(842,612,o),
(833,612,cs),
(693,612,ls),
(672,612,o),
(659,605,o),
(650,591,cs),
(371,162,ls),
(367,156,o),
(358,156,o),
(358,164,cs),
(351,586,ls),
(351,604,o),
(339,612,o),
(317,612,cs),
(179,612,ls),
(166,612,o),
(159,609,o),
(159,603,cs),
(159,598,o),
(163,593,o),
(177,592,cs),
(197,589,ls),
(230,585,o),
(236,580,o),
(228,556,cs),
(54,73,ls),
(43,41,o),
(26,26,o),
(-13,25,cs),
(-27,23,ls),
(-36,22,o),
(-43,18,o),
(-43,10,cs),
(-43,4,o),
(-39,0,o),
(-28,0,cs),
(130,0,ls),
(145,0,o),
(152,3,o),
(152,10,cs),
(152,14,o),
(148,19,o),
(138,20,cs),
(124,21,ls),
(87,26,o),
(78,41,o),
(90,73,cs),
(259,541,ls),
(261,548,o),
(271,548,o),
(271,541,cs),
(283,22,ls),
(283,11,o),
(290,8,o),
(298,8,cs)
);
}
);
width = 765;
}
);
unicode = 77;
},
{
glyphname = N;
kernLeft = N;
kernRight = N;
lastChange = "2022-09-01 20:53:33 +0000";
layers = (
{
anchors = (
{
name = bottom;
pos = (212,0);
},
{
name = top;
pos = (378,720);
}
);
background = {
shapes = (
{
closed = 1;
nodes = (
(442,-8,o),
(453,-1,o),
(457,11,cs),
(621,539,ls),
(632,575,o),
(649,586,o),
(690,591,cs),
(706,592,ls),
(716,593,o),
(722,598,o),
(724,603,cs),
(726,609,o),
(721,612,o),
(710,612,cs),
(545,612,ls),
(534,612,o),
(527,609,o),
(526,603,cs),
(523,598,o),
(527,594,o),
(537,592,cs),
(557,590,ls),
(582,586,o),
(597,575,o),
(585,539,cs),
(461,140,l),
(455,140,l),
(306,593,ls),
(301,607,o),
(291,612,o),
(271,612,cs),
(160,612,ls),
(148,612,o),
(141,609,o),
(140,603,cs),
(138,598,o),
(141,594,o),
(152,592,cs),
(177,589,ls),
(210,585,o),
(215,580,o),
(208,556,cs),
(57,73,ls),
(47,41,o),
(30,26,o),
(-10,25,cs),
(-24,23,ls),
(-33,22,o),
(-38,17,o),
(-39,11,cs),
(-41,4,o),
(-37,0,o),
(-27,0,cs),
(133,0,ls),
(145,0,o),
(152,3,o),
(154,9,cs),
(155,14,o),
(152,19,o),
(141,20,cs),
(128,21,ls),
(91,26,o),
(83,41,o),
(93,73,cs),
(233,524,l),
(239,524,l),
(411,6,ls),
(414,-4,o),
(419,-8,o),
(430,-8,cs)
);
}
);
};
layerId = m002;
shapes = (
{
closed = 1;
nodes = (
(442,-8,o),
(453,-1,o),
(457,11,cs),
(621,539,ls),
(632,575,o),
(649,586,o),
(690,591,cs),
(706,592,ls),
(716,593,o),
(722,598,o),
(724,603,cs),
(726,609,o),
(721,612,o),
(710,612,cs),
(545,612,ls),
(534,612,o),
(527,609,o),
(526,603,cs),
(523,598,o),
(527,594,o),
(537,592,cs),
(557,590,ls),
(582,586,o),
(597,575,o),
(585,539,cs),
(465,153,ls),
(462,145,o),
(453,145,o),
(451,153,cs),
(306,593,ls),
(301,607,o),
(291,612,o),
(271,612,cs),
(160,612,ls),
(148,612,o),
(141,609,o),
(140,603,cs),
(138,598,o),
(141,594,o),
(152,592,cs),
(177,589,ls),
(210,585,o),
(215,580,o),
(208,556,cs),
(57,73,ls),
(47,41,o),
(30,26,o),
(-10,25,cs),
(-24,23,ls),
(-33,22,o),
(-38,17,o),
(-39,11,cs),
(-41,4,o),
(-37,0,o),
(-27,0,cs),
(133,0,ls),
(145,0,o),
(152,3,o),
(154,9,cs),
(155,14,o),
(152,19,o),
(141,20,cs),
(128,21,ls),
(91,26,o),
(83,41,o),
(93,73,cs),
(230,513,ls),
(232,518,o),
(240,518,o),
(243,513,cs),
(411,6,ls),
(414,-4,o),
(419,-8,o),
(430,-8,cs)
);
}
);
width = 623;
}
);
unicode = 78;
},
{
glyphname = Eng;
kernLeft = N;
kernRight = N;
lastChange = "2022-08-23 20:12:33 +0000";
layers = (
{
layerId = m002;
shapes = (
{
closed = 1;
nodes = (
(352,-183,o),
(414,-126,o),
(444,-31,cs),
(621,539,ls),
(632,575,o),
(649,586,o),
(690,591,cs),
(706,592,ls),
(716,593,o),
(722,598,o),
(724,603,cs),
(726,609,o),
(721,612,o),
(710,612,cs),
(545,612,ls),
(534,612,o),
(527,609,o),
(526,603,cs),
(523,598,o),
(527,594,o),
(537,592,cs),
(557,590,ls),
(582,586,o),
(597,575,o),
(585,539,cs),
(465,153,ls),
(462,145,o),
(453,145,o),
(451,153,cs),
(306,593,ls),
(301,607,o),
(291,612,o),
(271,612,cs),
(160,612,ls),
(148,612,o),
(141,609,o),
(140,603,cs),
(138,598,o),
(141,594,o),
(152,592,cs),
(177,589,ls),
(210,585,o),
(215,580,o),
(208,556,cs),
(57,73,ls),
(47,41,o),
(30,26,o),
(-10,25,cs),
(-24,23,ls),
(-33,22,o),
(-38,17,o),
(-39,11,cs),
(-41,4,o),
(-37,0,o),
(-27,0,cs),
(133,0,ls),
(145,0,o),
(152,3,o),
(154,9,cs),
(155,14,o),
(152,19,o),
(141,20,cs),
(128,21,ls),
(91,26,o),
(83,41,o),
(93,73,cs),
(230,513,ls),
(232,518,o),
(240,518,o),
(243,513,cs),
(391,64,ls),
(392,59,o),
(392,54,o),
(391,48,cs),
(346,-97,ls),
(329,-151,o),
(315,-160,o),
(299,-160,cs),
(255,-160,o),
(293,-90,o),
(235,-90,cs),
(214,-90,o),
(194,-102,o),
(194,-126,cs),
(194,-158,o),
(223,-183,o),
(277,-183,cs)
);
}
);
width = 623;
}
);
unicode = 330;
},
{
glyphname = O;
kernLeft = O;
kernRight = O;
lastChange = "2022-09-01 19:27:44 +0000";
layers = (
{
anchors = (
{
name = bottom;
pos = (211,0);
},
{
name = center;
pos = (294,360);
},
{
name = ogonek;
pos = (429,10);
},
{
name = top;
pos = (377,720);
},
{
name = topleft;
pos = (127,720);
},
{
name = topright;
pos = (601,450);
}
);
background = {
shapes = (
{
closed = 1;
nodes = (
(386,-8,o),
(546,130,o),
(601,307,cs),
(657,483,o),
(583,620,o),
(436,620,cs),
(288,620,o),
(128,483,o),
(72,307,cs),
(17,130,o),
(91,-8,o),
(239,-8,cs)
);
},
{
closed = 1;
nodes = (
(138,15,o),
(102,110,o),
(163,307,cs),
(224,502,o),
(320,598,o),
(428,598,cs),
(536,598,o),
(572,502,o),
(511,307,cs),
(450,110,o),
(354,15,o),
(246,15,cs)
);
}
);
};
layerId = m002;
shapes = (
{
closed = 1;
nodes = (
(440,-8,o),
(615,197,o),
(615,406,cs),
(615,547,o),
(540,620,o),
(421,620,cs),
(237,620,o),
(62,416,o),
(62,207,cs),
(62,65,o),
(137,-8,o),
(256,-8,cs)
);
},
{
closed = 1;
nodes = (
(178,14,o),
(140,60,o),
(140,150,cs),
(140,371,o),
(282,598,o),
(423,598,cs),
(499,598,o),
(537,552,o),
(537,462,cs),
(537,241,o),
(396,14,o),
(254,14,cs)
);
}
);
width = 621;
}
);
unicode = 79;
},
{
glyphname = Oslash;
kernLeft = O;
kernRight = O;
lastChange = "2022-08-23 19:53:48 +0000";
layers = (
{
background = {
shapes = (
{
closed = 1;
nodes = (
(40,-60,ls),
(46,-60,o),
(51,-58,o),
(54,-53,cs),
(588,602,ls),
(592,608,o),
(589,612,o),
(581,612,cs),
(570,612,ls),
(565,612,o),
(560,610,o),
(557,605,cs),
(23,-49,ls),
(18,-55,o),
(22,-60,o),
(30,-60,cs)
);
}
);
};
layerId = m002;
shapes = (
{
ref = O;
},
{
closed = 1;
nodes = (
(59,-51,ls),
(64,-51,o),
(69,-49,o),
(72,-44,cs),
(641,653,ls),
(645,659,o),
(642,663,o),
(634,663,cs),
(619,663,ls),
(613,663,o),
(608,661,o),
(605,656,cs),
(37,-41,ls),
(32,-47,o),
(36,-51,o),
(44,-51,cs)
);
}
);
width = 621;
}
);
unicode = 216;
},
{
glyphname = OE;
kernLeft = O;
kernRight = E;
lastChange = "2022-08-23 19:53:43 +0000";
layers = (
{
background = {
shapes = (
{
closed = 1;
nodes = (
(726,0,ls),
(743,0,o),
(756,7,o),
(760,20,cs),
(819,171,ls),
(822,180,o),
(816,185,o),
(807,185,cs),
(798,185,o),
(792,181,o),
(789,174,cs),
(761,127,ls),
(711,39,o),
(642,21,o),
(573,21,cs),
(498,21,o),
(478,38,o),
(491,79,cs),
(558,292,ls),
(560,300,o),
(568,304,o),
(578,304,cs),
(636,304,ls),
(670,304,o),
(684,295,o),
(683,256,cs),
(682,214,ls),
(682,207,o),
(687,203,o),
(696,203,cs),
(705,203,o),
(712,208,o),
(715,218,cs),
(775,409,ls),
(779,418,o),
(772,423,o),
(762,423,cs),
(753,423,o),
(747,419,o),
(744,412,cs),
(719,370,ls),
(703,342,o),
(680,330,o),
(645,330,cs),
(586,330,ls),
(576,330,o),
(572,334,o),
(574,342,cs),
(637,547,ls),
(647,579,o),
(670,591,o),
(733,591,cs),
(813,591,o),
(869,564,o),
(859,478,cs),
(856,448,ls),
(854,441,o),
(860,437,o),
(869,437,cs),
(879,437,o),
(885,442,o),
(888,451,cs),
(923,592,ls),
(927,605,o),
(917,612,o),
(899,612,cs),
(515,612,ls),
(503,612,o),
(494,609,o),
(494,602,cs),
(494,598,o),
(498,594,o),
(509,592,cs),
(532,589,ls),
(564,585,o),
(568,580,o),
(561,556,cs),
(405,56,ls),
(398,32,o),
(389,26,o),
(355,23,cs),
(332,20,ls),
(316,19,o),
(309,14,o),
(309,8,cs),
(309,3,o),
(314,0,o),
(325,0,cs)
);
}
);
};
layerId = m002;
shapes = (
{
closed = 1;
nodes = (
(297,-8,o),
(334,0,o),
(385,0,cs),
(726,0,ls),
(743,0,o),
(756,7,o),
(760,20,cs),
(819,171,ls),
(822,180,o),
(815,185,o),
(807,185,cs),
(798,185,o),
(792,181,o),
(789,174,cs),
(760,124,ls),
(714,44,o),
(650,21,o),
(573,21,cs),
(500,21,o),
(478,37,o),
(491,79,cs),
(558,292,ls),
(560,300,o),
(568,304,o),
(578,304,cs),
(635,304,ls),
(669,304,o),
(683,295,o),
(682,256,cs),
(681,214,ls),
(681,208,o),
(687,203,o),
(695,203,cs),
(705,203,o),
(712,209,o),
(714,218,cs),
(774,409,ls),
(777,419,o),
(772,423,o),
(761,423,cs),
(753,423,o),
(747,418,o),
(744,412,cs),
(718,370,ls),
(700,342,o),
(678,330,o),
(644,330,cs),
(586,330,ls),
(575,330,o),
(572,333,o),
(574,342,cs),
(637,547,ls),
(647,579,o),
(670,591,o),
(733,591,cs),
(835,591,o),
(862,548,o),
(858,479,cs),
(856,448,ls),
(856,441,o),
(860,437,o),
(869,437,cs),
(879,437,o),
(885,442,o),
(888,451,cs),
(922,592,ls),
(926,605,o),
(917,612,o),
(899,612,cs),
(576,612,ls),
(524,612,o),
(492,620,o),
(446,620,cs),
(197,620,o),
(60,381,o),
(60,199,cs),
(60,73,o),
(128,-8,o),
(251,-8,cs)
);
},
{
closed = 1;
nodes = (
(178,15,o),
(138,65,o),
(138,148,cs),
(138,294,o),
(221,597,o),
(444,597,cs),
(535,597,o),
(560,563,o),
(545,513,cs),
(416,99,ls),
(399,42,o),
(338,15,o),
(262,15,cs)
);
}
);
width = 873;
}
);
metricLeft = O;
metricRight = E;
unicode = 338;
},
{
glyphname = P;
kernLeft = H;
lastChange = "2022-09-01 20:53:52 +0000";
layers = (
{
background = {
shapes = (
{
closed = 1;
nodes = (
(218,0,ls),
(231,0,o),
(239,3,o),
(239,11,cs),
(239,15,o),
(236,19,o),
(229,20,cs),
(174,25,ls),
(136,28,o),
(125,35,o),
(133,60,cs),
(199,265,ls),
(201,273,o),
(208,277,o),
(218,277,cs),
(301,277,ls),
(466,277,o),
(585,379,o),
(585,486,cs),
(585,563,o),
(518,612,o),
(402,612,cs),
(164,612,ls),
(152,612,o),
(144,609,o),
(144,602,cs),
(144,598,o),
(147,594,o),
(159,592,cs),
(182,589,ls),
(216,584,o),
(216,575,o),
(210,556,cs),
(54,56,ls),
(47,32,o),
(38,26,o),
(5,23,cs),
(-16,24,ls),
(-30,22,o),
(-36,17,o),
(-36,10,cs),
(-36,4,o),
(-32,0,o),
(-22,0,cs)
);
},
{
closed = 1;
nodes = (
(290,557,ls),
(297,581,o),
(322,591,o),
(370,591,cs),
(457,591,o),
(501,557,o),
(501,495,cs),
(501,423,o),
(440,298,o),
(286,298,cs),
(230,298,o),
(215,315,o),
(224,345,cs)
);
}
);
};
layerId = m002;
shapes = (
{
closed = 1;
nodes = (
(218,0,ls),
(231,0,o),
(239,3,o),
(239,11,cs),
(239,15,o),
(236,19,o),
(229,20,cs),
(174,25,ls),
(136,28,o),
(125,35,o),
(133,60,cs),
(198,263,ls),
(201,272,o),
(208,277,o),
(222,277,cs),
(290,277,ls),
(466,277,o),
(585,371,o),
(585,478,cs),
(585,554,o),
(515,612,o),
(389,612,cs),
(164,612,ls),
(152,612,o),
(144,609,o),
(144,602,cs),
(144,598,o),
(147,594,o),
(159,592,cs),
(182,589,ls),
(216,584,o),
(216,575,o),
(210,556,cs),
(54,56,ls),
(47,32,o),
(38,26,o),
(5,23,cs),
(-16,24,ls),
(-30,22,o),
(-36,17,o),
(-36,10,cs),
(-36,4,o),
(-32,0,o),
(-22,0,cs)
);
},
{
closed = 1;
nodes = (
(290,557,ls),
(297,581,o),
(322,591,o),
(370,591,cs),
(457,591,o),
(501,548,o),
(501,486,cs),
(501,406,o),
(440,298,o),
(286,298,cs),
(230,298,o),
(215,315,o),
(224,345,cs)
);
}
);
width = 539;
}
);
unicode = 80;
},
{
glyphname = Thorn;
kernLeft = H;
lastChange = "2022-08-23 19:53:56 +0000";
layers = (
{
background = {
shapes = (
{
closed = 1;
nodes = (
(207,0,ls),
(218,0,o),
(225,3,o),
(228,9,cs),
(229,14,o),
(225,18,o),
(215,20,cs),
(166,26,ls),
(135,31,o),
(130,37,o),
(137,60,cs),
(163,145,ls),
(167,153,o),
(174,157,o),
(184,157,cs),
(267,157,ls),
(399,157,o),
(513,225,o),
(543,322,cs),
(575,422,o),
(504,492,o),
(368,492,cs),
(289,492,ls),
(278,492,o),
(274,496,o),
(276,504,cs),
(291,552,ls),
(298,575,o),
(307,581,o),
(340,586,cs),
(394,592,ls),
(405,594,o),
(411,598,o),
(413,603,cs),
(414,609,o),
(409,612,o),
(398,612,cs),
(164,612,ls),
(153,612,o),
(146,609,o),
(145,603,cs),
(143,598,o),
(146,594,o),
(156,592,cs),
(182,589,ls),
(213,585,o),
(217,580,o),
(210,556,cs),
(54,56,ls),
(47,32,o),
(38,27,o),
(5,23,cs),
(-20,23,ls),
(-29,21,o),
(-34,17,o),
(-35,11,cs),
(-37,4,o),
(-33,0,o),
(-23,0,cs)
);
},
{
closed = 1;
nodes = (
(198,178,o),
(178,193,o),
(189,225,cs),
(255,437,ls),
(262,461,o),
(288,471,o),
(336,471,cs),
(443,471,o),
(486,417,o),
(458,325,cs),
(429,234,o),
(351,178,o),
(251,178,cs)
);
}
);
};
layerId = m002;
shapes = (
{
closed = 1;
nodes = (
(207,0,ls),
(220,0,o),
(228,3,o),
(228,10,cs),
(228,14,o),
(224,18,o),
(213,20,cs),
(162,26,ls),
(131,31,o),
(128,37,o),
(133,56,cs),
(161,143,ls),
(164,152,o),
(171,157,o),
(185,157,cs),
(253,157,ls),
(429,157,o),
(549,251,o),
(549,358,cs),
(549,434,o),
(478,492,o),
(352,492,cs),
(289,492,ls),
(278,492,o),
(271,497,o),
(274,505,cs),
(290,556,ls),
(296,575,o),
(306,583,o),
(339,586,cs),
(390,592,ls),
(406,593,o),
(413,598,o),
(413,604,cs),
(413,609,o),
(408,612,o),
(397,612,cs),
(164,612,ls),
(152,612,o),
(144,609,o),
(144,602,cs),
(144,598,o),
(147,594,o),
(159,592,cs),
(182,589,ls),
(213,585,o),
(217,580,o),
(210,556,cs),
(54,56,ls),
(47,32,o),
(38,26,o),
(5,23,cs),
(-16,24,ls),
(-30,22,o),
(-36,17,o),
(-36,10,cs),
(-36,4,o),
(-32,0,o),
(-22,0,cs)
);
},
{
closed = 1;
nodes = (
(193,178,o),
(178,196,o),
(187,225,cs),
(253,437,ls),
(260,461,o),
(285,471,o),
(334,471,cs),
(420,471,o),
(465,428,o),
(465,366,cs),
(465,286,o),
(404,178,o),
(250,178,cs)
);
}
);
width = 539;
}
);
unicode = 222;
},
{
glyphname = Q;
kernLeft = O;
kernRight = O;
lastChange = "2022-09-01 19:45:32 +0000";
layers = (
{
background = {
shapes = (
{
closed = 1;
nodes = (
(440,-8,o),
(615,197,o),
(615,406,cs),
(615,547,o),
(540,620,o),
(421,620,cs),
(237,620,o),
(62,416,o),
(62,207,cs),
(62,65,o),
(137,-8,o),
(256,-8,cs)
);
},
{
closed = 1;
nodes = (
(178,14,o),
(140,60,o),
(140,150,cs),
(140,371,o),
(282,598,o),
(423,598,cs),
(499,598,o),
(537,552,o),
(537,462,cs),
(537,241,o),
(396,14,o),
(254,14,cs)
);
},
{
closed = 1;
nodes = (
(393,-183,o),
(460,-130,o),
(482,-49,cs),
(484,-40,o),
(480,-34,o),
(470,-34,cs),
(463,-34,o),
(458,-37,o),
(454,-45,cs),
(430,-103,o),
(397,-122,o),
(352,-122,cs),
(275,-122,o),
(224,-52,o),
(129,-52,c),
(144,-59,l),
(346,13,l),
(313,25,l),
(57,-60,l),
(-8,-85,o),
(-32,-108,o),
(-32,-131,cs),
(-32,-146,o),
(-22,-154,o),
(-8,-154,c),
(43,-131,o),
(64,-75,o),
(117,-75,cs),
(177,-75,o),
(185,-183,o),
(310,-183,cs)
);
}
);
};
layerId = m002;
shapes = (
{
closed = 1;
nodes = (
(393,-183,o),
(460,-130,o),
(482,-49,cs),
(484,-40,o),
(480,-34,o),
(470,-34,cs),
(463,-34,o),
(458,-37,o),
(454,-45,cs),
(430,-103,o),
(397,-122,o),
(352,-122,cs),
(292,-122,o),
(248,-80,o),
(187,-60,cs),
(172,-56,o),
(171,-48,o),
(185,-43,cs),
(254,-20,ls),
(288,-8,o),
(310,-3,o),
(343,8,cs),
(492,59,o),
(615,231,o),
(615,406,cs),
(615,547,o),
(540,620,o),
(421,620,cs),
(237,620,o),
(62,416,o),
(62,207,cs),
(62,94,o),
(110,24,o),
(191,1,cs),
(206,-3,o),
(207,-10,o),
(192,-15,cs),
(57,-60,l),
(-8,-85,o),
(-32,-108,o),
(-32,-131,cs),
(-32,-146,o),
(-22,-154,o),
(-8,-154,cs),
(43,-131,o),
(64,-75,o),
(117,-75,cs),
(177,-75,o),
(185,-183,o),
(310,-183,cs)
);
},
{
closed = 1;
nodes = (
(178,14,o),
(140,60,o),
(140,150,cs),
(140,371,o),
(282,598,o),
(423,598,cs),
(499,598,o),
(537,552,o),
(537,462,cs),
(537,241,o),
(396,14,o),
(254,14,cs)
);
}
);
width = 622;
}
);
unicode = 81;
},
{
glyphname = R;
kernLeft = H;
kernRight = R;
lastChange = "2022-09-01 20:17:03 +0000";
layers = (
{
anchors = (
{
name = bottom;
pos = (224,0);
},
{
name = top;
pos = (360,720);
}
);
background = {
shapes = (
{
closed = 1;
nodes = (
(218,0,ls),
(230,0,o),
(237,3,o),
(237,10,cs),
(237,15,o),
(232,19,o),
(221,20,cs),
(170,25,ls),
(131,29,o),
(125,36,o),
(133,60,cs),
(200,266,ls),
(206,285,o),
(221,294,o),
(254,294,cs),
(314,294,ls),
(440,294,o),
(600,371,o),
(600,481,cs),
(600,552,o),
(534,612,o),
(398,612,cs),
(164,612,ls),
(152,612,o),
(144,609,o),
(144,602,cs),
(144,598,o),
(147,594,o),
(159,592,cs),
(182,589,ls),
(213,585,o),
(217,580,o),
(210,556,cs),
(54,56,ls),
(47,32,o),
(38,26,o),
(5,23,cs),
(-16,24,ls),
(-30,22,o),
(-36,17,o),
(-36,10,cs),
(-36,4,o),
(-32,0,o),
(-22,0,cs)
);
},
{
closed = 1;
nodes = (
(241,315,o),
(218,330,o),
(229,362,cs),
(290,557,ls),
(298,581,o),
(324,591,o),
(375,591,cs),
(480,591,o),
(516,551,o),
(516,488,cs),
(516,391,o),
(409,315,o),
(294,315,cs)
);
},
{
closed = 1;
nodes = (
(508,-8,o),
(545,13,o),
(545,29,cs),
(545,38,o),
(534,42,o),
(521,35,cs),
(506,26,o),
(498,25,o),
(486,25,cs),
(454,25,o),
(435,44,o),
(435,106,cs),
(435,193,ls),
(435,252,o),
(416,280,o),
(365,294,c),
(366,299,l),
(254,294,l),
(339,294,o),
(356,275,o),
(355,184,cs),
(354,89,ls),
(353,28,o),
(398,-8,o),
(462,-8,cs)
);
}
);
};
layerId = m002;
shapes = (
{
closed = 1;
nodes = (
(508,-8,o),
(545,13,o),
(545,29,cs),
(545,38,o),
(534,42,o),
(521,35,cs),
(506,26,o),
(498,25,o),
(486,25,cs),
(454,25,o),
(435,44,o),
(435,106,cs),
(435,193,ls),
(435,244,o),
(422,273,o),
(379,290,cs),
(370,293,o),
(371,299,o),
(381,301,cs),
(494,324,o),
(600,391,o),
(600,481,cs),
(600,552,o),
(534,612,o),
(398,612,cs),
(164,612,ls),
(152,612,o),
(144,609,o),
(144,602,cs),
(144,598,o),
(147,594,o),
(159,592,cs),
(182,589,ls),
(213,585,o),
(217,580,o),
(210,556,cs),
(54,56,ls),
(47,32,o),
(38,26,o),
(5,23,cs),
(-16,24,ls),
(-30,22,o),
(-36,17,o),
(-36,10,cs),
(-36,4,o),
(-32,0,o),
(-22,0,cs),
(218,0,ls),
(230,0,o),
(237,3,o),
(237,10,cs),
(237,15,o),
(232,19,o),
(221,20,cs),
(170,25,ls),
(131,29,o),
(125,36,o),
(133,60,cs),
(200,266,ls),
(206,285,o),
(221,294,o),
(254,294,cs),
(339,294,o),
(356,275,o),
(355,184,cs),
(354,89,ls),
(353,28,o),
(398,-8,o),
(462,-8,cs)
);
},
{
closed = 1;
nodes = (
(241,315,o),
(218,330,o),
(229,362,cs),
(290,557,ls),
(298,581,o),
(324,591,o),
(375,591,cs),
(480,591,o),
(516,551,o),
(516,488,cs),
(516,391,o),
(409,315,o),
(294,315,cs)
);
}
);
width = 604;
}
);
unicode = 82;
},
{
glyphname = S;
kernLeft = S;
kernRight = S;
lastChange = "2022-09-01 20:17:08 +0000";
layers = (
{
anchors = (
{
name = bottom;
pos = (163,0);
},
{
name = top;
pos = (309,720);
}
);
background = {
shapes = (
{
closed = 1;
nodes = (
(331,-8,o),
(430,64,o),
(430,164,cs),
(430,219,o),
(386,278,o),
(313,343,cs),
(233,413,o),
(210,448,o),
(210,498,cs),
(210,541,o),
(245,596,o),
(337,596,cs),
(421,596,o),
(448,547,o),
(448,461,cs),
(448,437,ls),
(448,428,o),
(454,422,o),
(463,422,cs),
(471,422,o),
(477,428,o),
(480,435,cs),
(512,559,ls),
(515,572,o),
(512,581,o),
(500,587,cs),
(463,610,o),
(415,620,o),
(347,620,cs),
(204,620,o),
(136,546,o),
(136,477,cs),
(136,418,o),
(172,369,o),
(251,304,cs),
(316,250,o),
(355,195,o),
(355,144,cs),
(355,67,o),
(292,18,o),
(206,18,cs),
(112,18,o),
(70,60,o),
(70,152,cs),
(70,185,ls),
(70,197,o),
(66,202,o),
(56,202,cs),
(47,202,o),
(40,197,o),
(38,187,cs),
(6,54,ls),
(2,42,o),
(5,37,o),
(13,32,cs),
(49,8,o),
(133,-8,o),
(199,-8,cs)
);
}
);
};
layerId = m002;
shapes = (
{
closed = 1;
nodes = (
(331,-8,o),
(430,64,o),
(430,164,cs),
(430,219,o),
(386,278,o),
(313,343,cs),
(233,413,o),
(210,448,o),
(210,498,cs),
(210,541,o),
(245,596,o),
(337,596,cs),
(421,596,o),
(442,547,o),
(447,455,cs),
(448,437,ls),
(450,428,o),
(454,422,o),
(463,422,cs),
(471,422,o),
(477,428,o),
(480,435,cs),
(512,559,ls),
(515,572,o),
(512,581,o),
(500,587,cs),
(463,610,o),
(415,620,o),
(347,620,cs),
(204,620,o),
(136,546,o),
(136,477,cs),
(136,418,o),
(172,369,o),
(251,304,cs),
(316,250,o),
(355,195,o),
(355,144,cs),
(355,67,o),
(292,18,o),
(206,18,cs),
(112,18,o),
(75,57,o),
(71,152,cs),
(70,185,ls),
(70,197,o),
(66,202,o),
(56,202,cs),
(47,202,o),
(40,197,o),
(38,187,cs),
(6,54,ls),
(2,42,o),
(5,37,o),
(13,32,cs),
(49,8,o),
(133,-8,o),
(199,-8,cs)
);
}
);
width = 488;
}
);
unicode = 83;
},
{
glyphname = Germandbls;
lastChange = "2022-08-18 20:20:07 +0000";
layers = (
{
background = {
shapes = (
{
ref = H;
}
);
};
guides = (
{
angle = 258.4797;
pos = (181,142);
}
);
layerId = m002;
shapes = (
{
closed = 1;
nodes = (
(475,-8,o),
(557,64,o),
(557,147,cs),
(557,225,o),
(506,287,o),
(422,358,c),
(413,324,l),
(661,507,l),
(618,585,o),
(551,620,o),
(448,620,cs),
(290,620,o),
(206,538,o),
(169,421,cs),
(54,56,ls),
(46,32,o),
(38,26,o),
(5,23,cs),
(-16,24,ls),
(-30,22,o),
(-36,17,o),
(-36,10,cs),
(-36,4,o),
(-32,0,o),
(-22,0,cs),
(94,0,ls),
(110,0,o),
(117,3,o),
(121,15,cs),
(252,434,ls),
(288,548,o),
(354,596,o),
(442,596,cs),
(522,596,o),
(572,547,o),
(586,476,c),
(614,509,l),
(359,320,l),
(377,304,ls),
(440,249,o),
(482,195,o),
(482,128,cs),
(482,67,o),
(436,18,o),
(361,18,cs),
(290,18,o),
(264,57,o),
(258,127,cs),
(254,160,ls),
(253,172,o),
(248,177,o),
(239,177,cs),
(230,177,o),
(222,172,o),
(220,162,cs),
(190,54,ls),
(186,42,o),
(189,37,o),
(197,32,cs),
(233,8,o),
(289,-8,o),
(354,-8,cs)
);
}
);
width = 619;
}
);
metricLeft = H;
metricRight = S;
unicode = 7838;
},
{
glyphname = T;
kernLeft = T;
kernRight = T;
lastChange = "2022-09-01 21:02:25 +0000";
layers = (
{
anchors = (
{
name = bottom;
pos = (172,0);
},
{
name = center;
pos = (255,360);
},
{
name = top;
pos = (338,720);
}
);
background = {
shapes = (
{
closed = 1;
nodes = (
(335,0,ls),
(346,0,o),
(353,3,o),
(353,10,cs),
(353,14,o),
(350,19,o),
(340,20,cs),
(286,26,ls),
(258,29,o),
(247,35,o),
(255,59,cs),
(415,569,ls),
(420,585,o),
(429,591,o),
(458,591,cs),
(527,591,o),
(573,573,o),
(564,495,cs),
(558,448,ls),
(557,441,o),
(561,437,o),
(570,437,cs),
(580,437,o),
(588,442,o),
(590,451,cs),
(627,605,ls),
(630,618,o),
(626,625,o),
(613,625,cs),
(598,625,o),
(590,612,o),
(516,612,cs),
(260,612,ls),
(186,612,o),
(191,625,o),
(170,625,cs),
(159,625,o),
(150,618,o),
(145,605,cs),
(87,451,ls),
(84,442,o),
(89,437,o),
(98,437,cs),
(107,437,o),
(114,441,o),
(117,448,cs),
(144,495,ls),
(185,569,o),
(247,591,o),
(305,591,cs),
(334,591,o),
(340,585,o),
(336,569,cs),
(176,59,ls),
(169,35,o),
(156,29,o),
(125,26,cs),
(77,20,ls),
(66,18,o),
(59,14,o),
(59,8,cs),
(59,3,o),
(63,0,o),
(75,0,cs)
);
}
);
};
layerId = m002;
shapes = (
{
closed = 1;
nodes = (
(335,0,ls),
(346,0,o),
(353,3,o),
(353,10,cs),
(353,14,o),
(350,19,o),
(340,20,cs),
(286,26,ls),
(258,29,o),
(247,35,o),
(255,59,cs),
(415,569,ls),
(420,585,o),
(429,591,o),
(458,591,cs),
(527,591,o),
(569,552,o),
(560,469,cs),
(558,448,ls),
(557,441,o),
(561,437,o),
(570,437,cs),
(580,437,o),
(588,442,o),
(590,451,cs),
(627,605,ls),
(630,618,o),
(626,625,o),
(613,625,cs),
(598,625,o),
(590,612,o),
(516,612,cs),
(260,612,ls),
(186,612,o),
(191,625,o),
(170,625,cs),
(159,625,o),
(150,618,o),
(145,605,cs),
(87,451,ls),
(84,442,o),
(89,437,o),
(98,437,cs),
(107,437,o),
(114,441,o),
(117,448,cs),
(136,480,ls),
(184,565,o),
(253,591,o),
(305,591,cs),
(334,591,o),
(340,585,o),
(336,569,cs),
(176,59,ls),
(169,35,o),
(156,29,o),
(125,26,cs),
(77,20,ls),
(66,18,o),
(59,14,o),
(59,8,cs),
(59,3,o),
(63,0,o),
(75,0,cs)
);
}
);
width = 530;
}
);
unicode = 84;
},
{
glyphname = U;
kernLeft = U;
kernRight = U;
lastChange = "2022-09-01 20:54:19 +0000";
layers = (
{
anchors = (
{
name = bottom;
pos = (210,0);
},
{
name = ogonek;
pos = (286,0);
},
{
name = top;
pos = (396,720);
},
{
name = topright;
pos = (588,450);
}
);
background = {
shapes = (
{
closed = 1;
nodes = (
(371,-8,o),
(474,60,o),
(506,163,cs),
(623,539,ls),
(634,570,o),
(650,586,o),
(678,589,cs),
(706,592,ls),
(716,594,o),
(722,597,o),
(724,603,cs),
(726,609,o),
(721,612,o),
(710,612,cs),
(544,612,ls),
(532,612,o),
(526,609,o),
(523,602,cs),
(522,597,o),
(526,593,o),
(534,592,cs),
(564,589,ls),
(590,586,o),
(597,570,o),
(586,538,cs),
(469,162,ls),
(443,76,o),
(371,26,o),
(277,26,cs),
(184,26,o),
(145,76,o),
(171,162,cs),
(294,555,ls),
(301,579,o),
(312,586,o),
(344,589,cs),
(376,592,ls),
(384,593,o),
(390,597,o),
(391,602,cs),
(393,609,o),
(389,612,o),
(377,612,cs),
(167,612,ls),
(154,612,o),
(146,609,o),
(146,602,cs),
(146,598,o),
(150,594,o),
(161,592,cs),
(184,589,ls),
(215,585,o),
(220,580,o),
(213,556,cs),
(90,163,ls),
(59,62,o),
(123,-8,o),
(247,-8,cs)
);
}
);
};
layerId = m002;
shapes = (
{
closed = 1;
nodes = (
(388,-8,o),
(474,60,o),
(506,163,cs),
(623,539,ls),
(634,570,o),
(650,586,o),
(678,589,cs),
(706,592,ls),
(719,594,o),
(724,597,o),
(724,604,cs),
(724,609,o),
(719,612,o),
(710,612,cs),
(544,612,ls),
(532,612,o),
(522,609,o),
(522,602,cs),
(522,596,o),
(528,592,o),
(538,592,cs),
(564,589,ls),
(590,586,o),
(597,570,o),
(586,538,cs),
(469,162,ls),
(443,76,o),
(383,26,o),
(283,26,cs),
(191,26,o),
(141,76,o),
(169,162,cs),
(292,555,ls),
(300,579,o),
(309,586,o),
(342,589,cs),
(374,592,ls),
(383,593,o),
(390,598,o),
(390,604,cs),
(390,609,o),
(385,612,o),
(374,612,cs),
(167,612,ls),
(154,612,o),
(146,609,o),
(146,602,cs),
(146,598,o),
(150,594,o),
(161,592,cs),
(184,589,ls),
(215,585,o),
(220,580,o),
(213,556,cs),
(90,163,ls),
(57,62,o),
(135,-8,o),
(259,-8,cs)
);
}
);
width = 618;
}
);
unicode = 85;
},
{
glyphname = V;
lastChange = "2022-09-01 20:54:24 +0000";
layers = (
{
background = {
shapes = (
{
closed = 1;
nodes = (
(199,-8,o),
(208,-6,o),
(215,5,cs),
(559,536,ls),
(580,568,o),
(599,586,o),
(630,590,cs),
(649,592,ls),
(659,594,o),
(667,597,o),
(667,604,cs),
(667,609,o),
(662,612,o),
(653,612,cs),
(486,612,ls),
(474,612,o),
(467,608,o),
(467,603,cs),
(467,598,o),
(470,594,o),
(484,592,cs),
(500,591,ls),
(535,587,o),
(542,569,o),
(521,537,cs),
(256,129,l),
(251,129,l),
(245,555,ls),
(245,580,o),
(253,589,o),
(279,591,cs),
(302,592,ls),
(316,593,o),
(325,597,o),
(325,604,cs),
(325,609,o),
(321,612,o),
(310,612,cs),
(121,612,ls),
(108,612,o),
(101,609,o),
(101,603,cs),
(101,598,o),
(106,594,o),
(115,592,cs),
(130,590,ls),
(159,585,o),
(166,575,o),
(167,544,cs),
(179,5,ls),
(179,-6,o),
(186,-8,o),
(193,-8,cs)
);
}
);
};
layerId = m002;
shapes = (
{
closed = 1;
nodes = (
(199,-8,o),
(208,-6,o),
(215,5,cs),
(559,536,ls),
(580,568,o),
(599,586,o),
(630,590,cs),
(649,592,ls),
(659,594,o),
(667,597,o),
(667,604,cs),
(667,609,o),
(662,612,o),
(653,612,cs),
(486,612,ls),
(474,612,o),
(467,608,o),
(467,603,cs),
(467,598,o),
(470,594,o),
(484,592,cs),
(500,591,ls),
(535,587,o),
(542,569,o),
(521,537,cs),
(269,150,ls),
(263,140,o),
(251,142,o),
(251,153,cs),
(245,555,ls),
(245,580,o),
(253,589,o),
(279,591,cs),
(302,592,ls),
(316,593,o),
(325,597,o),
(325,604,cs),
(325,609,o),
(321,612,o),
(310,612,cs),
(121,612,ls),
(108,612,o),
(101,609,o),
(101,603,cs),
(101,598,o),
(106,594,o),
(115,592,cs),
(130,590,ls),
(159,585,o),
(166,575,o),
(167,544,cs),
(179,5,ls),
(179,-6,o),
(186,-8,o),
(193,-8,cs)
);
}
);
width = 527;
}
);
unicode = 86;
},
{
glyphname = W;
kernLeft = W;
kernRight = W;
lastChange = "2022-09-01 20:54:28 +0000";
layers = (
{
anchors = (
{
name = bottom;
pos = (268,0);
},
{
name = top;
pos = (444,720);
}
);
background = {
shapes = (
{
closed = 1;
nodes = (
(434,-8,o),
(440,-6,o),
(447,5,cs),
(792,536,ls),
(822,582,o),
(834,590,o),
(856,592,cs),
(868,592,ls),
(884,593,o),
(891,597,o),
(891,603,cs),
(891,609,o),
(885,612,o),
(875,612,cs),
(745,612,ls),
(733,612,o),
(726,609,o),
(726,603,cs),
(726,598,o),
(730,594,o),
(741,592,cs),
(752,591,ls),
(779,586,o),
(777,570,o),
(757,537,cs),
(494,133,l),
(486,133,l),
(481,555,ls),
(481,580,o),
(486,588,o),
(506,591,cs),
(520,592,ls),
(534,594,o),
(540,598,o),
(540,604,cs),
(540,609,o),
(536,612,o),
(526,612,cs),
(371,612,ls),
(358,612,o),
(351,608,o),
(351,602,cs),
(351,597,o),
(355,594,o),
(366,592,cs),
(381,590,ls),
(398,587,o),
(401,575,o),
(402,544,cs),
(415,5,ls),
(415,-6,o),
(421,-8,o),
(428,-8,cs)
);
},
{
closed = 1;
nodes = (
(453,405,l),
(256,128,l),
(251,128,l),
(244,555,ls),
(244,580,o),
(259,587,o),
(285,591,cs),
(299,592,ls),
(310,594,o),
(320,598,o),
(320,604,cs),
(320,609,o),
(315,612,o),
(305,612,cs),
(121,612,ls),
(110,612,o),
(101,609,o),
(101,603,cs),
(101,598,o),
(106,594,o),
(115,592,cs),
(130,590,ls),
(159,585,o),
(166,575,o),
(167,544,cs),
(179,5,ls),
(179,-6,o),
(186,-8,o),
(193,-8,cs),
(199,-8,o),
(205,-6,o),
(213,5,cs),
(462,367,l)
);
},
{
closed = 1;
nodes = (
(465,336,l),
(606,536,ls),
(632,575,o),
(647,590,o),
(669,592,cs),
(682,592,ls),
(697,593,o),
(705,597,o),
(705,604,cs),
(705,609,o),
(700,612,o),
(687,612,cs),
(578,612,ls),
(566,612,o),
(559,609,o),
(559,603,cs),
(559,598,o),
(564,594,o),
(574,592,cs),
(585,591,ls),
(599,589,o),
(603,580,o),
(573,537,cs),
(457,374,l)
);
}
);
};
layerId = m002;
shapes = (
{
closed = 1;
nodes = (
(434,-8,o),
(440,-6,o),
(447,5,cs),
(792,536,ls),
(822,582,o),
(834,590,o),
(856,592,cs),
(868,592,ls),
(884,593,o),
(891,597,o),
(891,603,cs),
(891,609,o),
(885,612,o),
(875,612,cs),
(745,612,ls),
(733,612,o),
(726,609,o),
(726,603,cs),
(726,598,o),
(730,594,o),
(741,592,cs),
(752,591,ls),
(779,586,o),
(777,570,o),
(757,537,cs),
(505,150,ls),
(499,140,o),
(486,141,o),
(486,151,cs),
(484,292,ls),
(483,343,o),
(496,378,o),
(527,423,cs),
(606,536,ls),
(632,575,o),
(647,590,o),
(669,592,cs),
(682,592,ls),
(697,593,o),
(705,597,o),
(705,604,cs),
(705,609,o),
(700,612,o),
(687,612,cs),
(578,612,ls),
(566,612,o),
(559,609,o),
(559,603,cs),
(559,598,o),
(564,594,o),
(574,592,cs),
(585,591,ls),
(599,589,o),
(603,580,o),
(573,537,cs),
(501,437,ls),
(494,427,o),
(483,428,o),
(483,440,cs),
(481,555,ls),
(481,580,o),
(486,588,o),
(506,591,cs),
(520,592,ls),
(534,594,o),
(540,598,o),
(540,604,cs),
(540,609,o),
(536,612,o),
(526,612,cs),
(371,612,ls),
(358,612,o),
(351,608,o),
(351,602,cs),
(351,597,o),
(355,594,o),
(366,592,cs),
(381,590,ls),
(398,587,o),
(401,575,o),
(402,544,cs),
(406,411,ls),
(407,360,o),
(394,324,o),
(363,280,cs),
(269,146,ls),
(262,136,o),
(251,138,o),
(251,148,cs),
(244,555,ls),
(244,580,o),
(259,587,o),
(285,591,cs),
(299,592,ls),
(310,594,o),
(320,598,o),
(320,604,cs),
(320,609,o),
(315,612,o),
(305,612,cs),
(121,612,ls),
(110,612,o),
(101,609,o),
(101,603,cs),
(101,598,o),
(106,594,o),
(115,592,cs),
(130,590,ls),
(159,585,o),
(166,575,o),
(167,544,cs),
(179,5,ls),
(179,-6,o),
(186,-8,o),
(193,-8,cs),
(199,-8,o),
(205,-6,o),
(213,5,cs),
(390,262,ls),
(398,273,o),
(409,270,o),
(409,258,cs),
(415,5,ls),
(415,-6,o),
(421,-8,o),
(428,-8,cs)
);
}
);
width = 751;
}
);
unicode = 87;
},
{
glyphname = X;
lastChange = "2022-09-01 20:54:34 +0000";
layers = (
{
background = {
shapes = (
{
closed = 1;
nodes = (
(518,0,ls),
(532,0,o),
(540,3,o),
(540,10,cs),
(540,15,o),
(536,20,o),
(526,20,cs),
(504,23,ls),
(486,25,o),
(469,30,o),
(461,57,cs),
(315,555,ls),
(308,577,o),
(322,586,o),
(350,590,cs),
(373,592,ls),
(385,594,o),
(393,598,o),
(396,604,cs),
(397,609,o),
(391,612,o),
(377,612,cs),
(178,612,ls),
(166,612,o),
(158,609,o),
(156,604,cs),
(154,598,o),
(159,594,o),
(171,592,cs),
(192,590,ls),
(212,587,o),
(228,581,o),
(235,555,cs),
(381,57,ls),
(386,36,o),
(371,26,o),
(344,23,cs),
(321,20,ls),
(306,19,o),
(299,15,o),
(299,9,cs),
(299,4,o),
(305,0,o),
(316,0,cs)
);
},
{
closed = 1;
nodes = (
(168,0,ls),
(183,0,o),
(190,4,o),
(190,10,cs),
(190,15,o),
(185,19,o),
(175,20,cs),
(144,26,ls),
(116,30,o),
(118,40,o),
(140,65,cs),
(314,265,l),
(336,265,l),
(300,333,l),
(307,307,o),
(301,295,o),
(288,280,cs),
(109,77,ls),
(79,43,o),
(49,31,o),
(-2,28,cs),
(-18,25,ls),
(-30,23,o),
(-36,18,o),
(-36,11,cs),
(-36,6,o),
(-33,0,o),
(-21,0,cs)
);
},
{
closed = 1;
nodes = (
(384,319,o),
(390,331,o),
(404,346,cs),
(572,535,ls),
(601,569,o),
(631,582,o),
(672,588,cs),
(690,591,ls),
(704,592,o),
(710,597,o),
(711,602,cs),
(713,607,o),
(710,612,o),
(693,612,cs),
(515,612,ls),
(500,612,o),
(493,609,o),
(492,604,cs),
(490,598,o),
(494,594,o),
(508,592,cs),
(538,586,ls),
(566,581,o),
(564,571,o),
(542,547,cs),
(377,360,l),
(355,360,l),
(392,292,l)
);
}
);
};
layerId = m002;
shapes = (
{
closed = 1;
nodes = (
(168,0,ls),
(183,0,o),
(190,4,o),
(190,10,cs),
(190,15,o),
(185,19,o),
(175,20,cs),
(144,26,ls),
(116,30,o),
(118,40,o),
(140,65,cs),
(307,258,ls),
(313,264,o),
(320,263,o),
(322,256,cs),
(381,57,ls),
(386,36,o),
(371,26,o),
(344,23,cs),
(321,20,ls),
(306,19,o),
(299,15,o),
(299,9,cs),
(299,4,o),
(305,0,o),
(316,0,cs),
(518,0,ls),
(532,0,o),
(540,3,o),
(540,10,cs),
(540,15,o),
(536,20,o),
(526,20,cs),
(504,23,ls),
(486,25,o),
(469,30,o),
(461,57,cs),
(392,292,ls),
(384,319,o),
(390,331,o),
(404,346,cs),
(572,535,ls),
(601,569,o),
(631,582,o),
(672,588,cs),
(690,591,ls),
(704,592,o),
(710,597,o),
(711,602,cs),
(713,607,o),
(710,612,o),
(693,612,cs),
(515,612,ls),
(500,612,o),
(493,609,o),
(492,604,cs),
(490,598,o),
(494,594,o),
(508,592,cs),
(538,586,ls),
(566,581,o),
(564,571,o),
(542,547,cs),
(384,369,ls),
(378,363,o),
(371,365,o),
(370,370,cs),
(315,555,ls),
(308,577,o),
(322,586,o),
(350,590,cs),
(373,592,ls),
(385,594,o),
(393,598,o),
(396,604,cs),
(397,609,o),
(391,612,o),
(377,612,cs),
(178,612,ls),
(166,612,o),
(158,609,o),
(156,604,cs),
(154,598,o),
(159,594,o),
(171,592,cs),
(192,590,ls),
(212,587,o),
(228,581,o),
(235,555,cs),
(301,326,ls),
(307,304,o),
(300,293,o),
(288,280,cs),
(109,77,ls),
(79,43,o),
(49,31,o),
(-2,28,cs),
(-18,25,ls),
(-30,23,o),
(-36,18,o),
(-36,11,cs),
(-36,6,o),
(-33,0,o),
(-21,0,cs)
);
}
);
width = 627;
}
);
unicode = 88;
},
{
glyphname = Y;
kernLeft = Y;
kernRight = Y;
lastChange = "2022-09-01 21:02:35 +0000";
layers = (
{
anchors = (
{
name = bottom;
pos = (180,0);
},
{
name = top;
pos = (356,720);
},
{
name = topleft;
pos = (127,720);
}
);
background = {
shapes = (
{
closed = 1;
nodes = (
(338,0,ls),
(352,0,o),
(359,4,o),
(359,10,cs),
(359,15,o),
(354,18,o),
(342,20,cs),
(297,26,ls),
(268,30,o),
(260,35,o),
(267,59,cs),
(331,266,ls),
(337,284,o),
(346,297,o),
(362,313,cs),
(583,536,ls),
(620,574,o),
(637,588,o),
(659,591,cs),
(672,592,ls),
(684,594,o),
(691,598,o),
(691,604,cs),
(691,609,o),
(685,612,o),
(675,612,cs),
(509,612,ls),
(498,612,o),
(491,609,o),
(491,603,cs),
(491,598,o),
(497,593,o),
(507,592,cs),
(531,590,ls),
(566,586,o),
(570,566,o),
(542,537,cs),
(329,320,l),
(321,320,l),
(245,555,ls),
(237,579,o),
(253,589,o),
(279,591,cs),
(302,592,ls),
(319,593,o),
(325,598,o),
(325,604,cs),
(325,609,o),
(321,612,o),
(310,612,cs),
(121,612,ls),
(109,612,o),
(100,609,o),
(100,603,cs),
(100,598,o),
(105,594,o),
(114,592,cs),
(123,591,ls),
(147,586,o),
(155,576,o),
(161,558,cs),
(248,296,ls),
(253,283,o),
(254,273,o),
(250,259,cs),
(187,59,ls),
(181,35,o),
(168,29,o),
(137,26,cs),
(83,20,ls),
(72,19,o),
(66,14,o),
(66,8,cs),
(66,3,o),
(70,0,o),
(82,0,cs)
);
}
);
};
layerId = m002;
shapes = (
{
closed = 1;
nodes = (
(338,0,ls),
(352,0,o),
(359,4,o),
(359,10,cs),
(359,15,o),
(354,18,o),
(342,20,cs),
(297,26,ls),
(268,30,o),
(260,35,o),
(267,59,cs),
(331,266,ls),
(337,284,o),
(346,297,o),
(362,313,cs),
(583,536,ls),
(620,574,o),
(637,588,o),
(659,591,cs),
(672,592,ls),
(684,594,o),
(691,598,o),
(691,604,cs),
(691,609,o),
(685,612,o),
(675,612,cs),
(509,612,ls),
(498,612,o),
(491,609,o),
(491,603,cs),
(491,598,o),
(497,593,o),
(507,592,cs),
(531,590,ls),
(566,586,o),
(570,566,o),
(542,537,cs),
(338,329,ls),
(330,320,o),
(320,322,o),
(317,330,cs),
(245,555,ls),
(237,579,o),
(253,589,o),
(279,591,cs),
(302,592,ls),
(319,593,o),
(325,598,o),
(325,604,cs),
(325,609,o),
(321,612,o),
(310,612,cs),
(121,612,ls),
(109,612,o),
(100,609,o),
(100,603,cs),
(100,598,o),
(105,594,o),
(114,592,cs),
(123,591,ls),
(147,586,o),
(155,576,o),
(161,558,cs),
(248,296,ls),
(253,283,o),
(254,273,o),
(250,259,cs),
(187,59,ls),
(181,35,o),
(168,29,o),
(137,26,cs),
(83,20,ls),
(72,19,o),
(66,14,o),
(66,8,cs),
(66,3,o),
(70,0,o),
(82,0,cs)
);
}
);
width = 550;
}
);
unicode = 89;
},
{
glyphname = Z;
kernLeft = Z;
kernRight = Z;
lastChange = "2022-08-31 20:25:35 +0000";
layers = (
{
anchors = (
{
name = bottom;
pos = (155,0);
},
{
name = center;
pos = (238,360);
},
{
name = top;
pos = (321,720);
}
);
background = {
shapes = (
{
closed = 1;
nodes = (
(351,0,ls),
(368,0,o),
(381,7,o),
(385,20,cs),
(450,179,ls),
(453,189,o),
(446,194,o),
(438,194,cs),
(429,194,o),
(424,190,o),
(420,183,cs),
(373,109,ls),
(328,38,o),
(282,26,o),
(215,26,cs),
(55,26,l),
(56,30,l),
(569,587,ls),
(583,603,o),
(576,612,o),
(554,612,cs),
(300,612,ls),
(229,612,o),
(232,629,o),
(214,629,cs),
(200,629,o),
(194,622,o),
(189,609,cs),
(118,451,ls),
(114,442,o),
(121,437,o),
(130,437,cs),
(139,437,o),
(144,441,o),
(148,448,cs),
(178,490,ls),
(232,567,o),
(286,586,o),
(344,586,cs),
(477,586,l),
(476,582,l),
(-31,29,ls),
(-43,11,o),
(-38,0,o),
(-19,0,cs)
);
}
);
};
layerId = m002;
shapes = (
{
closed = 1;
nodes = (
(351,0,ls),
(368,0,o),
(381,7,o),
(385,20,cs),
(450,179,ls),
(453,189,o),
(446,194,o),
(438,194,cs),
(429,194,o),
(424,190,o),
(420,183,cs),
(373,109,ls),
(330,41,o),
(270,26,o),
(204,26,cs),
(77,26,ls),
(64,26,o),
(59,31,o),
(67,40,cs),
(569,587,ls),
(583,603,o),
(576,612,o),
(554,612,cs),
(300,612,ls),
(229,612,o),
(232,629,o),
(214,629,cs),
(200,629,o),
(194,622,o),
(189,609,cs),
(118,451,ls),
(114,442,o),
(121,437,o),
(130,437,cs),
(139,437,o),
(144,441,o),
(148,448,cs),
(178,490,ls),
(232,567,o),
(286,586,o),
(355,586,cs),
(459,586,ls),
(470,586,o),
(475,581,o),
(467,572,cs),
(-31,29,ls),
(-43,11,o),
(-38,0,o),
(-19,0,cs)
);
}
);
width = 491;
}
);
unicode = 90;
},
{
glyphname = a;
kernLeft = a;
kernRight = a;
lastChange = "2022-09-01 20:17:48 +0000";
layers = (
{
anchors = (
{
name = bottom;
pos = (178,0);
},
{
name = ogonek;
pos = (363,0);
},
{
name = top;
pos = (296,510);
}
);
background = {
shapes = (
{
closed = 1;
nodes = (
(162,-8,o),
(222,31,o),
(284,115,cs),
(319,162,l),
(354,162,l),
(424,400,l),
(416,400,l),
(401,425,o),
(373,439,o),
(334,439,cs),
(184,439,o),
(15,258,o),
(15,96,cs),
(15,28,o),
(47,-8,o),
(103,-8,cs)
);
},
{
closed = 1;
nodes = (
(109,36,o),
(93,47,o),
(93,87,cs),
(93,234,o),
(229,417,o),
(330,417,cs),
(361,417,o),
(379,399,o),
(379,366,cs),
(379,270,o),
(223,36,o),
(131,36,cs)
);
},
{
closed = 1;
nodes = (
(521,150,o),
(519,158,o),
(508,158,cs),
(500,158,o),
(496,155,o),
(493,149,cs),
(465,75,o),
(438,41,o),
(402,41,cs),
(374,41,o),
(368,60,o),
(379,96,cs),
(482,422,ls),
(484,429,o),
(478,434,o),
(470,434,cs),
(461,434,o),
(454,430,o),
(445,422,cs),
(389,368,l),
(304,97,ls),
(283,32,o),
(312,-8,o),
(371,-8,cs),
(440,-8,o),
(489,35,o),
(519,141,cs)
);
}
);
};
guides = (
{
angle = -26.565;
pos = (205,61);
showMeasurement = 1;
}
);
layerId = m002;
shapes = (
{
closed = 1;
nodes = (
(161,-8,o),
(222,31,o),
(307,146,cs),
(312,153,o),
(321,151,o),
(319,144,cs),
(304,97,ls),
(283,32,o),
(312,-8,o),
(371,-8,cs),
(440,-8,o),
(489,35,o),
(519,141,cs),
(521,150,o),
(519,158,o),
(508,158,cs),
(500,158,o),
(496,155,o),
(493,149,cs),
(465,75,o),
(438,41,o),
(402,41,cs),
(374,41,o),
(368,60,o),
(379,96,cs),
(482,422,ls),
(484,429,o),
(478,434,o),
(470,434,cs),
(461,434,o),
(452,430,o),
(435,412,cs),
(430,407,o),
(427,405,o),
(421,405,cs),
(415,405,o),
(412,407,o),
(407,412,cs),
(390,430,o),
(362,439,o),
(334,439,cs),
(184,439,o),
(15,258,o),
(15,96,cs),
(15,28,o),
(47,-8,o),
(102,-8,cs)
);
},
{
closed = 1;
nodes = (
(107,36,o),
(93,47,o),
(93,87,cs),
(93,234,o),
(229,417,o),
(330,417,cs),
(361,417,o),
(379,399,o),
(379,366,cs),
(379,270,o),
(223,36,o),
(131,36,cs)
);
}
);
width = 545;
}
);
unicode = 97;
},
{
glyphname = ae;
kernLeft = a;
kernRight = e;
lastChange = "2022-08-23 19:55:07 +0000";
layers = (
{
layerId = m002;
shapes = (
{
closed = 1;
nodes = (
(163,-8,o),
(228,31,o),
(313,146,cs),
(355,203,o),
(366,213,o),
(416,212,c),
(482,422,ls),
(484,429,o),
(478,434,o),
(470,434,cs),
(461,434,o),
(452,430,o),
(435,412,cs),
(430,407,o),
(427,405,o),
(421,405,cs),
(415,405,o),
(412,407,o),
(407,412,cs),
(390,430,o),
(362,439,o),
(334,439,cs),
(184,439,o),
(15,258,o),
(15,96,cs),
(15,28,o),
(49,-8,o),
(105,-8,cs)
);
},
{
closed = 1;
nodes = (
(107,36,o),
(93,47,o),
(93,87,cs),
(93,234,o),
(229,417,o),
(330,417,cs),
(361,417,o),
(379,399,o),
(379,366,cs),
(379,270,o),
(223,36,o),
(131,36,cs)
);
},
{
closed = 1;
nodes = (
(542,-8,o),
(613,43,o),
(662,144,cs),
(666,151,o),
(664,158,o),
(654,158,cs),
(647,158,o),
(643,156,o),
(641,150,cs),
(604,77,o),
(545,37,o),
(488,37,cs),
(436,37,o),
(404,70,o),
(404,134,cs),
(404,142,o),
(404,150,o),
(405,159,cs),
(406,171,o),
(415,178,o),
(431,180,cs),
(605,209,o),
(721,291,o),
(721,368,cs),
(721,411,o),
(691,439,o),
(620,439,cs),
(486,439,o),
(324,278,o),
(324,128,cs),
(324,41,o),
(377,-8,o),
(459,-8,cs)
);
},
{
closed = 1;
nodes = (
(451,320,o),
(544,417,o),
(612,417,cs),
(638,417,o),
(650,405,o),
(650,382,cs),
(650,312,o),
(575,229,o),
(432,201,cs),
(421,198,o),
(413,204,o),
(416,212,cs)
);
}
);
width = 711;
}
);
metricRight = e;
unicode = 230;
},
{
glyphname = b;
kernRight = o;
lastChange = "2022-09-01 20:59:06 +0000";
layers = (
{
background = {
shapes = (
{
closed = 1;
nodes = (
(306,-8,o),
(481,173,o),
(481,335,cs),
(481,403,o),
(445,439,o),
(389,439,cs),
(330,439,o),
(273,401,o),
(210,320,cs),
(182,282,ls),
(177,275,o),
(168,277,o),
(170,285,cs),
(275,619,ls),
(277,627,o),
(273,632,o),
(264,632,cs),
(258,632,o),
(253,630,o),
(247,626,cs),
(221,610,o),
(177,602,o),
(122,595,cs),
(113,594,o),
(107,591,o),
(106,586,cs),
(105,580,o),
(109,575,o),
(121,575,cs),
(155,572,ls),
(177,570,o),
(183,564,o),
(176,544,cs),
(47,135,ls),
(17,40,o),
(78,-8,o),
(156,-8,cs)
);
},
{
closed = 1;
nodes = (
(129,14,o),
(110,32,o),
(110,65,cs),
(110,176,o),
(275,394,o),
(359,394,cs),
(390,394,o),
(400,378,o),
(400,336,cs),
(400,197,o),
(261,14,o),
(160,14,cs)
);
}
);
};
guides = (
{
angle = 90;
pos = (370,382);
}
);
layerId = m002;
shapes = (
{
closed = 1;
nodes = (
(306,-8,o),
(481,173,o),
(481,335,cs),
(481,403,o),
(445,439,o),
(389,439,cs),
(330,439,o),
(266,401,o),
(182,282,cs),
(177,275,o),
(168,277,o),
(170,285,cs),
(275,619,ls),
(277,627,o),
(273,632,o),
(264,632,cs),
(258,632,o),
(253,630,o),
(247,626,cs),
(221,610,o),
(177,602,o),
(122,595,cs),
(113,594,o),
(107,591,o),
(106,586,cs),
(105,580,o),
(109,575,o),
(121,575,cs),
(155,572,ls),
(177,570,o),
(183,564,o),
(176,544,cs),
(47,135,ls),
(17,40,o),
(78,-8,o),
(156,-8,cs)
);
},
{
closed = 1;
nodes = (
(129,14,o),
(110,32,o),
(110,65,cs),
(110,176,o),
(275,394,o),
(359,394,cs),
(390,394,o),
(400,378,o),
(400,336,cs),
(400,197,o),
(261,14,o),
(160,14,cs)
);
}
);
width = 496;
}
);
unicode = 98;
},
{
glyphname = c;
kernLeft = o;
kernRight = c;
lastChange = "2022-09-01 20:18:01 +0000";
layers = (
{
anchors = (
{
name = bottom;
pos = (131,0);
},
{
name = top;
pos = (265,510);
}
);
background = {
shapes = (
{
closed = 1;
nodes = (
(254,-8,o),
(338,60,o),
(362,152,cs),
(367,167,o),
(366,171,o),
(356,171,cs),
(348,171,o),
(343,168,o),
(340,162,cs),
(299,76,o),
(252,37,o),
(192,37,cs),
(130,37,o),
(98,74,o),
(98,144,cs),
(98,275,o),
(200,417,o),
(294,417,cs),
(334,417,o),
(345,398,o),
(345,326,cs),
(345,292,ls),
(345,283,o),
(350,280,o),
(359,280,cs),
(366,280,o),
(370,283,o),
(373,291,cs),
(404,402,ls),
(406,411,o),
(405,412,o),
(398,416,cs),
(371,432,o),
(344,439,o),
(305,439,cs),
(166,439,o),
(17,282,o),
(17,130,cs),
(17,49,o),
(78,-8,o),
(163,-8,cs)
);
}
);
};
guides = (
{
angle = 78.25;
pos = (337,405);
}
);
layerId = m002;
shapes = (
{
closed = 1;
nodes = (
(254,-8,o),
(338,60,o),
(362,152,cs),
(367,167,o),
(366,171,o),
(356,171,cs),
(348,171,o),
(343,168,o),
(340,162,cs),
(299,76,o),
(252,37,o),
(192,37,cs),
(130,37,o),
(98,74,o),
(98,144,cs),
(98,275,o),
(199,415,o),
(286,415,cs),
(317,415,o),
(332,404,o),
(337,352,cs),
(343,292,ls),
(344,283,o),
(348,279,o),
(358,279,cs),
(365,279,o),
(370,283,o),
(373,291,cs),
(404,402,ls),
(406,411,o),
(405,412,o),
(398,416,cs),
(371,432,o),
(344,439,o),
(305,439,cs),
(166,439,o),
(17,282,o),
(17,130,cs),
(17,49,o),
(78,-8,o),
(163,-8,cs)
);
}
);
width = 404;
}
);
unicode = 99;
},
{
glyphname = d;
kernLeft = o;
kernRight = d;
lastChange = "2022-09-01 20:59:12 +0000";
layers = (
{
anchors = (
{
name = bottom;
pos = (178,0);
},
{
name = center;
pos = (237,255);
},
{
name = top;
pos = (349,740);
},
{
name = topright;
pos = (501,740);
}
);
background = {
shapes = (
{
closed = 1;
nodes = (
(162,-8,o),
(222,31,o),
(284,115,cs),
(313,154,l),
(348,154,l),
(424,400,l),
(416,400,l),
(401,425,o),
(373,439,o),
(334,439,cs),
(184,439,o),
(15,258,o),
(15,96,cs),
(15,28,o),
(47,-8,o),
(103,-8,cs)
);
},
{
closed = 1;
nodes = (
(109,36,o),
(93,47,o),
(93,87,cs),
(93,234,o),
(229,417,o),
(330,417,cs),
(361,417,o),
(379,399,o),
(379,366,cs),
(379,270,o),
(223,36,o),
(131,36,cs)
);
},
{
closed = 1;
nodes = (
(300,97,ls),
(279,32,o),
(308,-8,o),
(368,-8,cs),
(437,-8,o),
(489,35,o),
(519,141,cs),
(521,150,o),
(519,158,o),
(508,158,cs),
(500,158,o),
(496,155,o),
(493,149,cs),
(465,75,o),
(438,41,o),
(402,41,cs),
(374,41,o),
(368,60,o),
(379,96,cs),
(543,619,ls),
(545,627,o),
(540,632,o),
(532,632,cs),
(526,632,o),
(521,630,o),
(515,626,cs),
(489,610,o),
(445,602,o),
(390,595,cs),
(381,594,o),
(375,591,o),
(374,586,cs),
(373,580,o),
(377,575,o),
(389,575,cs),
(423,572,ls),
(445,570,o),
(451,564,o),
(444,544,cs)
);
}
);
};
layerId = m002;
shapes = (
{
closed = 1;
nodes = (
(162,-8,o),
(228,32,o),
(301,139,cs),
(306,145,o),
(315,144,o),
(313,136,cs),
(300,97,ls),
(279,32,o),
(308,-8,o),
(368,-8,cs),
(437,-8,o),
(489,35,o),
(519,141,cs),
(521,150,o),
(519,158,o),
(508,158,cs),
(500,158,o),
(496,155,o),
(493,149,cs),
(465,75,o),
(438,41,o),
(402,41,cs),
(374,41,o),
(368,60,o),
(379,96,cs),
(543,619,ls),
(545,627,o),
(540,632,o),
(532,632,cs),
(526,632,o),
(521,630,o),
(515,626,cs),
(489,610,o),
(445,602,o),
(390,595,cs),
(381,594,o),
(375,591,o),
(374,586,cs),
(373,580,o),
(377,575,o),
(389,575,cs),
(423,572,ls),
(445,570,o),
(451,564,o),
(444,544,cs),
(407,432,ls),
(405,423,o),
(398,422,o),
(388,427,cs),
(373,434,o),
(355,439,o),
(334,439,cs),
(184,439,o),
(15,258,o),
(15,96,cs),
(15,28,o),
(47,-8,o),
(103,-8,cs)
);
},
{
closed = 1;
nodes = (
(109,36,o),
(93,47,o),
(93,87,cs),
(93,234,o),
(229,417,o),
(330,417,cs),
(361,417,o),
(379,399,o),
(379,366,cs),
(379,270,o),
(223,36,o),
(131,36,cs)
);
}
);
width = 545;
}
);
unicode = 100;
},
{
glyphname = eth;
kernLeft = o;
kernRight = o;
lastChange = "2022-08-23 19:55:36 +0000";
layers = (
{
background = {
shapes = (
{
closed = 1;
nodes = (
(273,-8,o),
(381,85,o),
(423,222,cs),
(482,408,o),
(382,585,o),
(195,620,cs),
(182,622,o),
(172,616,o),
(171,609,cs),
(169,604,o),
(172,600,o),
(181,598,cs),
(305,565,o),
(363,493,o),
(366,376,cs),
(367,367,o),
(359,365,o),
(351,369,cs),
(331,382,o),
(304,388,o),
(273,388,cs),
(164,388,o),
(59,306,o),
(24,195,cs),
(-9,98,o),
(48,-8,o),
(156,-8,cs)
);
},
{
closed = 1;
nodes = (
(87,15,o),
(68,71,o),
(106,190,cs),
(143,311,o),
(195,366,o),
(271,366,cs),
(352,366,o),
(374,304,o),
(336,185,cs),
(300,71,o),
(244,15,o),
(166,15,cs)
);
}
);
};
layerId = m002;
shapes = (
{
closed = 1;
nodes = (
(354,-8,o),
(438,182,o),
(438,305,cs),
(438,452,o),
(346,593,o),
(199,638,cs),
(184,642,o),
(175,637,o),
(175,627,cs),
(175,623,o),
(178,620,o),
(184,618,cs),
(307,571,o),
(366,483,o),
(366,361,cs),
(366,354,o),
(358,353,o),
(351,358,cs),
(327,377,o),
(297,386,o),
(258,386,cs),
(116,386,o),
(22,249,o),
(22,151,cs),
(22,61,o),
(85,-8,o),
(183,-8,cs)
);
},
{
closed = 1;
nodes = (
(122,14,o),
(93,57,o),
(93,120,cs),
(93,192,o),
(140,365,o),
(259,365,cs),
(324,365,o),
(354,316,o),
(354,259,cs),
(354,170,o),
(307,14,o),
(185,14,cs)
);
}
);
width = 467;
}
);
unicode = 240;
},
{
glyphname = dcroat;
kernLeft = o;
kernRight = d;
lastChange = "2022-08-23 19:55:32 +0000";
layers = (
{
layerId = m002;
shapes = (
{
ref = d;
},
{
closed = 1;
nodes = (
(568,491,ls),
(575,491,o),
(581,495,o),
(583,500,cs),
(585,507,ls),
(586,512,o),
(583,515,o),
(576,515,cs),
(260,515,ls),
(253,515,o),
(247,512,o),
(246,507,cs),
(244,500,ls),
(241,495,o),
(245,491,o),
(252,491,cs)
);
}
);
width = 545;
}
);
unicode = 273;
},
{
glyphname = e;
kernLeft = o;
kernRight = e;
lastChange = "2022-09-01 20:18:09 +0000";
layers = (
{
anchors = (
{
name = bottom;
pos = (115,0);
},
{
name = ogonek;
pos = (175,0);
},
{
name = top;
pos = (273,510);
}
);
background = {
shapes = (
{
closed = 1;
nodes = (
(231,-8,o),
(302,43,o),
(352,144,cs),
(355,151,o),
(353,158,o),
(344,158,cs),
(337,158,o),
(332,156,o),
(330,150,cs),
(293,77,o),
(235,37,o),
(177,37,cs),
(125,37,o),
(93,70,o),
(93,134,cs),
(93,266,o),
(216,417,o),
(301,417,cs),
(328,417,o),
(339,405,o),
(339,382,cs),
(339,306,o),
(251,215,o),
(86,196,c),
(86,175,l),
(279,198,o),
(411,286,o),
(411,368,cs),
(411,411,o),
(381,439,o),
(309,439,cs),
(176,439,o),
(14,278,o),
(14,128,cs),
(14,41,o),
(67,-8,o),
(148,-8,cs)
);
}
);
};
layerId = m002;
shapes = (
{
closed = 1;
nodes = (
(231,-8,o),
(302,43,o),
(352,144,cs),
(355,151,o),
(353,158,o),
(344,158,cs),
(337,158,o),
(332,156,o),
(330,150,cs),
(293,77,o),
(235,37,o),
(177,37,cs),
(125,37,o),
(93,70,o),
(93,134,cs),
(93,142,o),
(93,150,o),
(94,159,cs),
(95,171,o),
(105,178,o),
(121,180,cs),
(294,209,o),
(411,291,o),
(411,368,cs),
(411,411,o),
(381,439,o),
(309,439,cs),
(176,439,o),
(14,278,o),
(14,128,cs),
(14,41,o),
(67,-8,o),
(148,-8,cs)
);
},
{
closed = 1;
nodes = (
(140,320,o),
(233,417,o),
(301,417,cs),
(328,417,o),
(339,405,o),
(339,382,cs),
(339,312,o),
(264,229,o),
(122,201,cs),
(110,198,o),
(102,204,o),
(106,212,cs)
);
}
);
width = 400;
}
);
unicode = 101;
},
{
glyphname = f;
kernLeft = f;
lastChange = "2022-09-01 20:59:24 +0000";
layers = (
{
background = {
shapes = (
{
closed = 1;
nodes = (
(74,0,ls),
(90,0,o),
(100,6,o),
(103,18,cs),
(224,401,ls),
(227,407,o),
(231,410,o),
(239,410,cs),
(339,410,ls),
(350,410,o),
(358,414,o),
(360,422,cs),
(362,428,o),
(355,434,o),
(343,434,cs),
(251,434,ls),
(241,434,o),
(236,437,o),
(238,445,cs),
(261,518,ls),
(283,588,o),
(308,609,o),
(344,609,cs),
(400,609,o),
(354,541,o),
(419,541,cs),
(445,541,o),
(465,558,o),
(465,583,cs),
(465,616,o),
(429,636,o),
(375,636,cs),
(275,636,o),
(198,564,o),
(169,468,cs),
(161,440,o),
(139,434,o),
(92,434,cs),
(80,434,o),
(71,429,o),
(71,422,cs),
(71,415,o),
(77,410,o),
(90,410,cs),
(114,410,ls),
(139,410,o),
(148,400,o),
(141,378,cs),
(29,23,ls),
(24,9,o),
(33,0,o),
(53,0,cs)
);
}
);
};
guides = (
{
pos = (244,748);
}
);
layerId = m002;
shapes = (
{
closed = 1;
nodes = (
(85,0,ls),
(94,0,o),
(99,3,o),
(101,9,cs),
(224,401,ls),
(227,407,o),
(231,410,o),
(239,410,cs),
(339,410,ls),
(350,410,o),
(358,414,o),
(360,422,cs),
(362,428,o),
(355,434,o),
(343,434,cs),
(251,434,ls),
(241,434,o),
(236,437,o),
(238,445,cs),
(261,518,ls),
(283,588,o),
(308,609,o),
(344,609,cs),
(400,609,o),
(354,541,o),
(419,541,cs),
(445,541,o),
(465,558,o),
(465,583,cs),
(465,616,o),
(429,636,o),
(375,636,cs),
(275,636,o),
(198,564,o),
(169,468,cs),
(161,440,o),
(139,434,o),
(92,434,cs),
(80,434,o),
(71,429,o),
(71,422,cs),
(71,415,o),
(77,410,o),
(90,410,cs),
(114,410,ls),
(139,410,o),
(148,400,o),
(141,378,cs),
(25,11,ls),
(23,3,o),
(26,0,o),
(37,0,cs)
);
}
);
width = 314;
}
);
unicode = 102;
},
{
glyphname = g;
kernLeft = g;
kernRight = g;
lastChange = "2022-09-01 20:59:30 +0000";
layers = (
{
anchors = (
{
name = bottom;
pos = (95,-205);
},
{
name = top;
pos = (260,510);
}
);
background = {
shapes = (
{
closed = 1;
nodes = (
(248,-184,o),
(370,-133,o),
(370,-48,cs),
(370,-3,o),
(338,34,o),
(236,60,cs),
(148,82,o),
(139,88,o),
(139,100,cs),
(139,110,o),
(153,121,o),
(222,146,cs),
(288,170,ls),
(366,199,o),
(429,262,o),
(429,331,cs),
(429,361,o),
(417,387,o),
(397,405,c),
(397,410,l),
(494,410,ls),
(508,410,o),
(518,414,o),
(518,422,cs),
(518,429,o),
(512,434,o),
(498,434,cs),
(365,434,ls),
(336,434,o),
(322,439,o),
(294,439,cs),
(181,439,o),
(75,355,o),
(75,264,cs),
(75,207,o),
(118,166,o),
(185,158,c),
(185,155,l),
(139,137,ls),
(85,116,o),
(66,100,o),
(66,76,cs),
(66,62,o),
(72,51,o),
(103,38,c),
(103,34,l),
(67,22,ls),
(-29,-12,o),
(-68,-59,o),
(-68,-111,cs),
(-68,-172,o),
(-13,-216,o),
(107,-184,cs)
);
},
{
closed = 1;
nodes = (
(30,-162,o),
(-6,-151,o),
(-6,-98,cs),
(-6,-56,o),
(14,-10,o),
(143,25,c),
(199,9,ls),
(269,-9,o),
(292,-31,o),
(292,-65,cs),
(292,-130,o),
(208,-162,o),
(120,-162,cs)
);
},
{
closed = 1;
nodes = (
(174,175,o),
(152,200,o),
(152,249,cs),
(152,335,o),
(218,421,o),
(291,421,cs),
(330,421,o),
(351,395,o),
(351,347,cs),
(351,261,o),
(284,175,o),
(212,175,cs)
);
}
);
};
layerId = m002;
shapes = (
{
closed = 1;
nodes = (
(248,-184,o),
(370,-133,o),
(370,-51,cs),
(370,-7,o),
(342,26,o),
(256,48,cs),
(158,76,ls),
(108,89,o),
(99,106,o),
(122,116,cs),
(168,137,ls),
(201,152,o),
(220,157,o),
(247,162,cs),
(352,178,o),
(429,252,o),
(429,332,cs),
(429,360,o),
(419,387,o),
(399,405,cs),
(390,415,o),
(385,422,o),
(392,433,cs),
(402,447,o),
(416,454,o),
(432,454,cs),
(458,454,o),
(455,437,o),
(486,437,cs),
(512,437,o),
(531,451,o),
(531,473,cs),
(531,495,o),
(513,508,o),
(481,508,cs),
(436,508,o),
(392,482,o),
(367,440,cs),
(362,434,o),
(356,431,o),
(346,434,cs),
(334,437,o),
(317,439,o),
(301,439,cs),
(175,439,o),
(75,355,o),
(75,264,cs),
(75,224,o),
(95,189,o),
(137,171,cs),
(153,164,o),
(152,155,o),
(137,149,cs),
(49,111,ls),
(22,99,o),
(30,67,o),
(74,47,cs),
(90,39,o),
(86,30,o),
(70,23,cs),
(-38,-30,o),
(-68,-72,o),
(-68,-118,cs),
(-68,-172,o),
(-13,-216,o),
(107,-184,cs)
);
},
{
closed = 1;
nodes = (
(30,-162,o),
(-8,-151,o),
(-8,-101,cs),
(-8,-60,o),
(14,-24,o),
(97,10,cs),
(121,20,o),
(150,22,o),
(177,14,cs),
(199,8,ls),
(273,-12,o),
(292,-34,o),
(292,-71,cs),
(292,-128,o),
(208,-162,o),
(120,-162,cs)
);
},
{
closed = 1;
nodes = (
(152,335,o),
(218,421,o),
(291,421,cs),
(330,421,o),
(351,403,o),
(351,347,cs),
(351,261,o),
(284,175,o),
(212,175,cs),
(174,175,o),
(152,197,o),
(152,249,cs)
);
}
);
width = 461;
}
);
unicode = 103;
},
{
glyphname = h;
kernLeft = h;
kernRight = n;
lastChange = "2022-09-01 20:59:43 +0000";
layers = (
{
background = {
shapes = (
{
closed = 1;
nodes = (
(422,-8,o),
(477,25,o),
(521,141,cs),
(524,150,o),
(522,158,o),
(511,158,cs),
(503,158,o),
(498,155,o),
(496,149,cs),
(462,65,o),
(435,41,o),
(404,41,cs),
(379,41,o),
(368,56,o),
(379,88,cs),
(467,335,ls),
(492,405,o),
(461,439,o),
(405,439,cs),
(345,439,o),
(269,391,o),
(202,296,cs),
(161,236,l),
(155,236,l),
(275,619,ls),
(277,627,o),
(273,632,o),
(264,632,cs),
(258,632,o),
(253,630,o),
(247,626,cs),
(221,610,o),
(177,602,o),
(122,595,cs),
(113,594,o),
(107,591,o),
(106,586,cs),
(105,580,o),
(109,575,o),
(121,575,cs),
(155,572,ls),
(177,570,o),
(183,564,o),
(176,544,cs),
(12,23,ls),
(7,9,o),
(16,0,o),
(36,0,cs),
(57,0,ls),
(74,0,o),
(84,6,o),
(87,18,cs),
(141,188,o),
(288,402,o),
(374,402,cs),
(396,402,o),
(411,388,o),
(394,343,cs),
(306,97,ls),
(281,26,o),
(315,-8,o),
(370,-8,cs)
);
}
);
};
guides = (
{
angle = 76.9884;
pos = (153,627);
}
);
layerId = m002;
shapes = (
{
closed = 1;
nodes = (
(422,-8,o),
(477,25,o),
(521,141,cs),
(524,150,o),
(522,158,o),
(511,158,cs),
(503,158,o),
(498,155,o),
(496,149,cs),
(462,65,o),
(435,41,o),
(404,41,cs),
(379,41,o),
(368,56,o),
(379,88,cs),
(467,335,ls),
(492,405,o),
(461,439,o),
(405,439,cs),
(345,439,o),
(266,394,o),
(174,255,cs),
(169,248,o),
(160,250,o),
(162,258,cs),
(275,619,ls),
(277,627,o),
(273,632,o),
(264,632,cs),
(258,632,o),
(253,630,o),
(247,626,cs),
(221,610,o),
(177,602,o),
(122,595,cs),
(113,594,o),
(107,591,o),
(106,586,cs),
(105,580,o),
(109,575,o),
(121,575,cs),
(155,572,ls),
(177,570,o),
(183,564,o),
(176,544,cs),
(8,11,ls),
(6,3,o),
(10,0,o),
(21,0,cs),
(69,0,ls),
(78,0,o),
(83,3,o),
(85,9,cs),
(139,186,o),
(289,402,o),
(374,402,cs),
(396,402,o),
(411,388,o),
(394,343,cs),
(306,97,ls),
(281,26,o),
(315,-8,o),
(370,-8,cs)
);
}
);
width = 547;
}
);
unicode = 104;
},
{
glyphname = hbar;
kernLeft = h;
kernRight = n;
lastChange = "2022-08-23 19:55:55 +0000";
layers = (
{
layerId = m002;
shapes = (
{
ref = h;
},
{
closed = 1;
nodes = (
(411,491,ls),
(417,491,o),
(423,495,o),
(425,500,cs),
(428,507,ls),
(429,512,o),
(425,515,o),
(419,515,cs),
(102,515,ls),
(95,515,o),
(90,512,o),
(89,507,cs),
(86,500,ls),
(84,495,o),
(87,491,o),
(94,491,cs)
);
}
);
width = 547;
}
);
unicode = 295;
},
{
glyphname = i;
kernLeft = i;
kernRight = i;
lastChange = "2022-09-01 20:59:49 +0000";
layers = (
{
anchors = (
{
name = bottom;
pos = (85,0);
}
);
background = {
shapes = (
{
closed = 1;
nodes = (
(192,-8,o),
(258,31,o),
(308,157,c),
(281,157,l),
(237,65,o),
(206,40,o),
(177,40,cs),
(154,40,o),
(151,55,o),
(159,80,cs),
(243,349,ls),
(262,413,o),
(238,439,o),
(187,439,cs),
(136,439,o),
(70,400,o),
(20,273,c),
(47,273,l),
(91,365,o),
(122,390,o),
(151,390,cs),
(174,390,o),
(178,375,o),
(170,350,c),
(85,81,ls),
(66,17,o),
(90,-8,o),
(140,-8,cs)
);
},
{
closed = 1;
nodes = (
(269,514,o),
(300,534,o),
(300,565,cs),
(300,588,o),
(277,604,o),
(246,604,cs),
(214,604,o),
(184,584,o),
(184,553,cs),
(184,531,o),
(206,514,o),
(235,514,cs)
);
}
);
};
guides = (
{
angle = 76.985;
pos = (132,206);
}
);
layerId = m002;
shapes = (
{
closed = 1;
nodes = (
(190,-8,o),
(256,27,o),
(306,144,cs),
(310,153,o),
(306,159,o),
(297,159,cs),
(290,159,o),
(284,156,o),
(281,148,cs),
(239,64,o),
(207,40,o),
(179,40,cs),
(156,40,o),
(152,55,o),
(160,80,cs),
(245,349,ls),
(264,413,o),
(240,439,o),
(187,439,cs),
(138,439,o),
(74,403,o),
(24,286,cs),
(20,277,o),
(24,271,o),
(33,271,cs),
(40,271,o),
(46,275,o),
(49,282,cs),
(91,366,o),
(123,390,o),
(151,390,cs),
(174,390,o),
(178,375,o),
(170,350,cs),
(85,81,ls),
(66,17,o),
(90,-8,o),
(140,-8,cs)
);
},
{
closed = 1;
nodes = (
(269,514,o),
(300,534,o),
(300,565,cs),
(300,588,o),
(277,604,o),
(246,604,cs),
(214,604,o),
(184,584,o),
(184,553,cs),
(184,531,o),
(206,514,o),
(235,514,cs)
);
}
);
width = 331;
}
);
unicode = 105;
},
{
glyphname = idotless;
kernLeft = i;
kernRight = i;
lastChange = "2022-08-23 19:56:03 +0000";
layers = (
{
anchors = (
{
name = bottom;
pos = (85,0);
},
{
name = ogonek;
pos = (159,0);
},
{
name = top;
pos = (203,510);
}
);
layerId = m002;
shapes = (
{
closed = 1;
nodes = (
(190,-8,o),
(256,27,o),
(306,144,cs),
(310,153,o),
(306,159,o),
(297,159,cs),
(290,159,o),
(284,156,o),
(281,148,cs),
(239,64,o),
(207,40,o),
(179,40,cs),
(156,40,o),
(152,55,o),
(160,80,cs),
(245,349,ls),
(264,413,o),
(240,439,o),
(187,439,cs),
(138,439,o),
(74,403,o),
(24,286,cs),
(20,277,o),
(24,271,o),
(33,271,cs),
(40,271,o),
(46,275,o),
(49,282,cs),
(91,366,o),
(123,390,o),
(151,390,cs),
(174,390,o),
(178,375,o),
(170,350,cs),
(85,81,ls),
(66,17,o),
(90,-8,o),
(140,-8,cs)
);
}
);
width = 331;
}
);
unicode = 305;
},
{
glyphname = j;
kernLeft = j;
kernRight = j;
lastChange = "2022-09-01 20:59:53 +0000";
layers = (
{
background = {
shapes = (
{
closed = 1;
nodes = (
(237,374,ls),
(236,394,o),
(224,404,o),
(202,404,cs),
(163,404,o),
(115,368,o),
(82,332,cs),
(56,306,o),
(39,280,o),
(40,269,cs),
(40,266,o),
(47,264,o),
(52,264,cs),
(61,264,o),
(67,286,o),
(102,320,cs),
(126,344,o),
(143,353,o),
(155,353,cs),
(163,353,o),
(166,349,o),
(167,343,cs),
(167,339,o),
(163,332,o),
(147,284,cs),
(130,235,o),
(100,140,o),
(47,-42,cs),
(37,-81,o),
(29,-108,o),
(18,-127,cs),
(5,-156,o),
(-6,-191,o),
(-18,-191,cs),
(-36,-191,o),
(-42,-170,o),
(-44,-146,cs),
(-45,-122,o),
(-52,-109,o),
(-73,-109,cs),
(-101,-109,o),
(-109,-132,o),
(-107,-151,cs),
(-105,-190,o),
(-77,-215,o),
(-42,-215,cs),
(5,-183,o),
(44,-159,o),
(74,-122,cs),
(100,-89,o),
(120,-46,o),
(132,-2,cs),
(164,105,o),
(204,220,o),
(224,298,cs),
(233,333,o),
(238,360,o),
(237,373,cs)
);
}
);
};
guides = (
{
angle = 76.8603;
pos = (74,95);
}
);
layerId = m002;
shapes = (
{
closed = 1;
nodes = (
(34,-183,o),
(97,-126,o),
(126,-31,cs),
(246,349,ls),
(266,413,o),
(241,439,o),
(187,439,cs),
(138,439,o),
(74,403,o),
(24,286,cs),
(20,277,o),
(24,271,o),
(33,271,cs),
(40,271,o),
(46,275,o),
(49,282,cs),
(91,366,o),
(123,390,o),
(151,390,cs),
(174,390,o),
(178,375,o),
(170,350,cs),
(29,-97,ls),
(12,-151,o),
(-2,-188,o),
(-16,-188,cs),
(-54,-188,o),
(-21,-106,o),
(-72,-106,cs),
(-90,-106,o),
(-107,-120,o),
(-107,-148,cs),
(-107,-186,o),
(-82,-215,o),
(-35,-215,cs)
);
},
{
closed = 1;
nodes = (
(269,514,o),
(300,534,o),
(300,565,cs),
(300,588,o),
(277,604,o),
(246,604,cs),
(214,604,o),
(184,584,o),
(184,553,cs),
(184,531,o),
(206,514,o),
(235,514,cs)
);
}
);
width = 306;
}
);
unicode = 106;
},
{
glyphname = jdotless;
kernLeft = j;
kernRight = j;
lastChange = "2022-08-23 19:56:16 +0000";
layers = (
{
layerId = m002;
shapes = (
{
closed = 1;
nodes = (
(34,-183,o),
(97,-126,o),
(126,-31,cs),
(246,349,ls),
(266,413,o),
(241,439,o),
(187,439,cs),
(138,439,o),
(74,403,o),
(24,286,cs),
(20,277,o),
(24,271,o),
(33,271,cs),
(40,271,o),
(46,275,o),
(49,282,cs),
(91,366,o),
(123,390,o),
(151,390,cs),
(174,390,o),
(178,375,o),
(170,350,cs),
(29,-97,ls),
(12,-151,o),
(-2,-188,o),
(-16,-188,cs),
(-54,-188,o),
(-21,-106,o),
(-72,-106,cs),
(-90,-106,o),
(-107,-120,o),
(-107,-148,cs),
(-107,-186,o),
(-82,-215,o),
(-35,-215,cs)
);
}
);
width = 306;
}
);
unicode = 567;
},
{
glyphname = k;
kernLeft = h;
kernRight = k;
lastChange = "2022-09-01 20:19:58 +0000";
layers = (
{
anchors = (
{
name = bottom;
pos = (165,0);
},
{
name = top;
pos = (336,740);
}
);
background = {
shapes = (
{
closed = 1;
nodes = (
(57,0,ls),
(71,0,o),
(80,7,o),
(84,18,cs),
(99,65,ls),
(115,116,o),
(133,161,o),
(148,185,cs),
(158,201,o),
(166,207,o),
(178,207,cs),
(191,207,o),
(199,201,o),
(207,186,cs),
(270,63,ls),
(296,14,o),
(325,-8,o),
(366,-8,cs),
(432,-8,o),
(475,46,o),
(483,141,cs),
(484,153,o),
(481,158,o),
(471,158,cs),
(463,158,o),
(459,154,o),
(458,147,cs),
(444,66,o),
(428,38,o),
(393,38,cs),
(370,38,o),
(356,48,o),
(342,77,cs),
(264,223,l),
(396,256,o),
(489,322,o),
(489,382,cs),
(489,416,o),
(455,439,o),
(404,439,cs),
(335,439,o),
(271,401,o),
(217,330,cs),
(174,272,l),
(164,272,l),
(275,619,ls),
(277,627,o),
(274,632,o),
(263,632,cs),
(258,632,o),
(253,630,o),
(247,626,cs),
(225,613,o),
(187,603,o),
(122,595,cs),
(113,594,o),
(107,591,o),
(106,586,cs),
(105,580,o),
(110,575,o),
(121,575,cs),
(155,572,ls),
(177,570,o),
(183,564,o),
(176,544,cs),
(12,23,ls),
(7,9,o),
(16,0,o),
(36,0,cs)
);
},
{
closed = 1;
nodes = (
(248,342,o),
(327,412,o),
(383,412,cs),
(406,412,o),
(416,402,o),
(416,380,cs),
(416,310,o),
(319,247,o),
(178,227,c)
);
}
);
};
guides = (
{
pos = (230,271);
},
{
angle = 76.9307;
pos = (80,49);
},
{
angle = 256.8689;
pos = (82,334);
}
);
layerId = m002;
shapes = (
{
closed = 1;
nodes = (
(432,-8,o),
(475,46,o),
(483,141,cs),
(484,153,o),
(481,158,o),
(471,158,cs),
(463,158,o),
(459,154,o),
(458,147,cs),
(444,66,o),
(428,38,o),
(393,38,cs),
(370,38,o),
(356,48,o),
(342,77,cs),
(275,203,ls),
(268,215,o),
(274,225,o),
(291,230,cs),
(408,265,o),
(489,326,o),
(489,382,cs),
(489,416,o),
(455,439,o),
(404,439,cs),
(335,439,o),
(271,401,o),
(217,330,cs),
(179,280,ls),
(175,273,o),
(166,275,o),
(168,282,cs),
(275,619,ls),
(277,627,o),
(274,632,o),
(263,632,cs),
(258,632,o),
(253,630,o),
(247,626,cs),
(225,613,o),
(187,603,o),
(122,595,cs),
(113,594,o),
(107,591,o),
(106,586,cs),
(105,580,o),
(110,575,o),
(121,575,cs),
(155,572,ls),
(177,570,o),
(182,564,o),
(176,544,cs),
(8,11,ls),
(6,3,o),
(10,0,o),
(21,0,cs),
(66,0,ls),
(75,0,o),
(79,3,o),
(82,9,cs),
(99,65,ls),
(114,116,o),
(133,161,o),
(148,185,cs),
(158,201,o),
(166,207,o),
(178,207,cs),
(191,207,o),
(199,201,o),
(207,186,cs),
(270,63,ls),
(296,14,o),
(325,-8,o),
(366,-8,cs)
);
},
{
closed = 1;
nodes = (
(256,348,o),
(330,412,o),
(383,412,cs),
(406,412,o),
(416,402,o),
(416,380,cs),
(416,314,o),
(330,255,o),
(204,231,cs),
(190,229,o),
(183,235,o),
(190,245,cs)
);
}
);
width = 514;
}
);
unicode = 107;
},
{
glyphname = l;
kernLeft = h;
kernRight = l;
lastChange = "2022-09-01 20:39:59 +0000";
layers = (
{
anchors = (
{
name = bottom;
pos = (61,0);
},
{
name = center;
pos = (147,370);
},
{
name = top;
pos = (169,710);
},
{
name = topright;
pos = (267,740);
}
);
guides = (
{
angle = 256.8603;
pos = (63,254);
}
);
layerId = m002;
shapes = (
{
closed = 1;
nodes = (
(135,-8,o),
(201,27,o),
(251,144,cs),
(255,153,o),
(251,159,o),
(241,159,cs),
(235,159,o),
(229,156,o),
(225,148,cs),
(184,64,o),
(152,40,o),
(124,40,cs),
(101,40,o),
(97,55,o),
(105,80,cs),
(275,619,ls),
(277,627,o),
(273,632,o),
(264,632,cs),
(258,632,o),
(253,630,o),
(247,626,cs),
(221,610,o),
(177,602,o),
(122,595,cs),
(113,594,o),
(107,591,o),
(106,586,cs),
(105,580,o),
(109,575,o),
(121,575,cs),
(155,572,ls),
(177,570,o),
(183,564,o),
(176,544,cs),
(30,81,ls),
(9,17,o),
(34,-8,o),
(85,-8,cs)
);
}
);
width = 276;
}
);
unicode = 108;
},
{
glyphname = lslash;
kernLeft = h;
kernRight = l;
lastChange = "2022-08-23 20:01:07 +0000";
layers = (
{
layerId = m002;
shapes = (
{
pos = (31,0);
ref = l;
},
{
closed = 1;
nodes = (
(186,326,l),
(31,261,ls),
(24,258,o),
(21,253,o),
(24,249,cs),
(29,243,ls),
(32,239,o),
(37,238,o),
(44,241,cs),
(179,298,l)
);
},
{
closed = 1;
nodes = (
(181,293,l),
(343,360,ls),
(350,363,o),
(352,368,o),
(350,372,cs),
(345,378,ls),
(343,382,o),
(337,383,o),
(330,381,cs),
(187,321,l)
);
}
);
width = 312;
}
);
unicode = 322;
},
{
glyphname = m;
kernLeft = n;
kernRight = n;
lastChange = "2022-09-01 19:49:06 +0000";
layers = (
{
background = {
shapes = (
{
closed = 1;
nodes = (
(406,20,cs),
(457,180,o),
(607,402,o),
(683,402,cs),
(705,402,o),
(720,388,o),
(704,343,cs),
(615,97,ls),
(590,26,o),
(624,-8,o),
(680,-8,cs),
(731,-8,o),
(787,25,o),
(830,141,cs),
(834,150,o),
(831,158,o),
(820,158,cs),
(812,158,o),
(807,155,o),
(805,149,cs),
(773,65,o),
(744,41,o),
(713,41,cs),
(689,41,o),
(677,56,o),
(689,88,cs),
(776,335,ls),
(802,405,o),
(770,439,o),
(714,439,cs),
(654,439,o),
(586,392,o),
(522,296,cs),
(482,236,l),
(476,236,l),
(507,335,ls),
(529,405,o),
(501,439,o),
(445,439,cs),
(385,439,o),
(317,392,o),
(253,296,cs),
(213,236,l),
(207,236,l),
(243,349,ls),
(262,413,o),
(238,439,o),
(187,439,cs),
(138,439,o),
(74,403,o),
(24,286,cs),
(20,277,o),
(24,271,o),
(33,271,cs),
(40,271,o),
(46,275,o),
(49,282,cs),
(91,366,o),
(123,390,o),
(151,390,cs),
(174,390,o),
(178,375,o),
(170,350,cs),
(67,23,ls),
(62,9,o),
(71,0,o),
(91,0,cs),
(109,0,ls),
(125,0,o),
(136,6,o),
(139,18,cs),
(193,188,o),
(339,402,o),
(414,402,cs),
(436,402,o),
(448,388,o),
(435,343,cs),
(334,23,ls),
(329,9,o),
(338,0,o),
(358,0,cs),
(376,0,ls),
(392,0,o),
(401,6,o)
);
}
);
};
layerId = m002;
shapes = (
{
closed = 1;
nodes = (
(731,-8,o),
(787,25,o),
(830,141,cs),
(834,150,o),
(831,158,o),
(820,158,cs),
(812,158,o),
(807,155,o),
(805,149,cs),
(773,65,o),
(744,41,o),
(713,41,cs),
(689,41,o),
(677,56,o),
(689,88,cs),
(776,335,ls),
(802,405,o),
(770,439,o),
(714,439,cs),
(654,439,o),
(581,393,o),
(494,255,cs),
(490,248,o),
(481,250,o),
(483,258,cs),
(507,335,ls),
(529,405,o),
(501,439,o),
(445,439,cs),
(385,439,o),
(314,391,o),
(225,255,cs),
(221,248,o),
(212,250,o),
(214,258,cs),
(243,349,ls),
(262,413,o),
(238,439,o),
(187,439,cs),
(138,439,o),
(74,403,o),
(24,286,cs),
(20,277,o),
(24,271,o),
(33,271,cs),
(40,271,o),
(46,275,o),
(49,282,cs),
(91,366,o),
(123,390,o),
(151,390,cs),
(174,390,o),
(178,375,o),
(170,350,cs),
(61,11,ls),
(59,3,o),
(63,0,o),
(74,0,cs),
(121,0,ls),
(130,0,o),
(135,3,o),
(137,9,cs),
(192,187,o),
(339,402,o),
(414,402,cs),
(436,402,o),
(448,388,o),
(435,343,cs),
(329,11,ls),
(327,3,o),
(331,0,o),
(342,0,cs),
(386,0,ls),
(396,0,o),
(400,3,o),
(402,9,cs),
(459,188,o),
(607,402,o),
(683,402,cs),
(705,402,o),
(720,388,o),
(704,343,cs),
(615,97,ls),
(590,26,o),
(624,-8,o),
(680,-8,cs)
);
}
);
width = 857;
}
);
metricRight = n;
unicode = 109;
},
{
glyphname = n;
kernLeft = n;
kernRight = n;
lastChange = "2022-08-31 18:09:38 +0000";
layers = (
{
anchors = (
{
name = bottom;
pos = (202,0);
},
{
name = top;
pos = (320,510);
}
);
background = {
shapes = (
{
closed = 1;
nodes = (
(478,-8,o),
(539,31,o),
(578,158,c),
(551,158,l),
(519,66,o),
(488,41,o),
(455,41,cs),
(431,41,o),
(420,56,o),
(431,88,cs),
(519,335,ls),
(544,405,o),
(513,439,o),
(457,439,cs),
(397,439,o),
(321,391,o),
(254,296,cs),
(213,236,l),
(191,236,l),
(133,0,l),
(193,191,o),
(337,402,o),
(425,402,cs),
(447,402,o),
(462,388,o),
(446,343,cs),
(358,97,ls),
(332,26,o),
(367,-8,o),
(422,-8,cs)
);
},
{
closed = 1;
nodes = (
(133,0,l),
(243,349,ls),
(262,413,o),
(238,439,o),
(187,439,cs),
(136,439,o),
(70,400,o),
(20,273,c),
(47,273,l),
(91,365,o),
(122,390,o),
(151,390,cs),
(174,390,o),
(178,375,o),
(170,350,c),
(60,0,l)
);
}
);
};
guides = (
{
pos = (500,186);
}
);
layerId = m002;
shapes = (
{
closed = 1;
nodes = (
(59,3,o),
(63,0,o),
(74,0,cs),
(121,0,ls),
(130,0,o),
(135,3,o),
(137,9,cs),
(191,185,o),
(339,402,o),
(425,402,cs),
(447,402,o),
(462,388,o),
(446,343,cs),
(358,97,ls),
(332,26,o),
(367,-8,o),
(422,-8,cs),
(474,-8,o),
(529,25,o),
(573,141,cs),
(576,150,o),
(574,158,o),
(562,158,cs),
(554,158,o),
(550,155,o),
(547,149,cs),
(515,65,o),
(486,41,o),
(455,41,cs),
(431,41,o),
(420,56,o),
(431,88,cs),
(519,335,ls),
(544,405,o),
(513,439,o),
(457,439,cs),
(397,439,o),
(315,393,o),
(225,255,cs),
(221,248,o),
(212,250,o),
(214,258,cs),
(243,349,ls),
(262,413,o),
(238,439,o),
(187,439,cs),
(138,439,o),
(74,403,o),
(24,286,cs),
(20,277,o),
(24,271,o),
(33,271,cs),
(40,271,o),
(46,275,o),
(49,282,cs),
(91,366,o),
(123,390,o),
(151,390,cs),
(174,390,o),
(178,375,o),
(170,350,cs),
(61,11,ls)
);
}
);
width = 599;
}
);
unicode = 110;
},
{
glyphname = eng;
kernLeft = n;
kernRight = j;
lastChange = "2022-08-23 20:01:41 +0000";
layers = (
{
background = {
shapes = (
{
closed = 1;
nodes = (
(59,3,o),
(63,0,o),
(74,0,cs),
(121,0,ls),
(130,0,o),
(135,3,o),
(137,9,cs),
(191,185,o),
(339,402,o),
(425,402,cs),
(447,402,o),
(462,388,o),
(446,343,cs),
(358,97,ls),
(332,26,o),
(367,-8,o),
(422,-8,cs),
(474,-8,o),
(529,25,o),
(573,141,cs),
(576,150,o),
(574,158,o),
(562,158,cs),
(554,158,o),
(550,155,o),
(547,149,cs),
(515,65,o),
(486,41,o),
(455,41,cs),
(431,41,o),
(420,56,o),
(431,88,cs),
(519,335,ls),
(544,405,o),
(513,439,o),
(457,439,cs),
(397,439,o),
(315,393,o),
(225,255,cs),
(221,248,o),
(212,250,o),
(214,258,cs),
(243,349,ls),
(262,413,o),
(238,439,o),
(187,439,cs),
(138,439,o),
(74,403,o),
(24,286,cs),
(20,277,o),
(24,271,o),
(33,271,cs),
(40,271,o),
(46,275,o),
(49,282,cs),
(91,366,o),
(123,390,o),
(151,390,cs),
(174,390,o),
(178,375,o),
(170,350,cs),
(61,11,ls)
);
}
);
};
layerId = m002;
shapes = (
{
closed = 1;
nodes = (
(297,-183,o),
(355,-125,o),
(389,-31,cs),
(519,335,ls),
(543,405,o),
(513,439,o),
(457,439,cs),
(397,439,o),
(315,393,o),
(225,255,cs),
(221,248,o),
(212,250,o),
(214,258,cs),
(243,349,ls),
(262,413,o),
(238,439,o),
(187,439,cs),
(138,439,o),
(74,403,o),
(24,286,cs),
(20,277,o),
(24,271,o),
(33,271,cs),
(40,271,o),
(46,275,o),
(49,282,cs),
(91,366,o),
(123,390,o),
(151,390,cs),
(174,390,o),
(178,375,o),
(170,350,cs),
(61,11,ls),
(59,3,o),
(63,0,o),
(74,0,cs),
(121,0,ls),
(130,0,o),
(135,3,o),
(137,9,cs),
(191,185,o),
(339,402,o),
(425,402,cs),
(447,402,o),
(461,388,o),
(446,343,cs),
(292,-97,ls),
(273,-151,o),
(260,-160,o),
(244,-160,cs),
(200,-160,o),
(238,-90,o),
(179,-90,cs),
(159,-90,o),
(139,-102,o),
(139,-126,cs),
(139,-158,o),
(168,-183,o),
(222,-183,cs)
);
}
);
width = 572;
}
);
unicode = 331;
},
{
glyphname = o;
kernLeft = o;
kernRight = o;
lastChange = "2022-08-31 20:21:46 +0000";
layers = (
{
anchors = (
{
name = bottom;
pos = (148,0);
},
{
name = center;
pos = (207,255);
},
{
name = ogonek;
pos = (316,10);
},
{
name = top;
pos = (266,510);
},
{
name = topright;
pos = (456,450);
}
);
background = {
shapes = (
{
closed = 1;
nodes = (
(342,-8,o),
(475,124,o),
(475,268,cs),
(475,371,o),
(407,439,o),
(304,439,cs),
(158,439,o),
(24,307,o),
(24,162,cs),
(24,60,o),
(92,-8,o),
(195,-8,cs)
);
},
{
closed = 1;
nodes = (
(132,14,o),
(102,55,o),
(102,132,cs),
(102,275,o),
(206,417,o),
(310,417,cs),
(367,417,o),
(397,376,o),
(397,299,cs),
(397,156,o),
(293,14,o),
(189,14,cs)
);
}
);
};
layerId = m002;
shapes = (
{
closed = 1;
nodes = (
(309,-8,o),
(452,128,o),
(452,276,cs),
(452,377,o),
(393,439,o),
(298,439,cs),
(166,439,o),
(23,303,o),
(23,155,cs),
(23,54,o),
(82,-8,o),
(177,-8,cs)
);
},
{
closed = 1;
nodes = (
(125,13,o),
(101,50,o),
(101,120,cs),
(101,264,o),
(202,418,o),
(299,418,cs),
(350,418,o),
(374,382,o),
(374,312,cs),
(374,169,o),
(271,13,o),
(175,13,cs)
);
}
);
width = 476;
}
);
unicode = 111;
},
{
glyphname = oslash;
kernLeft = o;
kernRight = o;
lastChange = "2022-08-23 20:01:47 +0000";
layers = (
{
layerId = m002;
shapes = (
{
ref = o;
},
{
closed = 1;
nodes = (
(30,-42,ls),
(36,-42,o),
(40,-41,o),
(44,-36,cs),
(452,466,ls),
(457,472,o),
(453,476,o),
(445,476,cs),
(435,476,ls),
(429,476,o),
(424,474,o),
(421,469,cs),
(13,-32,ls),
(8,-38,o),
(12,-42,o),
(20,-42,cs)
);
}
);
width = 476;
}
);
unicode = 248;
},
{
glyphname = oe;
kernLeft = o;
kernRight = e;
lastChange = "2022-08-23 20:01:51 +0000";
layers = (
{
layerId = m002;
shapes = (
{
closed = 1;
nodes = (
(309,-8,o),
(440,128,o),
(440,276,cs),
(440,377,o),
(393,439,o),
(298,439,cs),
(166,439,o),
(23,303,o),
(23,155,cs),
(23,54,o),
(82,-8,o),
(177,-8,cs)
);
},
{
closed = 1;
nodes = (
(125,13,o),
(101,50,o),
(101,120,cs),
(101,264,o),
(202,418,o),
(299,418,cs),
(350,418,o),
(374,382,o),
(374,312,cs),
(374,169,o),
(271,13,o),
(175,13,cs)
);
},
{
closed = 1;
nodes = (
(561,-8,o),
(632,43,o),
(682,144,cs),
(685,151,o),
(683,158,o),
(674,158,cs),
(667,158,o),
(662,156,o),
(660,150,cs),
(623,77,o),
(565,37,o),
(507,37,cs),
(455,37,o),
(423,70,o),
(423,134,cs),
(423,142,o),
(423,150,o),
(424,159,cs),
(425,171,o),
(435,178,o),
(451,180,cs),
(624,209,o),
(741,291,o),
(741,368,cs),
(741,411,o),
(711,439,o),
(639,439,cs),
(506,439,o),
(344,278,o),
(344,128,cs),
(344,41,o),
(397,-8,o),
(478,-8,cs)
);
},
{
closed = 1;
nodes = (
(470,320,o),
(564,417,o),
(631,417,cs),
(658,417,o),
(669,405,o),
(669,382,cs),
(669,312,o),
(595,229,o),
(452,201,cs),
(440,198,o),
(432,204,o),
(436,212,cs)
);
}
);
width = 730;
}
);
metricRight = e;
unicode = 339;
},
{
glyphname = p;
kernLeft = n;
kernRight = o;
lastChange = "2022-08-31 17:39:19 +0000";
layers = (
{
background = {
shapes = (
{
closed = 1;
nodes = (
(120,-174,ls),
(132,-174,o),
(139,-171,o),
(139,-164,cs),
(139,-159,o),
(135,-156,o),
(118,-154,cs),
(89,-150,ls),
(60,-147,o),
(52,-143,o),
(60,-117,cs),
(244,473,ls),
(248,487,o),
(238,496,o),
(220,496,cs),
(199,496,ls),
(182,496,o),
(172,489,o),
(169,478,cs),
(-15,-138,ls),
(-22,-168,o),
(-32,-176,o),
(-59,-180,cs),
(-73,-182,ls),
(-82,-183,o),
(-89,-187,o),
(-89,-194,cs),
(-89,-200,o),
(-86,-205,o),
(-76,-205,cs)
);
},
{
closed = 1;
nodes = (
(323,-8,o),
(494,139,o),
(494,293,cs),
(494,392,o),
(414,439,o),
(301,439,cs),
(207,439,o),
(123,409,o),
(63,379,cs),
(55,375,o),
(52,371,o),
(52,367,cs),
(52,359,o),
(66,357,o),
(76,362,cs),
(145,395,o),
(215,416,o),
(283,416,cs),
(368,416,o),
(414,384,o),
(414,309,cs),
(414,162,o),
(282,14,o),
(176,14,cs),
(128,14,o),
(109,45,o),
(131,112,c),
(69,35,l),
(84,9,o),
(123,-8,o),
(174,-8,cs)
);
}
);
};
layerId = m002;
shapes = (
{
closed = 1;
nodes = (
(120,-174,ls),
(132,-174,o),
(139,-171,o),
(139,-164,cs),
(139,-159,o),
(135,-156,o),
(118,-154,cs),
(89,-150,ls),
(60,-147,o),
(52,-143,o),
(60,-117,cs),
(94,-5,ls),
(97,3,o),
(105,5,o),
(115,2,cs),
(132,-4,o),
(152,-8,o),
(174,-8,cs),
(323,-8,o),
(494,139,o),
(494,293,cs),
(494,392,o),
(414,439,o),
(301,439,cs),
(284,439,o),
(268,438,o),
(251,436,cs),
(239,434,o),
(233,439,o),
(236,448,cs),
(244,473,ls),
(248,487,o),
(238,496,o),
(220,496,cs),
(199,496,ls),
(182,496,o),
(172,489,o),
(169,478,cs),
(154,429,ls),
(151,418,o),
(144,412,o),
(130,407,cs),
(106,399,o),
(84,389,o),
(63,379,cs),
(55,375,o),
(52,371,o),
(52,367,cs),
(52,359,o),
(62,355,o),
(76,362,cs),
(90,369,o),
(102,375,o),
(118,381,cs),
(131,386,o),
(139,380,o),
(136,371,cs),
(-15,-138,ls),
(-22,-168,o),
(-32,-176,o),
(-59,-180,cs),
(-73,-182,ls),
(-82,-183,o),
(-89,-187,o),
(-89,-194,cs),
(-89,-200,o),
(-86,-205,o),
(-76,-205,cs)
);
},
{
closed = 1;
nodes = (
(217,387,ls),
(223,406,o),
(244,416,o),
(283,416,cs),
(368,416,o),
(414,384,o),
(414,309,cs),
(414,162,o),
(282,14,o),
(176,14,cs),
(131,14,o),
(113,41,o),
(126,98,c)
);
}
);
width = 518;
}
);
unicode = 112;
},
{
glyphname = thorn;
kernLeft = h;
kernRight = o;
lastChange = "2022-08-23 20:02:04 +0000";
layers = (
{
layerId = m002;
shapes = (
{
closed = 1;
nodes = (
(106,-174,ls),
(118,-174,o),
(125,-171,o),
(125,-164,cs),
(125,-159,o),
(121,-156,o),
(105,-154,cs),
(75,-150,ls),
(46,-147,o),
(38,-143,o),
(46,-117,cs),
(80,-5,ls),
(83,3,o),
(91,5,o),
(101,2,cs),
(118,-4,o),
(138,-8,o),
(160,-8,cs),
(309,-8,o),
(481,139,o),
(481,293,cs),
(481,392,o),
(400,439,o),
(288,439,cs),
(270,439,o),
(254,438,o),
(237,436,cs),
(225,434,o),
(220,439,o),
(222,448,cs),
(278,619,ls),
(281,627,o),
(276,632,o),
(268,632,cs),
(261,632,o),
(256,630,o),
(251,626,cs),
(224,610,o),
(177,602,o),
(122,595,cs),
(113,594,o),
(107,591,o),
(106,586,cs),
(105,580,o),
(109,575,o),
(121,575,cs),
(155,572,ls),
(177,570,o),
(183,564,o),
(176,544,cs),
(140,429,ls),
(137,418,o),
(130,412,o),
(116,407,cs),
(92,399,o),
(70,389,o),
(49,379,cs),
(41,375,o),
(38,371,o),
(38,367,cs),
(38,359,o),
(48,355,o),
(62,362,cs),
(76,369,o),
(89,375,o),
(105,381,cs),
(117,386,o),
(125,380,o),
(122,371,cs),
(-27,-138,ls),
(-34,-168,o),
(-44,-176,o),
(-71,-180,cs),
(-85,-182,ls),
(-94,-183,o),
(-101,-187,o),
(-101,-194,cs),
(-101,-200,o),
(-98,-205,o),
(-88,-205,cs)
);
},
{
closed = 1;
nodes = (
(117,14,o),
(99,41,o),
(113,98,c),
(204,387,ls),
(209,406,o),
(230,416,o),
(269,416,cs),
(354,416,o),
(400,384,o),
(400,309,cs),
(400,162,o),
(268,14,o),
(162,14,cs)
);
}
);
width = 504;
}
);
unicode = 254;
},
{
glyphname = q;
kernLeft = o;
lastChange = "2022-09-01 20:20:31 +0000";
layers = (
{
background = {
shapes = (
{
closed = 1;
nodes = (
(162,-8,o),
(223,30,o),
(284,115,cs),
(317,162,l),
(354,162,l),
(424,400,l),
(416,400,l),
(401,425,o),
(373,439,o),
(334,439,cs),
(184,439,o),
(15,258,o),
(15,96,cs),
(15,28,o),
(47,-8,o),
(103,-8,cs)
);
},
{
closed = 1;
nodes = (
(109,36,o),
(93,47,o),
(93,87,cs),
(93,234,o),
(229,417,o),
(330,417,cs),
(361,417,o),
(379,399,o),
(379,366,cs),
(379,270,o),
(223,36,o),
(131,36,cs)
);
},
{
closed = 1;
nodes = (
(361,-174,ls),
(374,-174,o),
(381,-171,o),
(381,-164,cs),
(381,-159,o),
(376,-156,o),
(360,-154,cs),
(340,-151,ls),
(313,-148,o),
(305,-143,o),
(313,-117,cs),
(482,422,ls),
(484,429,o),
(478,434,o),
(470,434,cs),
(461,434,o),
(454,430,o),
(445,422,cs),
(389,368,l),
(236,-117,ls),
(228,-143,o),
(217,-151,o),
(186,-153,cs),
(158,-155,ls),
(147,-156,o),
(139,-159,o),
(139,-165,cs),
(139,-170,o),
(143,-174,o),
(154,-174,cs)
);
}
);
};
guides = (
{
angle = 76.918;
pos = (375,305);
}
);
layerId = m002;
shapes = (
{
closed = 1;
nodes = (
(361,-174,ls),
(374,-174,o),
(381,-171,o),
(381,-164,cs),
(381,-159,o),
(376,-156,o),
(360,-154,cs),
(340,-151,ls),
(313,-148,o),
(305,-143,o),
(313,-117,cs),
(482,422,ls),
(484,429,o),
(478,434,o),
(470,434,cs),
(461,434,o),
(452,430,o),
(435,412,cs),
(430,407,o),
(427,405,o),
(421,405,cs),
(415,405,o),
(412,407,o),
(407,412,cs),
(390,430,o),
(362,439,o),
(334,439,cs),
(184,439,o),
(15,258,o),
(15,96,cs),
(15,28,o),
(47,-8,o),
(103,-8,cs),
(162,-8,o),
(227,28,o),
(306,145,cs),
(310,152,o),
(320,150,o),
(317,143,cs),
(236,-117,ls),
(228,-143,o),
(217,-151,o),
(186,-153,cs),
(158,-155,ls),
(147,-156,o),
(139,-159,o),
(139,-165,cs),
(139,-170,o),
(143,-174,o),
(154,-174,cs)
);
},
{
closed = 1;
nodes = (
(109,36,o),
(93,47,o),
(93,87,cs),
(93,234,o),
(229,417,o),
(330,417,cs),
(361,417,o),
(379,399,o),
(379,366,cs),
(379,270,o),
(223,36,o),
(131,36,cs)
);
}
);
width = 489;
}
);
unicode = 113;
},
{
glyphname = r;
kernLeft = n;
kernRight = r;
lastChange = "2022-09-01 19:37:15 +0000";
layers = (
{
anchors = (
{
name = bottom;
pos = (86,0);
},
{
name = top;
pos = (243,510);
}
);
background = {
shapes = (
{
closed = 1;
nodes = (
(243,349,ls),
(262,413,o),
(238,439,o),
(187,439,cs),
(138,439,o),
(74,403,o),
(24,286,cs),
(20,277,o),
(24,271,o),
(33,271,cs),
(40,271,o),
(46,275,o),
(49,282,cs),
(91,366,o),
(123,390,o),
(151,390,cs),
(174,390,o),
(178,375,o),
(170,350,cs),
(67,23,ls),
(62,9,o),
(71,0,o),
(91,0,cs),
(109,0,ls),
(125,0,o),
(136,6,o),
(139,18,cs)
);
},
{
closed = 1;
nodes = (
(195,199,o),
(306,391,o),
(353,391,cs),
(382,391,o),
(367,346,o),
(415,346,cs),
(444,346,o),
(465,365,o),
(465,393,cs),
(465,421,o),
(444,439,o),
(402,439,cs),
(342,439,o),
(300,405,o),
(255,330,cs),
(228,284,l),
(210,284,l),
(139,18,l)
);
}
);
};
layerId = m002;
shapes = (
{
closed = 1;
nodes = (
(121,0,ls),
(130,0,o),
(135,3,o),
(137,9,cs),
(194,199,o),
(306,391,o),
(353,391,cs),
(382,391,o),
(367,346,o),
(415,346,cs),
(444,346,o),
(465,365,o),
(465,393,cs),
(465,421,o),
(444,439,o),
(402,439,cs),
(342,439,o),
(299,405,o),
(241,307,cs),
(237,300,o),
(228,302,o),
(230,309,cs),
(243,349,ls),
(262,412,o),
(238,439,o),
(187,439,cs),
(138,439,o),
(74,403,o),
(24,286,cs),
(20,277,o),
(24,271,o),
(33,271,cs),
(40,271,o),
(46,275,o),
(49,282,cs),
(91,366,o),
(123,390,o),
(151,390,cs),
(174,390,o),
(178,375,o),
(170,350,cs),
(61,11,ls),
(59,3,o),
(63,0,o),
(74,0,cs)
);
}
);
width = 423;
}
);
unicode = 114;
},
{
glyphname = s;
kernLeft = s;
kernRight = s;
lastChange = "2022-09-01 21:00:18 +0000";
layers = (
{
anchors = (
{
name = bottom;
pos = (89,0);
},
{
name = top;
pos = (207,510);
}
);
background = {
shapes = (
{
closed = 1;
nodes = (
(290,124,ls),
(286,171,o),
(246,207,o),
(205,244,cs),
(169,277,o),
(133,309,o),
(131,346,cs),
(126,383,o),
(162,416,o),
(212,416,cs),
(264,416,o),
(282,385,o),
(291,356,cs),
(300,326,o),
(299,297,o),
(317,297,cs),
(330,297,o),
(331,302,o),
(344,344,cs),
(350,368,o),
(354,388,o),
(353,405,cs),
(353,416,o),
(291,438,o),
(228,438,cs),
(131,438,o),
(68,370,o),
(72,302,cs),
(77,258,o),
(110,225,o),
(148,194,cs),
(186,163,o),
(222,130,o),
(224,86,cs),
(227,50,o),
(190,12,o),
(140,12,cs),
(62,12,o),
(33,66,o),
(30,126,cs),
(28,154,o),
(26,160,o),
(15,160,cs),
(2,160,o),
(1,154,o),
(-5,145,cs),
(-14,96,o),
(-18,56,o),
(-17,38,cs),
(-17,32,o),
(-8,24,o),
(3,14,cs),
(30,2,o),
(72,-10,o),
(112,-10,cs),
(163,-10,o),
(212,5,o),
(245,31,cs),
(275,54,o),
(292,87,o),
(290,123,cs)
);
}
);
};
layerId = m002;
shapes = (
{
closed = 1;
nodes = (
(218,-8,o),
(290,44,o),
(290,116,cs),
(290,154,o),
(271,184,o),
(209,245,cs),
(161,292,o),
(132,318,o),
(132,355,cs),
(132,390,o),
(166,419,o),
(215,419,cs),
(270,419,o),
(282,392,o),
(288,324,cs),
(291,283,ls),
(292,275,o),
(296,271,o),
(304,271,cs),
(310,271,o),
(315,275,o),
(317,282,cs),
(350,396,ls),
(352,403,o),
(350,407,o),
(343,411,cs),
(316,429,o),
(275,439,o),
(233,439,cs),
(140,439,o),
(72,392,o),
(72,320,cs),
(72,282,o),
(98,250,o),
(150,201,cs),
(208,145,o),
(230,122,o),
(230,82,cs),
(230,37,o),
(189,14,o),
(140,14,cs),
(84,14,o),
(40,42,o),
(37,107,cs),
(34,148,ls),
(34,156,o),
(29,160,o),
(22,160,cs),
(15,160,o),
(9,156,o),
(8,149,cs),
(-15,44,ls),
(-16,36,o),
(-15,31,o),
(-9,26,cs),
(18,5,o),
(83,-8,o),
(133,-8,cs)
);
}
);
width = 347;
}
);
unicode = 115;
},
{
glyphname = germandbls;
kernLeft = f;
kernRight = s;
lastChange = "2022-08-23 20:02:28 +0000";
layers = (
{
background = {
shapes = (
{
closed = 1;
nodes = (
(457,-8,o),
(530,39,o),
(552,112,cs),
(569,167,o),
(544,214,o),
(485,250,cs),
(414,293,o),
(397,313,o),
(407,344,cs),
(428,411,o),
(613,445,o),
(643,542,cs),
(657,584,o),
(624,636,o),
(524,636,c),
(396,636,o),
(293,556,o),
(264,462,cs),
(258,443,o),
(236,430,o),
(199,428,cs),
(190,427,o),
(184,423,o),
(183,418,cs),
(181,413,o),
(185,410,o),
(193,410,cs),
(220,410,ls),
(237,410,o),
(245,402,o),
(241,389,cs),
(137,57,ls),
(130,33,o),
(120,23,o),
(87,21,cs),
(57,20,ls),
(47,19,o),
(41,14,o),
(40,9,cs),
(38,3,o),
(43,0,o),
(54,0,cs),
(175,0,ls),
(190,0,o),
(200,6,o),
(204,17,c),
(350,484,ls),
(376,571,o),
(444,609,o),
(511,609,cs),
(566,609,o),
(583,585,o),
(570,547,cs),
(536,435,o),
(378,416,o),
(348,322,cs),
(335,275,o),
(355,240,o),
(422,200,cs),
(477,167,o),
(498,132,o),
(484,87,cs),
(469,42,o),
(425,14,o),
(384,14,cs),
(334,14,o),
(317,38,o),
(317,119,cs),
(317,128,o),
(314,133,o),
(305,133,cs),
(296,133,o),
(288,127,o),
(285,118,cs),
(259,23,ls),
(256,16,o),
(258,12,o),
(264,8,cs),
(286,-1,o),
(317,-8,o),
(361,-8,cs)
);
}
);
};
layerId = m002;
shapes = (
{
closed = 1;
nodes = (
(400,-8,o),
(454,63,o),
(454,118,cs),
(454,162,o),
(430,196,o),
(378,235,cs),
(320,278,o),
(306,303,o),
(306,326,cs),
(306,420,o),
(543,447,o),
(543,546,cs),
(543,595,o),
(489,629,o),
(406,629,cs),
(282,629,o),
(205,561,o),
(175,477,cs),
(163,445,o),
(138,434,o),
(105,434,cs),
(92,434,o),
(84,431,o),
(84,424,cs),
(84,419,o),
(89,417,o),
(95,416,cs),
(120,413,ls),
(140,411,o),
(147,400,o),
(141,382,cs),
(39,57,ls),
(31,33,o),
(22,23,o),
(-9,25,cs),
(-35,23,ls),
(-44,22,o),
(-49,17,o),
(-50,11,cs),
(-52,4,o),
(-48,0,o),
(-38,0,cs),
(77,0,ls),
(92,0,o),
(102,6,o),
(106,17,cs),
(253,491,ls),
(277,569,o),
(334,603,o),
(400,603,cs),
(447,603,o),
(473,582,o),
(473,546,cs),
(473,431,o),
(247,417,o),
(247,298,cs),
(247,264,o),
(271,230,o),
(324,192,cs),
(367,161,o),
(389,139,o),
(389,96,cs),
(389,42,o),
(355,14,o),
(298,14,cs),
(237,14,o),
(222,46,o),
(221,128,cs),
(221,139,o),
(218,144,o),
(207,144,cs),
(199,144,o),
(192,139,o),
(190,131,cs),
(164,36,ls),
(162,29,o),
(163,25,o),
(170,20,cs),
(204,2,o),
(255,-8,o),
(291,-8,cs)
);
}
);
width = 490;
}
);
metricLeft = f;
unicode = 223;
},
{
glyphname = t;
kernLeft = t;
kernRight = t;
lastChange = "2022-09-01 20:40:20 +0000";
layers = (
{
anchors = (
{
name = bottom;
pos = (98,0);
},
{
name = center;
pos = (136,255);
},
{
name = top;
pos = (195,510);
},
{
name = topright;
pos = (298,760);
}
);
background = {
shapes = (
{
closed = 1;
nodes = (
(172,-8,o),
(235,24,o),
(277,158,c),
(252,158,l),
(220,66,o),
(186,41,o),
(151,41,cs),
(125,41,o),
(115,56,o),
(123,81,cs),
(270,552,l),
(197,552,l),
(52,89,ls),
(30,21,o),
(66,-8,o),
(117,-8,cs)
);
},
{
closed = 1;
nodes = (
(332,410,l),
(340,434,l),
(79,434,l),
(71,410,l)
);
}
);
};
guides = (
{
pos = (15,186);
}
);
layerId = m002;
shapes = (
{
closed = 1;
nodes = (
(168,-8,o),
(224,19,o),
(269,134,cs),
(276,152,o),
(273,158,o),
(262,158,cs),
(255,158,o),
(251,155,o),
(247,147,cs),
(213,64,o),
(185,41,o),
(151,41,cs),
(125,41,o),
(115,56,o),
(123,81,cs),
(220,392,ls),
(223,404,o),
(235,410,o),
(251,410,cs),
(313,410,ls),
(329,410,o),
(337,415,o),
(337,422,cs),
(337,429,o),
(332,434,o),
(317,434,cs),
(252,434,ls),
(241,434,o),
(236,439,o),
(238,446,cs),
(267,541,ls),
(269,548,o),
(264,552,o),
(254,552,cs),
(207,552,ls),
(198,552,o),
(193,549,o),
(191,542,cs),
(163,451,ls),
(160,439,o),
(148,434,o),
(132,434,cs),
(91,434,ls),
(80,434,o),
(71,428,o),
(71,421,cs),
(71,415,o),
(77,410,o),
(87,410,cs),
(131,410,ls),
(141,410,o),
(147,405,o),
(145,397,cs),
(49,89,ls),
(29,21,o),
(66,-8,o),
(117,-8,cs)
);
}
);
width = 313;
}
);
unicode = 116;
},
{
glyphname = u;
kernLeft = u;
kernRight = u;
lastChange = "2022-09-01 20:40:25 +0000";
layers = (
{
anchors = (
{
name = bottom;
pos = (195,0);
},
{
name = ogonek;
pos = (378,0);
},
{
name = top;
pos = (293,510);
},
{
name = topright;
pos = (554,450);
}
);
background = {
shapes = (
{
closed = 1;
nodes = (
(194,-8,o),
(264,43,o),
(329,135,cs),
(370,195,l),
(376,195,l),
(340,82,ls),
(322,22,o),
(340,-8,o),
(396,-8,cs),
(458,-8,o),
(518,48,o),
(559,144,cs),
(564,153,o),
(559,160,o),
(550,160,cs),
(543,160,o),
(537,156,o),
(534,149,cs),
(498,76,o),
(465,41,o),
(432,41,cs),
(411,41,o),
(404,54,o),
(413,81,cs),
(516,411,ls),
(521,424,o),
(512,434,o),
(492,434,cs),
(474,434,ls),
(458,434,o),
(447,428,o),
(444,416,cs),
(385,232,o),
(238,29,o),
(163,29,cs),
(139,29,o),
(133,48,o),
(148,88,cs),
(240,334,ls),
(264,399,o),
(245,439,o),
(190,439,cs),
(121,439,o),
(61,385,o),
(25,290,cs),
(22,280,o),
(25,273,o),
(36,273,cs),
(44,273,o),
(48,276,o),
(51,282,cs),
(77,352,o),
(115,394,o),
(151,394,cs),
(172,394,o),
(178,375,o),
(167,343,cs),
(76,96,ls),
(53,34,o),
(76,-8,o),
(132,-8,cs)
);
}
);
};
layerId = m002;
shapes = (
{
closed = 1;
nodes = (
(194,-8,o),
(270,42,o),
(359,178,cs),
(363,185,o),
(373,184,o),
(370,176,cs),
(340,82,ls),
(322,22,o),
(340,-8,o),
(396,-8,cs),
(458,-8,o),
(518,48,o),
(559,144,cs),
(564,153,o),
(559,160,o),
(550,160,cs),
(543,160,o),
(537,156,o),
(534,149,cs),
(498,76,o),
(465,41,o),
(432,41,cs),
(411,41,o),
(405,54,o),
(413,81,cs),
(521,422,ls),
(523,430,o),
(519,434,o),
(508,434,cs),
(462,434,ls),
(453,434,o),
(448,431,o),
(446,424,cs),
(390,241,o),
(238,29,o),
(163,29,cs),
(139,29,o),
(133,48,o),
(148,88,cs),
(240,334,ls),
(264,399,o),
(245,439,o),
(190,439,cs),
(121,439,o),
(61,385,o),
(25,290,cs),
(22,280,o),
(25,273,o),
(36,273,cs),
(44,273,o),
(48,276,o),
(51,282,cs),
(77,352,o),
(115,394,o),
(151,394,cs),
(172,394,o),
(178,375,o),
(167,343,cs),
(76,96,ls),
(53,34,o),
(76,-8,o),
(132,-8,cs)
);
}
);
width = 584;
}
);
unicode = 117;
},
{
glyphname = v;
lastChange = "2022-09-01 20:40:32 +0000";
layers = (
{
background = {
shapes = (
{
closed = 1;
nodes = (
(325,-8,o),
(481,176,o),
(481,348,cs),
(481,408,o),
(462,439,o),
(425,439,cs),
(401,439,o),
(386,426,o),
(386,405,cs),
(386,371,o),
(429,354,o),
(429,282,cs),
(429,164,o),
(301,22,o),
(195,22,cs),
(151,22,o),
(135,48,o),
(152,96,cs),
(243,349,ls),
(262,405,o),
(243,439,o),
(191,439,cs),
(123,439,o),
(63,381,o),
(20,273,c),
(47,273,l),
(86,355,o),
(117,390,o),
(151,390,cs),
(171,390,o),
(178,376,o),
(169,350,cs),
(80,105,ls),
(57,39,o),
(98,-8,o),
(179,-8,c)
);
}
);
};
layerId = m002;
shapes = (
{
closed = 1;
nodes = (
(308,-8,o),
(458,176,o),
(458,348,cs),
(458,408,o),
(439,439,o),
(402,439,cs),
(378,439,o),
(363,426,o),
(363,405,cs),
(363,371,o),
(406,354,o),
(406,282,cs),
(406,164,o),
(278,22,o),
(190,22,cs),
(151,22,o),
(135,48,o),
(152,96,cs),
(243,349,ls),
(262,405,o),
(243,439,o),
(191,439,cs),
(125,439,o),
(68,386,o),
(24,285,cs),
(21,276,o),
(26,271,o),
(34,271,cs),
(43,271,o),
(47,275,o),
(51,281,cs),
(87,358,o),
(117,390,o),
(150,390,cs),
(170,390,o),
(177,376,o),
(168,350,cs),
(79,105,ls),
(56,39,o),
(98,-8,o),
(174,-8,cs)
);
}
);
width = 474;
}
);
unicode = 118;
},
{
glyphname = w;
kernLeft = w;
kernRight = w;
lastChange = "2022-09-01 20:49:11 +0000";
layers = (
{
anchors = (
{
name = bottom;
pos = (246,0);
},
{
name = top;
pos = (396,510);
}
);
background = {
shapes = (
{
closed = 1;
nodes = (
(225,-8,o),
(286,38,o),
(335,117,c),
(346,117,l),
(436,415,l),
(419,416,l),
(347,147,o),
(248,22,o),
(172,22,cs),
(147,22,o),
(132,39,o),
(146,78,cs),
(243,349,ls),
(262,405,o),
(243,439,o),
(191,439,cs),
(125,439,o),
(68,386,o),
(24,285,cs),
(21,276,o),
(26,271,o),
(34,271,cs),
(43,271,o),
(47,275,o),
(51,281,cs),
(87,358,o),
(117,390,o),
(150,390,cs),
(170,390,o),
(177,376,o),
(168,350,cs),
(76,94,ls),
(54,31,o),
(94,-8,o),
(160,-8,cs)
);
},
{
closed = 1;
nodes = (
(558,-8,o),
(681,176,o),
(681,348,cs),
(681,408,o),
(674,439,o),
(637,439,cs),
(613,439,o),
(598,426,o),
(598,405,cs),
(598,371,o),
(629,354,o),
(629,282,cs),
(629,164,o),
(526,22,o),
(436,22,cs),
(406,22,o),
(392,41,o),
(402,78,cs),
(491,411,ls),
(494,424,o),
(486,434,o),
(467,434,cs),
(448,434,ls),
(432,434,o),
(422,428,o),
(419,416,cs),
(332,94,ls),
(316,31,o),
(354,-8,o),
(421,-8,cs)
);
}
);
};
guides = (
{
angle = 78.8592;
pos = (389,288);
},
{
angle = 78.6901;
pos = (331,325);
}
);
layerId = m002;
shapes = (
{
closed = 1;
nodes = (
(227,-8,o),
(278,42,o),
(322,106,cs),
(327,113,o),
(336,111,o),
(334,104,cs),
(314,31,o),
(354,-8,o),
(421,-8,cs),
(558,-8,o),
(681,176,o),
(681,348,cs),
(681,408,o),
(674,439,o),
(637,439,cs),
(613,439,o),
(598,426,o),
(598,405,cs),
(598,371,o),
(629,354,o),
(629,282,cs),
(629,164,o),
(526,22,o),
(436,22,cs),
(406,22,o),
(392,41,o),
(402,78,cs),
(494,422,ls),
(497,430,o),
(492,434,o),
(482,434,cs),
(437,434,ls),
(428,434,o),
(423,431,o),
(421,424,c),
(350,161,o),
(247,22,o),
(172,22,cs),
(147,22,o),
(132,39,o),
(146,78,cs),
(243,349,ls),
(262,405,o),
(243,439,o),
(191,439,cs),
(125,439,o),
(68,386,o),
(24,285,cs),
(21,276,o),
(26,271,o),
(34,271,cs),
(43,271,o),
(47,275,o),
(51,281,cs),
(87,358,o),
(117,390,o),
(150,390,cs),
(170,390,o),
(177,376,o),
(168,350,cs),
(76,94,ls),
(54,31,o),
(94,-8,o),
(158,-8,cs)
);
}
);
width = 700;
}
);
unicode = 119;
},
{
glyphname = x;
lastChange = "2022-09-01 20:49:22 +0000";
layers = (
{
background = {
shapes = (
{
closed = 1;
nodes = (
(377,-8,o),
(442,27,o),
(462,144,cs),
(463,153,o),
(460,159,o),
(451,159,cs),
(444,159,o),
(437,156,o),
(435,148,cs),
(415,64,o),
(381,37,o),
(352,37,cs),
(329,37,o),
(315,50,o),
(312,85,cs),
(288,358,ls),
(282,416,o),
(255,439,o),
(208,439,cs),
(160,439,o),
(92,403,o),
(64,286,cs),
(62,277,o),
(68,271,o),
(77,271,cs),
(84,271,o),
(90,275,o),
(92,282,cs),
(112,366,o),
(145,390,o),
(178,390,cs),
(197,390,o),
(209,379,o),
(212,350,cs),
(237,81,ls),
(243,16,o),
(273,-8,o),
(330,-8,cs)
);
},
{
closed = 1;
nodes = (
(225,228,l),
(182,120,o),
(130,39,o),
(90,39,cs),
(56,39,o),
(70,84,o),
(21,84,cs),
(-8,99,o),
(-24,77,o),
(-24,46,cs),
(-24,13,o),
(-4,-10,o),
(38,-8,cs),
(100,-8,o),
(152,31,o),
(197,108,cs),
(224,157,l),
(238,157,l)
);
},
{
closed = 1;
nodes = (
(297,222,l),
(317,310,o),
(377,391,o),
(417,391,cs),
(448,391,o),
(435,346,o),
(484,346,cs),
(514,346,o),
(532,365,o),
(532,391,cs),
(532,419,o),
(509,439,o),
(467,439,cs),
(405,439,o),
(355,401,o),
(308,322,cs),
(298,304,l),
(285,304,l)
);
}
);
};
layerId = m002;
shapes = (
{
closed = 1;
nodes = (
(100,-8,o),
(153,31,o),
(197,108,cs),
(217,145,ls),
(222,152,o),
(230,152,o),
(231,144,cs),
(237,81,ls),
(243,16,o),
(273,-8,o),
(330,-8,cs),
(377,-8,o),
(442,27,o),
(462,144,cs),
(463,153,o),
(460,159,o),
(451,159,cs),
(444,159,o),
(437,156,o),
(435,148,cs),
(415,64,o),
(381,37,o),
(352,37,cs),
(329,37,o),
(315,50,o),
(312,85,cs),
(301,209,ls),
(300,224,o),
(300,235,o),
(305,252,cs),
(330,327,o),
(382,391,o),
(417,391,cs),
(448,391,o),
(435,346,o),
(484,346,cs),
(514,346,o),
(532,365,o),
(532,391,cs),
(532,419,o),
(509,439,o),
(467,439,cs),
(409,439,o),
(361,406,o),
(306,317,cs),
(301,310,o),
(292,311,o),
(291,318,cs),
(288,358,ls),
(283,416,o),
(255,439,o),
(208,439,cs),
(160,439,o),
(92,403,o),
(64,286,cs),
(62,277,o),
(68,271,o),
(77,271,cs),
(84,271,o),
(90,275,o),
(92,282,cs),
(112,366,o),
(145,390,o),
(178,390,cs),
(197,390,o),
(209,379,o),
(212,350,cs),
(221,245,ls),
(222,229,o),
(221,218,o),
(214,202,cs),
(174,107,o),
(128,39,o),
(90,39,cs),
(56,39,o),
(70,84,o),
(21,84,cs),
(-8,99,o),
(-24,77,o),
(-24,46,cs),
(-24,13,o),
(-4,-10,o),
(38,-8,cs)
);
}
);
width = 518;
}
);
unicode = 120;
},
{
glyphname = y;
kernLeft = y;
kernRight = y;
lastChange = "2022-09-01 20:21:06 +0000";
layers = (
{
anchors = (
{
name = bottom;
pos = (149,0);
},
{
name = top;
pos = (267,510);
}
);
background = {
shapes = (
{
closed = 1;
nodes = (
(166,-183,o),
(469,150,o),
(469,348,cs),
(469,408,o),
(451,439,o),
(414,439,cs),
(390,439,o),
(375,426,o),
(375,405,cs),
(375,371,o),
(417,354,o),
(417,282,cs),
(417,204,o),
(343,100,o),
(264,20,c),
(259,20,l),
(241,358,ls),
(238,416,o),
(209,439,o),
(162,439,cs),
(114,439,o),
(46,403,o),
(18,286,cs),
(16,277,o),
(22,271,o),
(31,271,cs),
(38,271,o),
(44,275,o),
(46,282,cs),
(66,366,o),
(99,390,o),
(132,390,cs),
(151,390,o),
(164,379,o),
(166,350,cs),
(183,45,ls),
(189,-65,o),
(93,-147,o),
(8,-147,cs),
(-45,-173,o),
(-21,-106,o),
(-72,-106,cs),
(-90,-106,o),
(-107,-120,o),
(-107,-148,cs),
(-107,-186,o),
(-78,-215,o),
(-27,-215,cs)
);
}
);
};
layerId = m002;
shapes = (
{
closed = 1;
nodes = (
(166,-183,o),
(469,150,o),
(469,348,cs),
(469,408,o),
(451,439,o),
(414,439,cs),
(390,439,o),
(375,426,o),
(375,405,cs),
(375,371,o),
(417,354,o),
(417,282,cs),
(417,208,o),
(352,111,o),
(273,28,cs),
(266,21,o),
(258,23,o),
(258,31,cs),
(241,358,ls),
(238,416,o),
(209,439,o),
(162,439,cs),
(114,439,o),
(46,403,o),
(18,286,cs),
(16,277,o),
(22,271,o),
(31,271,cs),
(38,271,o),
(44,275,o),
(46,282,cs),
(66,366,o),
(99,390,o),
(132,390,cs),
(151,390,o),
(164,379,o),
(166,350,cs),
(183,45,ls),
(189,-65,o),
(93,-147,o),
(8,-147,cs),
(-45,-173,o),
(-21,-106,o),
(-72,-106,cs),
(-90,-106,o),
(-107,-120,o),
(-107,-148,cs),
(-107,-186,o),
(-78,-215,o),
(-27,-215,cs)
);
}
);
width = 481;
}
);
metricRight = v;
unicode = 121;
},
{
glyphname = z;
kernLeft = z;
kernRight = z;
lastChange = "2022-09-01 20:49:33 +0000";
layers = (
{
anchors = (
{
name = bottom;
pos = (139,0);
},
{
name = center;
pos = (198,255);
},
{
name = top;
pos = (257,510);
}
);
background = {
shapes = (
{
closed = 1;
nodes = (
(26,-8,o),
(66,27,o),
(79,56,c),
(369,341,ls),
(422,393,o),
(462,401,o),
(462,425,cs),
(462,434,o),
(455,439,o),
(444,439,cs),
(417,439,o),
(381,403,o),
(368,373,c),
(53,65,l),
(13,48,o),
(-13,31,o),
(-13,6,cs),
(-13,-3,o),
(-9,-9,o),
(0,-8,cs)
);
},
{
closed = 1;
nodes = (
(376,158,o),
(370,155,o),
(370,147,cs),
(370,79,o),
(350,51,o),
(305,51,cs),
(262,51,o),
(199,81,o),
(150,81,cs),
(123,81,o),
(110,76,o),
(99,68,c),
(80,68,l),
(66,48,l),
(72,48,o),
(83,49,o),
(90,49,cs),
(163,49,o),
(205,-8,o),
(273,-8,cs),
(332,-8,o),
(398,28,o),
(398,143,cs),
(398,152,o),
(393,158,o),
(384,158,cs)
);
},
{
closed = 1;
nodes = (
(71,271,o),
(77,275,o),
(77,282,cs),
(77,350,o),
(98,380,o),
(143,380,cs),
(185,380,o),
(233,345,o),
(298,345,cs),
(319,345,o),
(334,350,o),
(345,358,c),
(363,358,l),
(378,378,l),
(371,377,o),
(361,377,o),
(354,377,cs),
(281,377,o),
(243,439,o),
(175,439,cs),
(115,439,o),
(49,403,o),
(49,286,cs),
(49,277,o),
(54,271,o),
(63,271,cs)
);
}
);
};
guides = (
{
pos = (29,319);
},
{
pos = (29,186);
}
);
layerId = m002;
shapes = (
{
closed = 1;
nodes = (
(21,-8,o),
(51,12,o),
(66,36,cs),
(72,45,o),
(84,49,o),
(102,49,cs),
(156,50,o),
(190,-8,o),
(273,-8,cs),
(332,-8,o),
(398,28,o),
(398,143,cs),
(398,152,o),
(393,158,o),
(384,158,cs),
(376,158,o),
(370,155,o),
(370,147,cs),
(370,79,o),
(350,51,o),
(305,51,cs),
(262,51,o),
(199,81,o),
(150,81,cs),
(136,81,o),
(126,79,o),
(118,76,cs),
(107,73,o),
(102,78,o),
(108,84,cs),
(369,341,ls),
(422,393,o),
(462,401,o),
(462,425,cs),
(462,434,o),
(455,439,o),
(444,439,cs),
(421,439,o),
(391,412,o),
(375,387,cs),
(371,380,o),
(367,377,o),
(356,377,cs),
(275,376,o),
(264,439,o),
(175,439,cs),
(115,439,o),
(49,403,o),
(49,286,cs),
(49,277,o),
(54,271,o),
(63,271,cs),
(71,271,o),
(77,275,o),
(77,282,cs),
(77,350,o),
(98,380,o),
(143,380,cs),
(185,380,o),
(233,345,o),
(294,345,cs),
(305,345,o),
(319,347,o),
(327,349,cs),
(337,353,o),
(343,349,o),
(335,341,cs),
(53,65,l),
(13,48,o),
(-13,31,o),
(-13,6,cs),
(-13,-3,o),
(-9,-9,o),
(0,-8,cs)
);
}
);
width = 443;
}
);
unicode = 122;
},
{
glyphname = a.ss01;
kernLeft = a;
kernRight = a;
lastChange = "2022-08-27 16:36:11 +0000";
layers = (
{
background = {
shapes = (
{
closed = 1;
nodes = (
(162,-8,o),
(222,31,o),
(284,115,cs),
(319,162,l),
(354,162,l),
(424,400,l),
(416,400,l),
(401,425,o),
(373,439,o),
(334,439,cs),
(184,439,o),
(15,258,o),
(15,96,cs),
(15,28,o),
(47,-8,o),
(103,-8,cs)
);
},
{
closed = 1;
nodes = (
(109,36,o),
(93,47,o),
(93,87,cs),
(93,234,o),
(229,417,o),
(330,417,cs),
(361,417,o),
(379,399,o),
(379,366,cs),
(379,270,o),
(223,36,o),
(131,36,cs)
);
},
{
closed = 1;
nodes = (
(521,150,o),
(519,158,o),
(508,158,cs),
(500,158,o),
(496,155,o),
(493,149,cs),
(465,75,o),
(438,41,o),
(402,41,cs),
(374,41,o),
(368,60,o),
(379,96,cs),
(482,422,ls),
(484,429,o),
(478,434,o),
(470,434,cs),
(461,434,o),
(454,430,o),
(445,422,cs),
(389,368,l),
(304,97,ls),
(283,32,o),
(312,-8,o),
(371,-8,cs),
(440,-8,o),
(489,35,o),
(519,141,cs)
);
}
);
};
guides = (
{
angle = -26.565;
pos = (205,61);
showMeasurement = 1;
}
);
layerId = m002;
shapes = (
{
closed = 1;
nodes = (
(161,-8,o),
(222,31,o),
(307,146,cs),
(312,153,o),
(321,151,o),
(319,144,cs),
(304,97,ls),
(283,32,o),
(312,-8,o),
(371,-8,cs),
(440,-8,o),
(489,35,o),
(519,141,cs),
(521,150,o),
(519,158,o),
(508,158,cs),
(500,158,o),
(496,155,o),
(493,149,cs),
(465,75,o),
(438,41,o),
(402,41,cs),
(374,41,o),
(368,60,o),
(379,96,cs),
(482,422,ls),
(484,429,o),
(478,434,o),
(470,434,cs),
(461,434,o),
(452,430,o),
(435,412,cs),
(430,407,o),
(427,405,o),
(421,405,cs),
(415,405,o),
(412,407,o),
(407,412,cs),
(390,430,o),
(362,439,o),
(334,439,cs),
(184,439,o),
(15,258,o),
(15,96,cs),
(15,28,o),
(47,-8,o),
(102,-8,cs)
);
},
{
closed = 1;
nodes = (
(107,36,o),
(93,47,o),
(93,87,cs),
(93,234,o),
(229,417,o),
(330,417,cs),
(361,417,o),
(379,399,o),
(379,366,cs),
(379,270,o),
(223,36,o),
(131,36,cs)
);
}
);
width = 545;
}
);
},
{
glyphname = c.ss01;
kernLeft = o;
kernRight = c;
lastChange = "2022-08-27 16:33:08 +0000";
layers = (
{
anchors = (
{
name = bottom;
pos = (131,0);
},
{
name = top;
pos = (265,510);
}
);
background = {
shapes = (
{
closed = 1;
nodes = (
(254,-8,o),
(338,60,o),
(362,152,cs),
(367,167,o),
(366,171,o),
(356,171,cs),
(348,171,o),
(343,168,o),
(340,162,cs),
(299,76,o),
(252,37,o),
(192,37,cs),
(130,37,o),
(98,74,o),
(98,144,cs),
(98,275,o),
(200,417,o),
(294,417,cs),
(334,417,o),
(345,398,o),
(345,326,cs),
(345,292,ls),
(345,283,o),
(350,280,o),
(359,280,cs),
(366,280,o),
(370,283,o),
(373,291,cs),
(404,402,ls),
(406,411,o),
(405,412,o),
(398,416,cs),
(371,432,o),
(344,439,o),
(305,439,cs),
(166,439,o),
(17,282,o),
(17,130,cs),
(17,49,o),
(78,-8,o),
(163,-8,cs)
);
}
);
};
guides = (
{
angle = 78.25;
pos = (337,405);
}
);
layerId = m002;
shapes = (
{
closed = 1;
nodes = (
(254,-8,o),
(338,60,o),
(362,152,cs),
(367,167,o),
(366,171,o),
(356,171,cs),
(348,171,o),
(343,168,o),
(340,162,cs),
(299,76,o),
(252,37,o),
(192,37,cs),
(130,37,o),
(98,74,o),
(98,144,cs),
(98,275,o),
(199,415,o),
(286,415,cs),
(317,415,o),
(332,404,o),
(337,352,cs),
(343,292,ls),
(344,283,o),
(348,279,o),
(358,279,cs),
(365,279,o),
(370,283,o),
(373,291,cs),
(404,402,ls),
(406,411,o),
(405,412,o),
(398,416,cs),
(371,432,o),
(344,439,o),
(305,439,cs),
(166,439,o),
(17,282,o),
(17,130,cs),
(17,49,o),
(78,-8,o),
(163,-8,cs)
);
}
);
width = 404;
}
);
},
{
glyphname = d.ss01;
kernLeft = o;
kernRight = d;
lastChange = "2022-08-27 16:36:33 +0000";
layers = (
{
background = {
shapes = (
{
closed = 1;
nodes = (
(162,-8,o),
(222,31,o),
(284,115,cs),
(313,154,l),
(348,154,l),
(424,400,l),
(416,400,l),
(401,425,o),
(373,439,o),
(334,439,cs),
(184,439,o),
(15,258,o),
(15,96,cs),
(15,28,o),
(47,-8,o),
(103,-8,cs)
);
},
{
closed = 1;
nodes = (
(109,36,o),
(93,47,o),
(93,87,cs),
(93,234,o),
(229,417,o),
(330,417,cs),
(361,417,o),
(379,399,o),
(379,366,cs),
(379,270,o),
(223,36,o),
(131,36,cs)
);
},
{
closed = 1;
nodes = (
(300,97,ls),
(279,32,o),
(308,-8,o),
(368,-8,cs),
(437,-8,o),
(489,35,o),
(519,141,cs),
(521,150,o),
(519,158,o),
(508,158,cs),
(500,158,o),
(496,155,o),
(493,149,cs),
(465,75,o),
(438,41,o),
(402,41,cs),
(374,41,o),
(368,60,o),
(379,96,cs),
(543,619,ls),
(545,627,o),
(540,632,o),
(532,632,cs),
(526,632,o),
(521,630,o),
(515,626,cs),
(489,610,o),
(445,602,o),
(390,595,cs),
(381,594,o),
(375,591,o),
(374,586,cs),
(373,580,o),
(377,575,o),
(389,575,cs),
(423,572,ls),
(445,570,o),
(451,564,o),
(444,544,cs)
);
}
);
};
layerId = m002;
shapes = (
{
closed = 1;
nodes = (
(162,-8,o),
(228,32,o),
(301,139,cs),
(306,145,o),
(315,144,o),
(313,136,cs),
(300,97,ls),
(279,32,o),
(308,-8,o),
(368,-8,cs),
(437,-8,o),
(489,35,o),
(519,141,cs),
(521,150,o),
(519,158,o),
(508,158,cs),
(500,158,o),
(496,155,o),
(493,149,cs),
(465,75,o),
(438,41,o),
(402,41,cs),
(374,41,o),
(368,60,o),
(379,96,cs),
(543,619,ls),
(545,627,o),
(540,632,o),
(532,632,cs),
(526,632,o),
(521,630,o),
(515,626,cs),
(489,610,o),
(445,602,o),
(390,595,cs),
(381,594,o),
(375,591,o),
(374,586,cs),
(373,580,o),
(377,575,o),
(389,575,cs),
(423,572,ls),
(445,570,o),
(451,564,o),
(444,544,cs),
(407,432,ls),
(405,423,o),
(398,422,o),
(388,427,cs),
(373,434,o),
(355,439,o),
(334,439,cs),
(184,439,o),
(15,258,o),
(15,96,cs),
(15,28,o),
(47,-8,o),
(103,-8,cs)
);
},
{
closed = 1;
nodes = (
(109,36,o),
(93,47,o),
(93,87,cs),
(93,234,o),
(229,417,o),
(330,417,cs),
(361,417,o),
(379,399,o),
(379,366,cs),
(379,270,o),
(223,36,o),
(131,36,cs)
);
}
);
width = 545;
}
);
},
{
glyphname = dcroat.ss01;
kernLeft = o;
kernRight = d;
lastChange = "2022-08-27 16:34:48 +0000";
layers = (
{
layerId = m002;
shapes = (
{
ref = d;
},
{
closed = 1;
nodes = (
(568,491,ls),
(575,491,o),
(581,495,o),
(583,500,cs),
(585,507,ls),
(586,512,o),
(583,515,o),
(576,515,cs),
(260,515,ls),
(253,515,o),
(247,512,o),
(246,507,cs),
(244,500,ls),
(241,495,o),
(245,491,o),
(252,491,cs)
);
}
);
width = 545;
}
);
},
{
glyphname = e.ss01;
kernLeft = o;
kernRight = e;
lastChange = "2022-08-27 16:36:41 +0000";
layers = (
{
background = {
shapes = (
{
closed = 1;
nodes = (
(231,-8,o),
(302,43,o),
(352,144,cs),
(355,151,o),
(353,158,o),
(344,158,cs),
(337,158,o),
(332,156,o),
(330,150,cs),
(293,77,o),
(235,37,o),
(177,37,cs),
(125,37,o),
(93,70,o),
(93,134,cs),
(93,266,o),
(216,417,o),
(301,417,cs),
(328,417,o),
(339,405,o),
(339,382,cs),
(339,306,o),
(251,215,o),
(86,196,c),
(86,175,l),
(279,198,o),
(411,286,o),
(411,368,cs),
(411,411,o),
(381,439,o),
(309,439,cs),
(176,439,o),
(14,278,o),
(14,128,cs),
(14,41,o),
(67,-8,o),
(148,-8,cs)
);
}
);
};
layerId = m002;
shapes = (
{
closed = 1;
nodes = (
(231,-8,o),
(302,43,o),
(352,144,cs),
(355,151,o),
(353,158,o),
(344,158,cs),
(337,158,o),
(332,156,o),
(330,150,cs),
(293,77,o),
(235,37,o),
(177,37,cs),
(125,37,o),
(93,70,o),
(93,134,cs),
(93,142,o),
(93,150,o),
(94,159,cs),
(95,171,o),
(105,178,o),
(121,180,cs),
(294,209,o),
(411,291,o),
(411,368,cs),
(411,411,o),
(381,439,o),
(309,439,cs),
(176,439,o),
(14,278,o),
(14,128,cs),
(14,41,o),
(67,-8,o),
(148,-8,cs)
);
},
{
closed = 1;
nodes = (
(140,320,o),
(233,417,o),
(301,417,cs),
(328,417,o),
(339,405,o),
(339,382,cs),
(339,312,o),
(264,229,o),
(122,201,cs),
(110,198,o),
(102,204,o),
(106,212,cs)
);
}
);
width = 400;
}
);
},
{
glyphname = g.ss01;
kernLeft = g;
kernRight = g;
lastChange = "2022-08-27 16:37:06 +0000";
layers = (
{
background = {
shapes = (
{
closed = 1;
nodes = (
(248,-184,o),
(370,-133,o),
(370,-48,cs),
(370,-3,o),
(338,34,o),
(236,60,cs),
(148,82,o),
(139,88,o),
(139,100,cs),
(139,110,o),
(153,121,o),
(222,146,cs),
(288,170,ls),
(366,199,o),
(429,262,o),
(429,331,cs),
(429,361,o),
(417,387,o),
(397,405,c),
(397,410,l),
(494,410,ls),
(508,410,o),
(518,414,o),
(518,422,cs),
(518,429,o),
(512,434,o),
(498,434,cs),
(365,434,ls),
(336,434,o),
(322,439,o),
(294,439,cs),
(181,439,o),
(75,355,o),
(75,264,cs),
(75,207,o),
(118,166,o),
(185,158,c),
(185,155,l),
(139,137,ls),
(85,116,o),
(66,100,o),
(66,76,cs),
(66,62,o),
(72,51,o),
(103,38,c),
(103,34,l),
(67,22,ls),
(-29,-12,o),
(-68,-59,o),
(-68,-111,cs),
(-68,-172,o),
(-13,-216,o),
(107,-184,cs)
);
},
{
closed = 1;
nodes = (
(30,-162,o),
(-6,-151,o),
(-6,-98,cs),
(-6,-56,o),
(14,-10,o),
(143,25,c),
(199,9,ls),
(269,-9,o),
(292,-31,o),
(292,-65,cs),
(292,-130,o),
(208,-162,o),
(120,-162,cs)
);
},
{
closed = 1;
nodes = (
(174,175,o),
(152,200,o),
(152,249,cs),
(152,335,o),
(218,421,o),
(291,421,cs),
(330,421,o),
(351,395,o),
(351,347,cs),
(351,261,o),
(284,175,o),
(212,175,cs)
);
}
);
};
layerId = m002;
shapes = (
{
closed = 1;
nodes = (
(248,-184,o),
(370,-133,o),
(370,-51,cs),
(370,-7,o),
(342,26,o),
(256,48,cs),
(158,76,ls),
(108,89,o),
(99,106,o),
(122,116,cs),
(168,137,ls),
(201,152,o),
(220,157,o),
(247,162,cs),
(352,178,o),
(429,252,o),
(429,332,cs),
(429,353,o),
(424,371,o),
(413,389,cs),
(409,394,o),
(412,398,o),
(421,400,cs),
(490,411,ls),
(500,412,o),
(508,416,o),
(508,423,cs),
(508,429,o),
(503,434,o),
(491,434,cs),
(392,434,ls),
(342,434,o),
(334,439,o),
(301,439,cs),
(175,439,o),
(75,355,o),
(75,264,cs),
(75,224,o),
(95,189,o),
(137,171,cs),
(153,164,o),
(152,155,o),
(137,149,cs),
(49,111,ls),
(22,99,o),
(30,67,o),
(74,47,cs),
(90,39,o),
(86,30,o),
(70,23,cs),
(-38,-30,o),
(-68,-72,o),
(-68,-118,cs),
(-68,-172,o),
(-13,-216,o),
(107,-184,cs)
);
},
{
closed = 1;
nodes = (
(30,-162,o),
(-8,-151,o),
(-8,-101,cs),
(-8,-60,o),
(14,-24,o),
(97,10,cs),
(121,20,o),
(150,22,o),
(177,14,cs),
(199,8,ls),
(273,-12,o),
(292,-34,o),
(292,-71,cs),
(292,-128,o),
(208,-162,o),
(120,-162,cs)
);
},
{
closed = 1;
nodes = (
(174,175,o),
(152,197,o),
(152,249,cs),
(152,335,o),
(218,421,o),
(291,421,cs),
(330,421,o),
(351,403,o),
(351,347,cs),
(351,261,o),
(284,175,o),
(212,175,cs)
);
}
);
width = 461;
}
);
},
{
glyphname = f_b;
kernLeft = f;
kernRight = o;
lastChange = "2023-02-22 10:42:26 +0000";
layers = (
{
anchors = (
{
name = bottom_1;
pos = (110,0);
},
{
name = bottom_2;
pos = (447,0);
},
{
name = caret_1;
pos = (337,0);
},
{
name = top_1;
pos = (281,740);
},
{
name = top_2;
pos = (618,740);
}
);
background = {
shapes = (
{
closed = 1;
nodes = (
(85,0,ls),
(94,0,o),
(99,3,o),
(101,9,cs),
(224,401,ls),
(227,407,o),
(231,410,o),
(239,410,cs),
(316,410,ls),
(327,410,o),
(335,414,o),
(337,422,cs),
(339,428,o),
(332,434,o),
(320,434,cs),
(251,434,ls),
(241,434,o),
(236,437,o),
(238,445,cs),
(261,518,ls),
(283,588,o),
(308,609,o),
(344,609,cs),
(400,609,o),
(354,541,o),
(419,541,cs),
(445,541,o),
(465,558,o),
(465,583,cs),
(465,616,o),
(429,636,o),
(375,636,cs),
(275,636,o),
(198,564,o),
(169,468,cs),
(161,440,o),
(139,434,o),
(92,434,cs),
(80,434,o),
(71,429,o),
(71,422,cs),
(71,415,o),
(77,410,o),
(90,410,cs),
(114,410,ls),
(139,410,o),
(148,400,o),
(141,378,cs),
(25,11,ls),
(23,3,o),
(26,0,o),
(37,0,cs)
);
},
{
closed = 1;
nodes = (
(585,-8,o),
(760,173,o),
(760,335,cs),
(760,403,o),
(724,439,o),
(668,439,cs),
(610,439,o),
(545,401,o),
(461,282,cs),
(457,275,o),
(447,277,o),
(450,285,cs),
(554,619,ls),
(557,627,o),
(552,632,o),
(544,632,cs),
(537,632,o),
(532,630,o),
(527,626,cs),
(500,610,o),
(457,602,o),
(401,595,cs),
(392,594,o),
(386,591,o),
(385,586,cs),
(384,580,o),
(389,575,o),
(400,575,cs),
(435,572,ls),
(457,570,o),
(462,564,o),
(455,544,cs),
(327,135,ls),
(297,40,o),
(358,-8,o),
(436,-8,cs)
);
},
{
closed = 1;
nodes = (
(408,14,o),
(390,32,o),
(390,65,cs),
(390,176,o),
(554,394,o),
(638,394,cs),
(669,394,o),
(680,378,o),
(680,336,cs),
(680,197,o),
(540,14,o),
(439,14,cs)
);
}
);
};
layerId = m002;
shapes = (
{
closed = 1;
nodes = (
(585,-8,o),
(760,173,o),
(760,335,cs),
(760,403,o),
(724,439,o),
(668,439,cs),
(610,439,o),
(545,401,o),
(461,282,cs),
(457,275,o),
(447,277,o),
(450,285,cs),
(554,619,ls),
(557,627,o),
(552,632,o),
(543,632,cs),
(536,632,o),
(531,630,o),
(526,626,cs),
(503,615,ls),
(494,610,o),
(489,611,o),
(483,615,cs),
(463,629,o),
(436,636,o),
(402,636,cs),
(275,636,o),
(198,564,o),
(169,468,cs),
(161,440,o),
(139,434,o),
(92,434,cs),
(80,434,o),
(71,429,o),
(71,422,cs),
(71,415,o),
(77,410,o),
(90,410,cs),
(114,410,ls),
(139,410,o),
(148,400,o),
(141,378,cs),
(25,11,ls),
(23,3,o),
(26,0,o),
(37,0,cs),
(85,0,ls),
(94,0,o),
(99,3,o),
(101,9,cs),
(224,401,ls),
(227,407,o),
(231,410,o),
(239,410,cs),
(316,410,ls),
(327,410,o),
(335,414,o),
(337,422,cs),
(339,428,o),
(332,434,o),
(320,434,cs),
(251,434,ls),
(241,434,o),
(236,437,o),
(238,445,cs),
(256,502,ls),
(283,586,o),
(334,615,o),
(389,615,cs),
(446,615,o),
(467,579,o),
(451,528,cs),
(327,135,ls),
(297,40,o),
(358,-8,o),
(436,-8,cs)
);
},
{
closed = 1;
nodes = (
(408,14,o),
(390,32,o),
(390,65,cs),
(390,176,o),
(554,394,o),
(638,394,cs),
(669,394,o),
(680,378,o),
(680,336,cs),
(680,197,o),
(540,14,o),
(439,14,cs)
);
}
);
width = 775;
}
);
metricLeft = f;
metricRight = b;
},
{
glyphname = f_f_i;
lastChange = "2023-02-22 10:42:26 +0000";
layers = (
{
anchors = (
{
name = caret_1;
pos = (238,0);
},
{
name = caret_2;
pos = (476,0);
}
);
background = {
shapes = (
{
closed = 1;
nodes = (
(351,0,ls),
(360,0,o),
(365,3,o),
(367,9,cs),
(490,401,ls),
(492,407,o),
(497,410,o),
(505,410,cs),
(637,410,ls),
(670,410,o),
(675,395,o),
(666,366,cs),
(575,81,ls),
(554,17,o),
(580,-8,o),
(630,-8,cs),
(680,-8,o),
(746,27,o),
(796,144,cs),
(800,153,o),
(796,159,o),
(787,159,cs),
(780,159,o),
(774,156,o),
(770,148,cs),
(729,64,o),
(697,40,o),
(669,40,cs),
(646,40,o),
(642,55,o),
(650,80,cs),
(737,358,ls),
(754,413,o),
(729,434,o),
(659,434,cs),
(516,434,ls),
(507,434,o),
(501,437,o),
(504,445,cs),
(520,496,ls),
(544,572,o),
(574,611,o),
(639,611,cs),
(736,611,o),
(680,524,o),
(753,524,cs),
(780,524,o),
(799,541,o),
(799,566,cs),
(799,599,o),
(759,636,o),
(668,636,cs),
(540,636,o),
(465,564,o),
(435,468,cs),
(291,11,ls),
(289,3,o),
(292,0,o),
(302,0,cs)
);
},
{
closed = 1;
nodes = (
(480,598,l),
(460,612,o),
(432,619,o),
(399,619,cs),
(271,619,o),
(194,547,o),
(169,468,cs),
(161,440,o),
(139,434,o),
(92,434,cs),
(80,434,o),
(71,429,o),
(71,422,cs),
(71,415,o),
(77,410,o),
(90,410,cs),
(114,410,ls),
(139,410,o),
(148,400,o),
(141,378,cs),
(25,11,ls),
(23,3,o),
(26,0,o),
(37,0,cs),
(85,0,ls),
(94,0,o),
(99,3,o),
(101,9,cs),
(224,401,ls),
(227,407,o),
(231,410,o),
(239,410,cs),
(439,410,ls),
(450,410,o),
(458,414,o),
(460,422,cs),
(462,428,o),
(455,434,o),
(443,434,cs),
(251,434,ls),
(241,434,o),
(236,437,o),
(238,445,cs),
(256,502,ls),
(278,570,o),
(330,598,o),
(385,598,cs),
(443,598,o),
(463,562,o),
(447,511,c)
);
}
);
};
layerId = m002;
shapes = (
{
closed = 1;
nodes = (
(680,-8,o),
(746,27,o),
(796,144,cs),
(800,153,o),
(796,159,o),
(787,159,cs),
(780,159,o),
(774,156,o),
(770,148,cs),
(729,64,o),
(697,40,o),
(669,40,cs),
(646,40,o),
(642,55,o),
(650,80,cs),
(737,358,ls),
(754,413,o),
(729,434,o),
(659,434,cs),
(516,434,ls),
(507,434,o),
(501,437,o),
(504,445,cs),
(520,496,ls),
(544,572,o),
(574,611,o),
(639,611,cs),
(736,611,o),
(680,524,o),
(753,524,cs),
(780,524,o),
(799,541,o),
(799,566,cs),
(799,599,o),
(759,636,o),
(668,636,cs),
(600,636,o),
(547,615,o),
(509,585,cs),
(503,580,o),
(497,580,o),
(491,586,cs),
(470,607,o),
(436,619,o),
(388,619,cs),
(271,619,o),
(194,547,o),
(169,468,cs),
(161,440,o),
(139,434,o),
(92,434,cs),
(80,434,o),
(71,429,o),
(71,422,cs),
(71,415,o),
(77,410,o),
(90,410,cs),
(114,410,ls),
(139,410,o),
(148,400,o),
(141,378,cs),
(25,11,ls),
(23,3,o),
(26,0,o),
(37,0,cs),
(85,0,ls),
(94,0,o),
(99,3,o),
(101,9,cs),
(224,401,ls),
(227,407,o),
(231,410,o),
(239,410,cs),
(400,410,ls),
(409,410,o),
(415,406,o),
(413,399,cs),
(291,11,ls),
(289,3,o),
(292,0,o),
(302,0,cs),
(351,0,ls),
(360,0,o),
(365,3,o),
(367,9,cs),
(490,401,ls),
(492,407,o),
(497,410,o),
(505,410,cs),
(637,410,ls),
(670,410,o),
(675,395,o),
(666,366,cs),
(575,81,ls),
(554,17,o),
(580,-8,o),
(630,-8,cs)
);
},
{
closed = 1;
nodes = (
(241,434,o),
(236,437,o),
(238,445,cs),
(256,502,ls),
(278,570,o),
(330,598,o),
(385,598,cs),
(465,598,o),
(459,541,o),
(440,484,cs),
(427,442,ls),
(424,436,o),
(419,434,o),
(411,434,cs),
(251,434,ls)
);
}
);
width = 821;
}
);
metricLeft = f;
metricRight = i;
},
{
glyphname = f_f_l;
lastChange = "2023-02-22 10:42:26 +0000";
layers = (
{
anchors = (
{
name = caret_1;
pos = (238,0);
},
{
name = caret_2;
pos = (476,0);
}
);
background = {
shapes = (
{
closed = 1;
nodes = (
(491,586,l),
(470,607,o),
(436,619,o),
(388,619,cs),
(271,619,o),
(194,547,o),
(169,468,cs),
(161,440,o),
(139,434,o),
(92,434,cs),
(80,434,o),
(71,429,o),
(71,422,cs),
(71,415,o),
(77,410,o),
(90,410,cs),
(114,410,ls),
(139,410,o),
(148,400,o),
(141,378,cs),
(25,11,ls),
(23,3,o),
(26,0,o),
(37,0,cs),
(85,0,ls),
(94,0,o),
(99,3,o),
(101,9,cs),
(224,401,ls),
(227,407,o),
(231,410,o),
(239,410,cs),
(400,410,ls),
(409,410,o),
(415,406,o),
(413,399,cs),
(291,11,ls),
(289,3,o),
(292,0,o),
(302,0,cs),
(351,0,ls),
(360,0,o),
(365,3,o),
(367,9,cs),
(490,401,ls),
(492,407,o),
(497,410,o),
(505,410,cs),
(582,410,ls),
(592,410,o),
(600,414,o),
(603,422,cs),
(605,428,o),
(598,434,o),
(585,434,cs),
(516,434,ls),
(507,434,o),
(501,437,o),
(504,445,cs),
(522,502,ls),
(549,586,o),
(599,615,o),
(654,615,cs),
(712,615,o),
(733,579,o),
(716,528,cs),
(575,81,ls),
(554,17,o),
(580,-8,o),
(630,-8,cs),
(680,-8,o),
(746,27,o),
(796,144,cs),
(800,153,o),
(796,159,o),
(787,159,cs),
(780,159,o),
(774,156,o),
(770,148,cs),
(729,64,o),
(697,40,o),
(669,40,cs),
(646,40,o),
(642,55,o),
(650,80,cs),
(820,619,ls),
(822,627,o),
(818,632,o),
(810,632,cs),
(803,632,o),
(798,630,o),
(784,623,cs),
(768,615,ls),
(760,610,o),
(754,611,o),
(749,615,cs),
(729,629,o),
(702,636,o),
(668,636,cs),
(540,636,o),
(463,564,o),
(435,468,cs),
(427,442,l),
(424,436,o),
(419,434,o),
(411,434,cs),
(251,434,ls),
(241,434,o),
(236,437,o),
(238,445,cs),
(256,502,ls),
(278,570,o),
(330,598,o),
(385,598,cs),
(465,598,o),
(459,541,o),
(440,484,c)
);
}
);
};
layerId = m002;
shapes = (
{
closed = 1;
nodes = (
(680,-8,o),
(746,27,o),
(796,144,cs),
(800,153,o),
(796,159,o),
(787,159,cs),
(780,159,o),
(774,156,o),
(770,148,cs),
(729,64,o),
(697,40,o),
(669,40,cs),
(646,40,o),
(642,55,o),
(650,80,cs),
(820,619,ls),
(822,627,o),
(818,632,o),
(810,632,cs),
(803,632,o),
(798,630,o),
(784,623,cs),
(768,615,ls),
(760,610,o),
(754,611,o),
(749,615,cs),
(729,629,o),
(702,636,o),
(668,636,cs),
(603,636,o),
(552,617,o),
(513,586,cs),
(506,581,o),
(499,581,o),
(493,586,cs),
(467,608,o),
(435,619,o),
(388,619,cs),
(271,619,o),
(194,547,o),
(169,468,cs),
(161,440,o),
(139,434,o),
(92,434,cs),
(80,434,o),
(71,429,o),
(71,422,cs),
(71,415,o),
(77,410,o),
(90,410,cs),
(114,410,ls),
(139,410,o),
(148,400,o),
(141,378,cs),
(25,11,ls),
(23,3,o),
(26,0,o),
(37,0,cs),
(85,0,ls),
(94,0,o),
(99,3,o),
(101,9,cs),
(224,401,ls),
(227,407,o),
(231,410,o),
(239,410,cs),
(400,410,ls),
(409,410,o),
(415,406,o),
(413,399,cs),
(291,11,ls),
(289,3,o),
(292,0,o),
(302,0,cs),
(351,0,ls),
(360,0,o),
(365,3,o),
(367,9,cs),
(490,401,ls),
(492,407,o),
(497,410,o),
(505,410,cs),
(582,410,ls),
(592,410,o),
(600,414,o),
(603,422,cs),
(605,428,o),
(598,434,o),
(585,434,cs),
(516,434,ls),
(507,434,o),
(501,437,o),
(504,445,cs),
(522,502,ls),
(549,586,o),
(599,615,o),
(654,615,cs),
(712,615,o),
(733,579,o),
(716,528,cs),
(575,81,ls),
(554,17,o),
(580,-8,o),
(630,-8,cs)
);
},
{
closed = 1;
nodes = (
(241,434,o),
(236,437,o),
(238,445,cs),
(256,502,ls),
(278,570,o),
(330,598,o),
(385,598,cs),
(465,598,o),
(459,541,o),
(440,484,cs),
(427,442,ls),
(424,436,o),
(419,434,o),
(411,434,cs),
(251,434,ls)
);
}
);
width = 821;
}
);
metricLeft = f;
metricRight = l;
},
{
glyphname = f_h;
kernLeft = f;
kernRight = n;
lastChange = "2023-02-22 10:42:32 +0000";
layers = (
{
anchors = (
{
name = bottom_1;
pos = (124,0);
},
{
name = bottom_2;
pos = (489,0);
},
{
name = caret_1;
pos = (365.5,0);
},
{
name = top_1;
pos = (295,740);
},
{
name = top_2;
pos = (660,740);
}
);
layerId = m002;
shapes = (
{
closed = 1;
nodes = (
(702,-8,o),
(757,25,o),
(800,141,cs),
(804,150,o),
(802,158,o),
(790,158,cs),
(782,158,o),
(777,155,o),
(775,149,cs),
(742,65,o),
(714,41,o),
(683,41,cs),
(659,41,o),
(647,56,o),
(659,88,cs),
(746,335,ls),
(772,405,o),
(741,439,o),
(684,439,cs),
(624,439,o),
(545,394,o),
(453,255,cs),
(448,248,o),
(439,250,o),
(442,258,cs),
(554,619,ls),
(557,627,o),
(551,632,o),
(543,632,cs),
(536,632,o),
(531,630,o),
(526,626,cs),
(503,615,ls),
(494,610,o),
(489,611,o),
(483,615,cs),
(463,629,o),
(436,636,o),
(402,636,cs),
(275,636,o),
(198,564,o),
(169,468,cs),
(161,440,o),
(139,434,o),
(92,434,cs),
(80,434,o),
(71,429,o),
(71,422,cs),
(71,415,o),
(77,410,o),
(90,410,cs),
(114,410,ls),
(139,410,o),
(148,400,o),
(141,378,cs),
(25,11,ls),
(23,3,o),
(26,0,o),
(37,0,cs),
(85,0,ls),
(94,0,o),
(99,3,o),
(101,9,cs),
(224,401,ls),
(227,407,o),
(231,410,o),
(239,410,cs),
(316,410,ls),
(327,410,o),
(335,414,o),
(337,422,cs),
(339,428,o),
(332,434,o),
(320,434,cs),
(251,434,ls),
(241,434,o),
(236,437,o),
(238,445,cs),
(256,502,ls),
(283,586,o),
(334,615,o),
(389,615,cs),
(446,615,o),
(467,579,o),
(451,528,cs),
(288,11,ls),
(285,3,o),
(290,0,o),
(300,0,cs),
(348,0,ls),
(358,0,o),
(362,3,o),
(365,9,cs),
(419,186,o),
(568,402,o),
(653,402,cs),
(675,402,o),
(690,388,o),
(674,343,cs),
(585,97,ls),
(560,26,o),
(595,-8,o),
(650,-8,cs)
);
}
);
width = 827;
}
);
metricLeft = f;
metricRight = h;
},
{
glyphname = f_i;
kernLeft = f;
kernRight = i;
lastChange = "2023-02-22 10:42:26 +0000";
layers = (
{
anchors = (
{
name = bottom_1;
pos = (62,0);
},
{
name = bottom_2;
pos = (303,0);
},
{
name = caret_1;
pos = (241.5,0);
},
{
name = top_1;
pos = (233,740);
},
{
name = top_2;
pos = (474,740);
}
);
background = {
shapes = (
{
closed = 1;
nodes = (
(85,0,ls),
(94,0,o),
(99,3,o),
(101,9,cs),
(224,401,ls),
(227,407,o),
(231,410,o),
(239,410,cs),
(339,410,ls),
(350,410,o),
(358,414,o),
(360,422,cs),
(362,428,o),
(355,434,o),
(343,434,cs),
(251,434,ls),
(241,434,o),
(236,437,o),
(238,445,cs),
(261,518,ls),
(283,588,o),
(308,609,o),
(344,609,cs),
(400,609,o),
(354,541,o),
(419,541,cs),
(445,541,o),
(465,558,o),
(465,583,cs),
(465,616,o),
(429,636,o),
(375,636,cs),
(275,636,o),
(198,564,o),
(169,468,cs),
(161,440,o),
(139,434,o),
(92,434,cs),
(80,434,o),
(71,429,o),
(71,422,cs),
(71,415,o),
(77,410,o),
(90,410,cs),
(114,410,ls),
(139,410,o),
(148,400,o),
(141,378,cs),
(25,11,ls),
(23,3,o),
(26,0,o),
(37,0,cs)
);
},
{
closed = 1;
nodes = (
(483,-8,o),
(550,27,o),
(599,144,cs),
(604,153,o),
(599,159,o),
(590,159,cs),
(583,159,o),
(577,156,o),
(574,148,cs),
(532,64,o),
(500,40,o),
(473,40,cs),
(450,40,o),
(445,55,o),
(453,80,cs),
(538,349,ls),
(558,413,o),
(534,439,o),
(481,439,cs),
(431,439,o),
(367,403,o),
(317,286,cs),
(313,277,o),
(317,271,o),
(327,271,cs),
(334,271,o),
(339,275,o),
(343,282,cs),
(384,366,o),
(416,390,o),
(444,390,cs),
(467,390,o),
(471,375,o),
(463,350,cs),
(378,81,ls),
(359,17,o),
(383,-8,o),
(434,-8,cs)
);
},
{
closed = 1;
nodes = (
(562,514,o),
(593,534,o),
(593,565,cs),
(593,588,o),
(570,604,o),
(539,604,cs),
(507,604,o),
(477,584,o),
(477,553,cs),
(477,531,o),
(499,514,o),
(528,514,cs)
);
}
);
};
layerId = m002;
shapes = (
{
closed = 1;
nodes = (
(85,0,ls),
(94,0,o),
(99,3,o),
(101,9,cs),
(224,401,ls),
(227,407,o),
(231,410,o),
(239,410,cs),
(371,410,ls),
(405,410,o),
(409,395,o),
(400,366,cs),
(309,81,ls),
(289,17,o),
(314,-8,o),
(365,-8,cs),
(414,-8,o),
(481,27,o),
(530,144,cs),
(535,153,o),
(530,159,o),
(521,159,cs),
(514,159,o),
(508,156,o),
(505,148,cs),
(463,64,o),
(431,40,o),
(404,40,cs),
(381,40,o),
(376,55,o),
(384,80,cs),
(471,358,ls),
(489,413,o),
(463,434,o),
(393,434,cs),
(251,434,ls),
(241,434,o),
(236,437,o),
(238,445,cs),
(254,496,ls),
(278,572,o),
(308,611,o),
(374,611,cs),
(470,611,o),
(414,524,o),
(488,524,cs),
(514,524,o),
(534,541,o),
(534,566,cs),
(534,599,o),
(493,636,o),
(402,636,cs),
(275,636,o),
(198,564,o),
(169,468,cs),
(161,440,o),
(139,434,o),
(92,434,cs),
(80,434,o),
(71,429,o),
(71,422,cs),
(71,415,o),
(77,410,o),
(90,410,cs),
(114,410,ls),
(139,410,o),
(148,400,o),
(141,378,cs),
(25,11,ls),
(23,3,o),
(26,0,o),
(37,0,cs)
);
}
);
width = 555;
}
);
metricLeft = f;
metricRight = i;
},
{
glyphname = f_l;
kernLeft = f;
kernRight = l;
lastChange = "2023-02-22 10:42:32 +0000";
layers = (
{
anchors = (
{
name = bottom_1;
pos = (65,0);
},
{
name = bottom_2;
pos = (312,0);
},
{
name = caret_1;
pos = (247.5,0);
},
{
name = top_1;
pos = (236,740);
},
{
name = top_2;
pos = (483,740);
}
);
layerId = m002;
shapes = (
{
closed = 1;
nodes = (
(414,-8,o),
(481,27,o),
(530,144,cs),
(535,153,o),
(530,159,o),
(521,159,cs),
(514,159,o),
(508,156,o),
(505,148,cs),
(463,64,o),
(431,40,o),
(404,40,cs),
(381,40,o),
(376,55,o),
(384,80,cs),
(554,619,ls),
(557,627,o),
(552,632,o),
(544,632,cs),
(537,632,o),
(532,630,o),
(519,623,cs),
(503,615,ls),
(494,610,o),
(489,611,o),
(483,615,cs),
(463,629,o),
(436,636,o),
(402,636,cs),
(275,636,o),
(198,564,o),
(169,468,cs),
(161,440,o),
(139,434,o),
(92,434,cs),
(80,434,o),
(71,429,o),
(71,422,cs),
(71,415,o),
(77,410,o),
(90,410,cs),
(114,410,ls),
(139,410,o),
(148,400,o),
(141,378,cs),
(25,11,ls),
(23,3,o),
(26,0,o),
(37,0,cs),
(85,0,ls),
(94,0,o),
(99,3,o),
(101,9,cs),
(224,401,ls),
(227,407,o),
(231,410,o),
(239,410,cs),
(316,410,ls),
(327,410,o),
(335,414,o),
(337,422,cs),
(339,428,o),
(332,434,o),
(320,434,cs),
(251,434,ls),
(241,434,o),
(236,437,o),
(238,445,cs),
(256,502,ls),
(283,586,o),
(334,615,o),
(389,615,cs),
(446,615,o),
(467,579,o),
(451,528,cs),
(309,81,ls),
(289,17,o),
(314,-8,o),
(365,-8,cs)
);
}
);
width = 555;
}
);
metricLeft = f;
metricRight = l;
},
{
glyphname = q_j;
lastChange = "2023-02-22 10:42:26 +0000";
layers = (
{
anchors = (
{
name = bottom_1;
pos = (114,0);
},
{
name = bottom_2;
pos = (459,0);
},
{
name = caret_1;
pos = (345.5,0);
},
{
name = top_1;
pos = (232,510);
},
{
name = top_2;
pos = (577,510);
}
);
layerId = m002;
shapes = (
{
closed = 1;
nodes = (
(269,-174,ls),
(285,-174,o),
(297,-168,o),
(300,-156,cs),
(482,422,ls),
(484,429,o),
(478,434,o),
(470,434,cs),
(461,434,o),
(452,430,o),
(435,412,cs),
(430,407,o),
(427,405,o),
(421,405,cs),
(415,405,o),
(412,407,o),
(407,412,cs),
(390,430,o),
(362,439,o),
(334,439,cs),
(184,439,o),
(15,258,o),
(15,96,cs),
(15,28,o),
(47,-8,o),
(103,-8,cs),
(162,-8,o),
(227,28,o),
(306,145,cs),
(310,152,o),
(320,150,o),
(317,143,cs),
(236,-117,ls),
(228,-143,o),
(217,-151,o),
(186,-153,cs),
(158,-155,ls),
(147,-156,o),
(139,-159,o),
(139,-165,cs),
(139,-170,o),
(143,-174,o),
(154,-174,cs)
);
},
{
closed = 1;
nodes = (
(109,36,o),
(93,47,o),
(93,87,cs),
(93,234,o),
(229,417,o),
(330,417,cs),
(361,417,o),
(379,399,o),
(379,366,cs),
(379,270,o),
(223,36,o),
(131,36,cs)
);
},
{
pos = (425,0);
ref = j;
}
);
width = 795;
}
);
metricLeft = q;
metricRight = j;
},
{
glyphname = ordfeminine;
lastChange = "2022-08-18 20:35:28 +0000";
layers = (
{
layerId = m002;
shapes = (
{
closed = 1;
nodes = (
(215,309,o),
(263,336,o),
(332,416,cs),
(336,421,o),
(344,420,o),
(342,414,cs),
(329,382,ls),
(312,337,o),
(336,309,o),
(383,309,cs),
(438,309,o),
(477,338,o),
(501,412,cs),
(504,421,o),
(500,427,o),
(491,427,cs),
(482,427,o),
(478,422,o),
(476,416,cs),
(453,366,o),
(437,343,o),
(408,343,cs),
(385,343,o),
(381,356,o),
(390,381,cs),
(471,609,ls),
(474,615,o),
(469,617,o),
(462,617,cs),
(455,617,o),
(447,615,o),
(434,603,cs),
(430,598,o),
(428,597,o),
(423,597,cs),
(419,597,o),
(415,598,o),
(412,603,cs),
(398,615,o),
(376,620,o),
(353,620,cs),
(233,620,o),
(98,494,o),
(98,381,cs),
(98,333,o),
(124,309,o),
(168,309,cs)
);
},
{
closed = 1;
nodes = (
(171,344,o),
(161,353,o),
(161,380,cs),
(161,484,o),
(269,600,o),
(351,600,cs),
(375,600,o),
(390,586,o),
(390,564,cs),
(390,497,o),
(256,344,o),
(191,344,cs)
);
}
);
width = 480;
}
);
unicode = 170;
},
{
glyphname = ordmasculine;
lastChange = "2022-08-18 20:36:01 +0000";
layers = (
{
layerId = m002;
shapes = (
{
closed = 1;
nodes = (
(351,309,o),
(460,407,o),
(460,509,cs),
(460,577,o),
(413,620,o),
(339,620,cs),
(227,620,o),
(117,522,o),
(117,421,cs),
(117,353,o),
(164,309,o),
(239,309,cs)
);
},
{
closed = 1;
nodes = (
(199,329,o),
(179,354,o),
(179,404,cs),
(179,502,o),
(259,600,o),
(338,600,cs),
(378,600,o),
(398,575,o),
(398,526,cs),
(398,428,o),
(319,329,o),
(239,329,cs)
);
}
);
width = 422;
}
);
metricLeft = O;
metricRight = O;
unicode = 186;
},
{
glyphname = zero;
lastChange = "2022-08-31 19:16:14 +0000";
layers = (
{
background = {
shapes = (
{
closed = 1;
nodes = (
(429,-8,o),
(519,130,o),
(519,307,cs),
(519,483,o),
(429,620,o),
(296,620,cs),
(161,620,o),
(72,483,o),
(72,307,cs),
(72,130,o),
(161,-8,o),
(296,-8,cs)
);
},
{
closed = 1;
nodes = (
(199,15,o),
(155,110,o),
(155,307,cs),
(155,502,o),
(199,598,o),
(296,598,cs),
(392,598,o),
(436,502,o),
(436,307,cs),
(436,110,o),
(392,15,o),
(296,15,cs)
);
}
);
};
layerId = m002;
shapes = (
{
closed = 1;
nodes = (
(394,-8,o),
(531,254,o),
(531,414,cs),
(531,539,o),
(485,620,o),
(374,620,cs),
(193,620,o),
(55,360,o),
(55,199,cs),
(55,74,o),
(100,-8,o),
(213,-8,cs)
);
},
{
closed = 1;
nodes = (
(143,14,o),
(122,72,o),
(122,139,cs),
(122,265,o),
(217,598,o),
(368,598,cs),
(431,598,o),
(465,559,o),
(465,473,cs),
(465,348,o),
(369,14,o),
(218,14,cs)
);
}
);
width = 530;
}
);
unicode = 48;
},
{
glyphname = one;
lastChange = "2022-08-31 19:17:48 +0000";
layers = (
{
background = {
shapes = (
{
closed = 1;
nodes = (
(191,0,ls),
(202,0,o),
(209,3,o),
(212,9,cs),
(213,14,o),
(209,19,o),
(199,20,cs),
(162,23,ls),
(131,26,o),
(124,32,o),
(131,56,cs),
(304,606,ls),
(307,619,o),
(301,625,o),
(285,625,cs),
(267,625,o),
(229,613,o),
(146,603,cs),
(131,601,o),
(125,596,o),
(123,591,cs),
(122,584,o),
(126,579,o),
(140,580,cs),
(183,583,ls),
(207,585,o),
(222,581,o),
(215,561,cs),
(57,56,ls),
(51,32,o),
(39,26,o),
(6,23,cs),
(-35,23,ls),
(-44,22,o),
(-49,17,o),
(-50,11,cs),
(-52,4,o),
(-48,0,o),
(-38,0,cs)
);
}
);
};
layerId = m002;
shapes = (
{
closed = 1;
nodes = (
(189,0,ls),
(202,0,o),
(209,4,o),
(209,10,cs),
(209,15,o),
(205,19,o),
(195,20,cs),
(160,23,ls),
(129,26,o),
(122,32,o),
(129,56,cs),
(301,606,ls),
(305,619,o),
(299,625,o),
(283,625,cs),
(264,625,o),
(229,613,o),
(146,603,cs),
(129,601,o),
(123,596,o),
(123,589,cs),
(123,584,o),
(128,579,o),
(140,580,cs),
(183,583,ls),
(207,585,o),
(221,581,o),
(215,561,cs),
(57,56,ls),
(51,32,o),
(39,26,o),
(6,23,cs),
(-35,23,ls),
(-45,22,o),
(-50,17,o),
(-50,10,cs),
(-50,4,o),
(-45,0,o),
(-35,0,cs)
);
}
);
width = 530;
}
);
unicode = 49;
},
{
glyphname = two;
lastChange = "2022-08-31 19:14:36 +0000";
layers = (
{
background = {
shapes = (
{
closed = 1;
nodes = (
(324,0,ls),
(342,0,o),
(354,7,o),
(359,20,cs),
(423,179,ls),
(427,189,o),
(422,194,o),
(414,194,cs),
(405,194,o),
(397,190,o),
(393,183,cs),
(370,143,ls),
(327,68,o),
(284,51,o),
(197,51,cs),
(74,51,ls),
(57,51,o),
(49,60,o),
(62,70,cs),
(183,170,ls),
(352,310,o),
(471,398,o),
(499,487,cs),
(526,570,o),
(468,620,o),
(362,620,cs),
(269,620,o),
(159,582,o),
(108,471,cs),
(103,461,o),
(107,454,o),
(117,454,cs),
(126,454,o),
(133,457,o),
(139,468,cs),
(181,550,o),
(260,586,o),
(334,586,cs),
(407,586,o),
(436,547,o),
(414,478,cs),
(390,400,o),
(313,311,o),
(158,182,cs),
(-25,31,ls),
(-32,23,o),
(-35,19,o),
(-36,13,cs),
(-38,4,o),
(-33,0,o),
(-21,0,cs)
);
}
);
};
layerId = m002;
shapes = (
{
closed = 1;
nodes = (
(324,0,ls),
(342,0,o),
(354,3,o),
(359,16,cs),
(421,173,ls),
(424,183,o),
(419,189,o),
(409,189,cs),
(401,189,o),
(396,185,o),
(392,179,cs),
(369,141,ls),
(325,69,o),
(292,51,o),
(204,51,cs),
(75,51,ls),
(54,51,o),
(51,60,o),
(63,71,cs),
(190,176,ls),
(304,271,o),
(505,385,o),
(505,505,cs),
(505,575,o),
(438,620,o),
(332,620,cs),
(250,620,o),
(160,584,o),
(113,483,cs),
(108,473,o),
(113,465,o),
(124,465,cs),
(131,465,o),
(138,468,o),
(143,477,cs),
(183,557,o),
(250,587,o),
(315,587,cs),
(385,587,o),
(422,558,o),
(422,510,cs),
(422,400,o),
(263,275,o),
(166,191,cs),
(-20,37,ls),
(-31,25,o),
(-36,17,o),
(-36,10,cs),
(-36,3,o),
(-31,0,o),
(-19,0,cs)
);
}
);
width = 530;
}
);
unicode = 50;
},
{
glyphname = three;
lastChange = "2022-08-31 19:18:42 +0000";
layers = (
{
background = {
shapes = (
{
closed = 1;
nodes = (
(306,-8,o),
(420,92,o),
(420,201,cs),
(420,303,o),
(345,375,o),
(240,375,cs),
(228,375,o),
(213,373,o),
(201,371,cs),
(193,369,o),
(191,375,o),
(197,378,cs),
(223,392,ls),
(324,444,o),
(371,489,o),
(371,535,cs),
(371,586,o),
(321,620,o),
(244,620,cs),
(154,620,o),
(89,575,o),
(78,505,cs),
(77,496,o),
(83,490,o),
(92,490,cs),
(101,490,o),
(108,495,o),
(109,502,cs),
(121,558,o),
(163,592,o),
(222,592,cs),
(267,592,o),
(293,567,o),
(293,525,cs),
(293,487,o),
(263,450,o),
(197,404,cs),
(114,346,ls),
(103,338,o),
(100,331,o),
(105,326,cs),
(110,320,o),
(120,321,o),
(132,328,cs),
(154,339,o),
(179,344,o),
(210,344,cs),
(294,344,o),
(337,289,o),
(337,180,cs),
(337,82,o),
(277,15,o),
(190,15,cs),
(106,15,o),
(150,82,o),
(92,82,cs),
(68,82,o),
(51,70,o),
(51,51,cs),
(51,15,o),
(102,-8,o),
(183,-8,cs)
);
}
);
};
layerId = m002;
shapes = (
{
closed = 1;
nodes = (
(252,-8,o),
(392,125,o),
(392,231,cs),
(392,320,o),
(331,376,o),
(243,376,cs),
(235,376,o),
(229,375,o),
(221,373,cs),
(212,371,o),
(209,377,o),
(217,380,cs),
(250,392,ls),
(382,440,o),
(442,487,o),
(442,543,cs),
(442,588,o),
(393,620,o),
(313,620,cs),
(235,620,o),
(163,583,o),
(143,513,cs),
(139,503,o),
(144,496,o),
(154,496,cs),
(162,496,o),
(169,501,o),
(171,507,cs),
(191,565,o),
(240,593,o),
(294,593,cs),
(338,593,o),
(362,575,o),
(362,543,cs),
(362,496,o),
(321,455,o),
(227,407,cs),
(129,358,ls),
(117,352,o),
(113,348,o),
(113,343,cs),
(113,336,o),
(123,332,o),
(140,338,cs),
(160,345,o),
(183,350,o),
(212,350,cs),
(284,350,o),
(310,313,o),
(310,244,cs),
(310,144,o),
(239,14,o),
(107,14,cs),
(18,14,o),
(82,92,o),
(15,92,cs),
(-6,108,o),
(-22,92,o),
(-22,66,cs),
(-22,17,o),
(32,-8,o),
(100,-8,cs)
);
}
);
width = 530;
}
);
unicode = 51;
},
{
glyphname = four;
lastChange = "2022-08-31 19:18:03 +0000";
layers = (
{
background = {
shapes = (
{
closed = 1;
nodes = (
(352,0,ls),
(363,0,o),
(370,3,o),
(373,9,cs),
(374,14,o),
(370,18,o),
(360,20,cs),
(335,23,ls),
(304,27,o),
(299,32,o),
(306,56,cs),
(340,167,ls),
(343,174,o),
(350,178,o),
(360,178,cs),
(411,178,ls),
(419,178,o),
(427,183,o),
(428,189,cs),
(437,216,ls),
(438,222,o),
(434,226,o),
(425,226,cs),
(375,226,ls),
(365,226,o),
(361,230,o),
(363,238,cs),
(422,428,ls),
(425,438,o),
(417,440,o),
(405,436,cs),
(358,418,ls),
(350,415,o),
(344,411,o),
(342,405,cs),
(285,226,l),
(86,226,ls),
(76,226,o),
(75,231,o),
(82,238,cs),
(469,598,ls),
(478,606,o),
(476,612,o),
(463,612,cs),
(440,612,ls),
(432,612,o),
(425,609,o),
(420,604,cs),
(22,214,ls),
(12,204,o),
(7,199,o),
(5,193,cs),
(2,184,o),
(8,178,o),
(22,178,cs),
(270,178,l),
(232,56,ls),
(225,34,o),
(217,28,o),
(184,25,cs),
(132,20,ls),
(122,19,o),
(116,14,o),
(115,9,cs),
(113,3,o),
(117,0,o),
(129,0,cs)
);
}
);
};
layerId = m002;
shapes = (
{
closed = 1;
nodes = (
(352,0,ls),
(365,0,o),
(373,3,o),
(373,10,cs),
(373,14,o),
(369,19,o),
(355,20,cs),
(335,23,ls),
(304,26,o),
(299,32,o),
(306,56,cs),
(340,167,ls),
(343,174,o),
(350,178,o),
(360,178,cs),
(411,178,ls),
(419,178,o),
(425,183,o),
(428,189,cs),
(437,216,ls),
(439,222,o),
(434,226,o),
(425,226,cs),
(375,226,ls),
(365,226,o),
(361,230,o),
(363,238,cs),
(422,428,ls),
(425,438,o),
(417,441,o),
(405,436,cs),
(360,418,ls),
(352,415,o),
(346,411,o),
(344,405,cs),
(291,236,ls),
(289,229,o),
(282,226,o),
(273,226,cs),
(86,226,ls),
(76,226,o),
(75,231,o),
(82,238,cs),
(469,598,ls),
(478,606,o),
(476,612,o),
(463,612,cs),
(440,612,ls),
(432,612,o),
(425,609,o),
(420,604,cs),
(22,214,ls),
(10,203,o),
(3,196,o),
(3,189,cs),
(3,183,o),
(9,178,o),
(22,178,cs),
(255,178,ls),
(266,178,o),
(271,173,o),
(269,166,cs),
(235,56,ls),
(228,34,o),
(220,28,o),
(186,25,cs),
(132,20,ls),
(122,19,o),
(115,14,o),
(115,8,cs),
(115,3,o),
(121,0,o),
(132,0,cs)
);
}
);
width = 530;
}
);
unicode = 52;
},
{
glyphname = five;
lastChange = "2022-08-31 19:18:50 +0000";
layers = (
{
background = {
shapes = (
{
closed = 1;
nodes = (
(200,-8,o),
(352,66,o),
(392,195,cs),
(425,301,o),
(375,392,o),
(200,407,cs),
(189,408,o),
(185,411,o),
(190,420,cs),
(263,550,ls),
(268,558,o),
(275,561,o),
(284,561,cs),
(474,561,ls),
(483,561,o),
(490,564,o),
(494,571,cs),
(526,615,ls),
(532,625,o),
(534,633,o),
(521,633,cs),
(503,633,o),
(494,612,o),
(457,612,cs),
(276,612,ls),
(267,612,o),
(260,609,o),
(255,601,cs),
(122,366,ls),
(116,358,o),
(121,354,o),
(131,353,cs),
(293,343,o),
(337,285,o),
(304,177,cs),
(267,59,o),
(171,15,o),
(99,15,cs),
(9,15,o),
(57,82,o),
(5,82,cs),
(-16,96,o),
(-32,82,o),
(-37,62,cs),
(-48,15,o),
(16,-8,o),
(79,-8,cs)
);
}
);
};
guides = (
{
angle = 246.7488;
pos = (168,578);
}
);
layerId = m002;
shapes = (
{
closed = 1;
nodes = (
(291,-8,o),
(402,108,o),
(402,218,cs),
(402,309,o),
(343,386,o),
(205,413,cs),
(193,416,o),
(191,419,o),
(195,427,cs),
(267,552,ls),
(271,559,o),
(276,561,o),
(288,561,cs),
(473,561,ls),
(482,561,o),
(489,563,o),
(493,570,cs),
(526,615,ls),
(534,627,o),
(529,633,o),
(519,633,cs),
(501,633,o),
(494,612,o),
(457,612,cs),
(278,612,ls),
(269,612,o),
(262,610,o),
(258,603,cs),
(132,386,ls),
(128,378,o),
(132,373,o),
(141,371,cs),
(267,348,o),
(324,298,o),
(324,211,cs),
(324,116,o),
(252,14,o),
(124,14,cs),
(20,14,o),
(67,92,o),
(5,92,cs),
(-18,108,o),
(-32,90,o),
(-32,69,cs),
(-32,14,o),
(57,-8,o),
(118,-8,cs)
);
}
);
width = 530;
}
);
unicode = 53;
},
{
glyphname = six;
lastChange = "2022-08-31 19:18:12 +0000";
layers = (
{
background = {
shapes = (
{
closed = 1;
nodes = (
(376,-8,o),
(463,83,o),
(463,195,cs),
(463,306,o),
(383,388,o),
(275,388,cs),
(244,388,o),
(215,382,o),
(191,369,cs),
(182,365,o),
(175,367,o),
(178,376,cs),
(217,493,o),
(299,565,o),
(434,598,cs),
(442,600,o),
(446,604,o),
(446,609,cs),
(446,616,o),
(439,622,o),
(424,620,cs),
(228,585,o),
(72,408,o),
(72,222,cs),
(72,85,o),
(152,-8,o),
(268,-8,cs)
);
},
{
closed = 1;
nodes = (
(193,15,o),
(155,71,o),
(155,185,cs),
(155,304,o),
(195,366,o),
(274,366,cs),
(347,366,o),
(381,311,o),
(381,190,cs),
(381,71,o),
(345,15,o),
(269,15,cs)
);
}
);
};
layerId = m002;
shapes = (
{
closed = 1;
nodes = (
(342,-8,o),
(437,141,o),
(437,230,cs),
(437,325,o),
(378,388,o),
(282,388,cs),
(260,388,o),
(232,384,o),
(213,377,cs),
(204,372,o),
(198,377,o),
(202,384,cs),
(276,496,o),
(378,570,o),
(520,599,cs),
(531,602,o),
(538,604,o),
(538,611,cs),
(538,619,o),
(529,622,o),
(518,620,cs),
(266,585,o),
(37,352,o),
(37,162,cs),
(37,67,o),
(89,-8,o),
(192,-8,cs)
);
},
{
closed = 1;
nodes = (
(125,14,o),
(98,53,o),
(98,115,cs),
(98,196,o),
(151,366,o),
(277,366,cs),
(335,366,o),
(363,330,o),
(363,265,cs),
(363,187,o),
(306,14,o),
(190,14,cs)
);
}
);
width = 530;
}
);
unicode = 54;
},
{
glyphname = seven;
lastChange = "2022-08-31 19:19:00 +0000";
layers = (
{
layerId = m002;
shapes = (
{
closed = 1;
nodes = (
(76,0,ls),
(84,0,o),
(91,3,o),
(95,9,cs),
(518,574,ls),
(531,592,o),
(535,599,o),
(535,604,cs),
(535,610,o),
(530,612,o),
(520,612,cs),
(181,612,ls),
(171,612,o),
(164,609,o),
(160,602,cs),
(129,558,ls),
(122,548,o),
(122,540,o),
(135,540,cs),
(153,540,o),
(160,561,o),
(198,561,cs),
(453,561,ls),
(465,561,o),
(469,556,o),
(462,547,cs),
(38,13,ls),
(32,5,o),
(37,0,o),
(47,0,cs)
);
}
);
width = 530;
}
);
unicode = 55;
},
{
glyphname = eight;
lastChange = "2022-08-31 19:16:02 +0000";
layers = (
{
background = {
shapes = (
{
closed = 1;
nodes = (
(350,-8,o),
(452,83,o),
(452,177,cs),
(452,226,o),
(421,272,o),
(347,322,cs),
(340,326,o),
(342,333,o),
(351,336,cs),
(451,363,o),
(532,421,o),
(532,497,cs),
(532,565,o),
(460,620,o),
(358,620,cs),
(239,620,o),
(143,550,o),
(143,462,cs),
(143,417,o),
(168,371,o),
(224,330,cs),
(231,325,o),
(229,319,o),
(218,317,cs),
(102,286,o),
(13,223,o),
(13,135,cs),
(13,52,o),
(100,-8,o),
(214,-8,cs)
);
},
{
closed = 1;
nodes = (
(145,14,o),
(78,44,o),
(78,116,cs),
(78,176,o),
(120,263,o),
(237,304,cs),
(247,309,o),
(258,308,o),
(267,301,cs),
(329,262,o),
(377,218,o),
(377,156,cs),
(377,97,o),
(335,14,o),
(217,14,cs)
);
},
{
closed = 1;
nodes = (
(321,345,o),
(313,344,o),
(304,351,cs),
(236,397,o),
(214,435,o),
(214,473,cs),
(214,527,o),
(254,598,o),
(355,598,cs),
(431,598,o),
(468,564,o),
(468,514,cs),
(468,467,o),
(435,387,o),
(334,349,cs)
);
}
);
};
layerId = m002;
shapes = (
{
closed = 1;
nodes = (
(350,-8,o),
(452,75,o),
(452,177,cs),
(452,226,o),
(421,272,o),
(347,322,cs),
(340,326,o),
(342,333,o),
(351,336,cs),
(451,363,o),
(532,421,o),
(532,497,cs),
(532,565,o),
(460,620,o),
(358,620,cs),
(230,620,o),
(143,550,o),
(143,470,cs),
(143,417,o),
(168,371,o),
(224,330,cs),
(231,325,o),
(229,319,o),
(218,317,cs),
(102,286,o),
(13,223,o),
(13,135,cs),
(13,52,o),
(100,-8,o),
(214,-8,cs)
);
},
{
closed = 1;
nodes = (
(145,14,o),
(78,44,o),
(78,124,cs),
(78,184,o),
(120,263,o),
(237,304,cs),
(247,309,o),
(258,307,o),
(267,301,cs),
(348,249,o),
(377,210,o),
(377,148,cs),
(377,88,o),
(335,14,o),
(217,14,cs)
);
},
{
closed = 1;
nodes = (
(321,345,o),
(313,344,o),
(304,351,cs),
(237,398,o),
(214,435,o),
(214,490,cs),
(214,536,o),
(254,598,o),
(355,598,cs),
(431,598,o),
(468,561,o),
(468,512,cs),
(468,464,o),
(435,387,o),
(334,349,cs)
);
}
);
width = 530;
}
);
unicode = 56;
},
{
glyphname = nine;
lastChange = "2022-08-31 19:19:08 +0000";
layers = (
{
background = {
shapes = (
{
closed = 1;
nodes = (
(195,26,o),
(383,161,o),
(447,370,cs),
(489,506,o),
(439,605,o),
(327,617,cs),
(221,628,o),
(107,547,o),
(76,445,cs),
(45,343,o),
(98,255,o),
(204,244,cs),
(237,241,o),
(268,244,o),
(296,255,cs),
(306,259,o),
(312,256,o),
(307,247,cs),
(237,118,o),
(138,52,o),
(13,31,cs),
(5,30,o),
(-1,32,o),
(-2,25,cs),
(-4,17,o),
(0,8,o),
(15,8,cs)
);
},
{
closed = 1;
nodes = (
(192,551,o),
(244,603,o),
(319,595,cs),
(392,587,o),
(413,528,o),
(381,423,cs),
(346,314,o),
(288,257,o),
(212,264,cs),
(139,272,o),
(124,330,o),
(159,441,cs)
);
}
);
};
layerId = m002;
shapes = (
{
closed = 1;
nodes = (
(258,27,o),
(496,254,o),
(496,451,cs),
(496,558,o),
(438,620,o),
(344,620,cs),
(215,620,o),
(95,513,o),
(95,401,cs),
(95,304,o),
(155,243,o),
(251,243,cs),
(276,243,o),
(302,247,o),
(320,254,cs),
(329,258,o),
(335,253,o),
(330,246,cs),
(247,120,o),
(139,41,o),
(13,14,cs),
(-2,13,o),
(-5,10,o),
(-5,3,cs),
(-5,-6,o),
(2,-8,o),
(15,-7,cs)
);
},
{
closed = 1;
nodes = (
(201,264,o),
(169,305,o),
(169,374,cs),
(169,489,o),
(251,598,o),
(344,598,cs),
(399,598,o),
(435,559,o),
(435,490,cs),
(435,371,o),
(351,264,o),
(255,264,cs)
);
}
);
width = 530;
}
);
unicode = 57;
},
{
glyphname = .notdef;
lastChange = "2023-03-17 07:46:37 +0000";
layers = (
{
layerId = m002;
shapes = (
{
closed = 1;
nodes = (
(446,-110,ls),
(452,-110,o),
(457,-108,o),
(458,-104,cs),
(697,665,ls),
(698,669,o),
(696,672,o),
(690,672,cs),
(269,672,ls),
(263,672,o),
(259,669,o),
(258,665,cs),
(18,-104,ls),
(17,-108,o),
(20,-110,o),
(25,-110,cs)
);
},
{
closed = 1;
nodes = (
(289,644,l),
(654,644,l),
(427,-83,l),
(61,-83,l)
);
}
);
width = 690;
}
);
},
{
glyphname = period;
kernLeft = period;
kernRight = period;
lastChange = "2022-08-31 20:12:01 +0000";
layers = (
{
background = {
shapes = (
{
closed = 1;
nodes = (
(148,-8,o),
(183,10,o),
(183,42,cs),
(183,62,o),
(162,78,o),
(137,81,cs),
(99,86,o),
(61,64,o),
(61,32,cs),
(61,9,o),
(84,-8,o),
(116,-8,cs)
);
}
);
};
layerId = m002;
shapes = (
{
closed = 1;
nodes = (
(102,-8,o),
(136,12,o),
(136,42,cs),
(136,65,o),
(113,82,o),
(82,82,cs),
(51,82,o),
(17,62,o),
(17,32,cs),
(17,9,o),
(39,-8,o),
(71,-8,cs)
);
}
);
width = 252;
}
);
unicode = 46;
},
{
glyphname = comma;
kernLeft = period;
kernRight = period;
lastChange = "2022-08-31 20:13:38 +0000";
layers = (
{
background = {
shapes = (
{
ref = period;
}
);
};
layerId = m002;
shapes = (
{
closed = 1;
nodes = (
(60,-93,o),
(133,-18,o),
(133,37,cs),
(133,64,o),
(112,82,o),
(76,82,cs),
(44,82,o),
(18,64,o),
(18,39,cs),
(18,11,o),
(57,7,o),
(57,-20,cs),
(57,-52,o),
(14,-90,o),
(-26,-133,cs),
(-33,-138,o),
(-36,-142,o),
(-36,-147,cs),
(-36,-156,o),
(-24,-157,o),
(-13,-150,cs)
);
}
);
width = 252;
}
);
unicode = 44;
},
{
glyphname = exclam;
lastChange = "2022-09-01 19:18:34 +0000";
layers = (
{
background = {
shapes = (
{
closed = 1;
nodes = (
(145,154,o),
(152,158,o),
(154,167,cs),
(201,314,o),
(307,536,o),
(322,582,cs),
(330,610,o),
(317,632,o),
(284,635,cs),
(252,638,o),
(227,621,o),
(218,593,cs),
(204,547,o),
(170,317,o),
(126,169,cs),
(124,161,o),
(129,156,o),
(137,155,cs)
);
}
);
};
layerId = m002;
shapes = (
{
closed = 1;
nodes = (
(145,154,o),
(152,158,o),
(154,167,cs),
(201,314,o),
(307,536,o),
(322,582,cs),
(332,613,o),
(315,636,o),
(278,636,cs),
(250,636,o),
(227,621,o),
(218,593,cs),
(204,547,o),
(170,317,o),
(126,169,cs),
(124,161,o),
(129,156,o),
(137,155,cs)
);
},
{
pos = (18,0);
ref = period;
}
);
width = 316;
}
);
unicode = 33;
},
{
glyphname = exclamdown;
lastChange = "2022-09-01 19:15:39 +0000";
layers = (
{
layerId = m002;
shapes = (
{
closed = 1;
nodes = (
(78,-183,o),
(101,-168,o),
(109,-140,cs),
(124,-94,o),
(152,117,o),
(195,265,cs),
(198,274,o),
(193,279,o),
(185,280,cs),
(177,280,o),
(170,276,o),
(168,268,cs),
(121,121,o),
(21,-83,o),
(6,-129,cs),
(-4,-188,o),
(13,-183,o),
(49,-183,cs)
);
},
{
angle = 180;
pos = (257,511);
ref = period;
}
);
width = 315;
}
);
metricLeft = "=|exclam";
metricRight = "=|exclam";
unicode = 161;
},
{
glyphname = question;
lastChange = "2022-09-01 19:14:29 +0000";
layers = (
{
background = {
shapes = (
{
closed = 1;
nodes = (
(155,157,o),
(161,161,o),
(164,170,cs),
(195,259,ls),
(201,276,o),
(207,282,o),
(222,292,cs),
(273,324,ls),
(377,390,o),
(420,439,o),
(439,503,cs),
(462,577,o),
(413,626,o),
(310,638,cs),
(276,641,o),
(223,638,o),
(195,626,cs),
(185,621,o),
(181,618,o),
(177,609,cs),
(143,507,ls),
(139,498,o),
(143,492,o),
(150,491,cs),
(158,490,o),
(162,494,o),
(168,502,cs),
(228,581,o),
(270,615,o),
(335,609,cs),
(371,604,o),
(397,581,o),
(379,525,cs),
(362,469,o),
(331,435,o),
(248,381,cs),
(220,362,ls),
(190,343,o),
(178,328,o),
(170,298,cs),
(137,173,ls),
(135,164,o),
(138,159,o),
(146,158,cs)
);
}
);
};
layerId = m002;
shapes = (
{
closed = 1;
nodes = (
(155,158,o),
(161,161,o),
(164,170,cs),
(202,276,ls),
(209,295,o),
(215,306,o),
(231,314,cs),
(288,344,ls),
(385,395,o),
(445,455,o),
(445,536,cs),
(445,608,o),
(365,638,o),
(283,638,cs),
(247,638,o),
(216,635,o),
(195,626,cs),
(185,621,o),
(181,618,o),
(177,609,cs),
(143,507,ls),
(139,498,o),
(143,492,o),
(150,491,cs),
(158,490,o),
(162,494,o),
(168,502,cs),
(228,581,o),
(264,609,o),
(324,609,cs),
(360,609,o),
(385,591,o),
(385,558,cs),
(385,488,o),
(339,441,o),
(259,398,cs),
(224,379,ls),
(192,362,o),
(183,345,o),
(175,314,cs),
(137,173,ls),
(133,162,o),
(140,158,o),
(147,158,cs)
);
},
{
pos = (33,0);
ref = period;
}
);
width = 412;
}
);
unicode = 63;
},
{
glyphname = questiondown;
lastChange = "2022-09-01 19:11:10 +0000";
layers = (
{
layerId = m002;
shapes = (
{
closed = 1;
nodes = (
(172,-178,o),
(204,-175,o),
(224,-166,cs),
(235,-162,o),
(239,-158,o),
(243,-149,cs),
(277,-48,ls),
(281,-38,o),
(277,-32,o),
(270,-31,cs),
(262,-31,o),
(258,-34,o),
(252,-42,cs),
(192,-121,o),
(155,-150,o),
(95,-150,cs),
(60,-150,o),
(34,-131,o),
(34,-98,cs),
(34,-28,o),
(80,19,o),
(161,62,cs),
(195,81,ls),
(228,98,o),
(237,115,o),
(245,145,cs),
(276,261,ls),
(279,272,o),
(273,276,o),
(266,276,cs),
(258,276,o),
(252,274,o),
(248,264,cs),
(217,184,ls),
(210,165,o),
(205,154,o),
(189,145,cs),
(132,116,ls),
(34,65,o),
(-22,6,o),
(-22,-89,cs),
(-22,-174,o),
(55,-178,o),
(137,-178,cs)
);
},
{
angle = 180;
pos = (322,511);
ref = period;
}
);
width = 412;
}
);
metricLeft = "=|question";
metricRight = "=|question";
unicode = 191;
},
{
glyphname = asterisk;
kernLeft = asterisk;
kernRight = asterisk;
lastChange = "2022-08-23 20:03:46 +0000";
layers = (
{
background = {
shapes = (
{
closed = 1;
nodes = (
(330,352,o),
(351,366,o),
(355,383,cs),
(363,410,o),
(342,430,o),
(347,473,cs),
(348,480,o),
(355,481,o),
(361,477,cs),
(398,444,o),
(398,418,o),
(423,402,cs),
(439,392,o),
(466,392,o),
(486,408,cs),
(506,425,o),
(501,445,o),
(484,455,cs),
(458,472,o),
(419,464,o),
(373,487,cs),
(365,491,o),
(366,496,o),
(376,497,cs),
(434,510,o),
(465,496,o),
(500,505,cs),
(522,512,o),
(538,530,o),
(530,549,cs),
(521,569,o),
(496,574,o),
(474,567,cs),
(438,557,o),
(424,530,o),
(370,509,cs),
(362,506,o),
(358,509,o),
(360,516,cs),
(381,558,o),
(414,573,o),
(422,598,cs),
(428,615,o),
(416,633,o),
(389,636,cs),
(360,639,o),
(339,625,o),
(335,608,cs),
(327,581,o),
(348,561,o),
(343,518,cs),
(342,511,o),
(335,509,o),
(330,513,cs),
(292,545,o),
(294,572,o),
(267,589,cs),
(251,599,o),
(224,599,o),
(204,583,cs),
(184,566,o),
(189,547,o),
(206,536,cs),
(232,519,o),
(271,527,o),
(317,504,cs),
(325,500,o),
(324,496,o),
(314,494,cs),
(256,481,o),
(225,496,o),
(190,486,cs),
(168,479,o),
(152,462,o),
(160,442,cs),
(169,422,o),
(194,417,o),
(216,424,cs),
(250,434,o),
(264,458,o),
(319,481,cs),
(327,484,o),
(332,482,o),
(330,475,cs),
(309,434,o),
(276,418,o),
(268,393,cs),
(262,376,o),
(274,358,o),
(301,355,cs)
);
}
);
};
layerId = m002;
shapes = (
{
closed = 1;
nodes = (
(330,352,o),
(351,366,o),
(355,383,cs),
(363,410,o),
(342,430,o),
(347,473,cs),
(348,480,o),
(355,481,o),
(361,477,cs),
(398,444,o),
(398,418,o),
(423,402,cs),
(439,392,o),
(466,392,o),
(486,408,cs),
(506,425,o),
(501,445,o),
(484,455,cs),
(458,472,o),
(419,464,o),
(373,487,cs),
(365,491,o),
(366,496,o),
(376,497,cs),
(434,510,o),
(465,496,o),
(500,505,cs),
(522,512,o),
(538,530,o),
(530,549,cs),
(521,569,o),
(496,574,o),
(474,567,cs),
(438,557,o),
(424,530,o),
(370,509,cs),
(362,506,o),
(358,509,o),
(360,516,cs),
(381,558,o),
(414,573,o),
(422,598,cs),
(428,615,o),
(416,633,o),
(389,636,cs),
(360,639,o),
(339,625,o),
(335,608,cs),
(327,581,o),
(348,561,o),
(343,518,cs),
(342,511,o),
(335,509,o),
(330,513,cs),
(292,545,o),
(294,572,o),
(267,589,cs),
(251,599,o),
(224,599,o),
(204,583,cs),
(184,566,o),
(189,547,o),
(206,536,cs),
(232,519,o),
(271,527,o),
(317,504,cs),
(325,500,o),
(324,496,o),
(314,494,cs),
(256,481,o),
(225,496,o),
(190,486,cs),
(168,479,o),
(152,462,o),
(160,442,cs),
(169,422,o),
(194,417,o),
(216,424,cs),
(250,434,o),
(264,458,o),
(319,481,cs),
(327,484,o),
(332,482,o),
(330,475,cs),
(309,434,o),
(276,418,o),
(268,393,cs),
(262,376,o),
(274,358,o),
(301,355,cs)
);
}
);
width = 516;
}
);
unicode = 42;
},
{
glyphname = numbersign;
lastChange = "2022-08-11 18:45:18 +0000";
layers = (
{
layerId = m002;
shapes = (
{
closed = 1;
nodes = (
(183,0,l),
(239,181,ls),
(243,190,o),
(251,196,o),
(264,196,cs),
(446,196,ls),
(458,196,o),
(463,190,o),
(461,181,cs),
(405,0,l),
(442,0,l),
(498,181,ls),
(501,190,o),
(509,196,o),
(523,196,cs),
(670,196,l),
(670,221,l),
(530,221,ls),
(519,221,o),
(513,226,o),
(515,235,cs),
(559,376,ls),
(562,385,o),
(570,391,o),
(584,391,cs),
(731,391,l),
(731,416,l),
(591,416,ls),
(580,416,o),
(574,422,o),
(576,431,cs),
(632,612,l),
(596,612,l),
(539,431,ls),
(536,422,o),
(528,416,o),
(514,416,cs),
(332,416,ls),
(321,416,o),
(315,422,o),
(317,431,cs),
(374,612,l),
(337,612,l),
(281,431,ls),
(277,422,o),
(269,416,o),
(255,416,cs),
(108,416,l),
(108,391,l),
(248,391,ls),
(260,391,o),
(266,386,o),
(263,377,cs),
(220,236,ls),
(216,227,o),
(208,221,o),
(194,221,cs),
(47,221,l),
(47,196,l),
(187,196,ls),
(199,196,o),
(205,190,o),
(202,181,cs),
(146,0,l)
);
},
{
closed = 1;
nodes = (
(260,221,o),
(254,226,o),
(256,235,cs),
(300,376,ls),
(304,385,o),
(312,391,o),
(325,391,cs),
(507,391,ls),
(519,391,o),
(524,386,o),
(522,377,cs),
(478,236,ls),
(475,227,o),
(467,221,o),
(453,221,cs),
(271,221,ls)
);
}
);
width = 723;
}
);
unicode = 35;
},
{
glyphname = slash;
lastChange = "2022-08-11 18:55:19 +0000";
layers = (
{
layerId = m002;
shapes = (
{
closed = 1;
nodes = (
(-59,-130,ls),
(-53,-130,o),
(-48,-126,o),
(-46,-121,cs),
(424,662,ls),
(427,667,o),
(425,672,o),
(417,672,cs),
(404,672,ls),
(397,672,o),
(391,668,o),
(389,664,cs),
(-76,-119,ls),
(-79,-125,o),
(-78,-130,o),
(-71,-130,cs)
);
}
);
width = 297;
}
);
unicode = 47;
},
{
glyphname = backslash;
lastChange = "2022-08-11 18:57:07 +0000";
layers = (
{
layerId = m002;
shapes = (
{
closed = 1;
nodes = (
(171,-110,ls),
(179,-110,o),
(183,-106,o),
(184,-101,cs),
(184,664,ls),
(184,668,o),
(181,672,o),
(174,672,cs),
(162,672,ls),
(154,672,o),
(151,667,o),
(151,662,cs),
(150,-103,ls),
(150,-107,o),
(153,-110,o),
(160,-110,cs)
);
}
);
width = 294;
}
);
unicode = 92;
},
{
glyphname = hyphen;
kernLeft = hyphen;
kernRight = hyphen;
lastChange = "2022-08-31 19:46:08 +0000";
layers = (
{
background = {
shapes = (
{
closed = 1;
nodes = (
(399,220,ls),
(415,220,o),
(427,225,o),
(427,235,cs),
(427,244,o),
(417,249,o),
(405,249,cs),
(125,249,ls),
(109,249,o),
(98,244,o),
(98,234,cs),
(98,225,o),
(107,220,o),
(120,220,cs)
);
}
);
};
layerId = m002;
shapes = (
{
closed = 1;
nodes = (
(385,220,ls),
(392,220,o),
(398,224,o),
(399,229,cs),
(402,241,ls),
(405,246,o),
(401,249,o),
(394,249,cs),
(116,249,ls),
(109,249,o),
(102,246,o),
(101,241,cs),
(98,229,ls),
(97,224,o),
(100,220,o),
(107,220,cs)
);
}
);
width = 490;
}
);
unicode = 45;
},
{
glyphname = endash;
kernLeft = hyphen;
kernRight = hyphen;
lastChange = "2022-08-23 20:03:55 +0000";
layers = (
{
layerId = m002;
shapes = (
{
closed = 1;
nodes = (
(476,220,ls),
(483,220,o),
(489,224,o),
(490,229,cs),
(493,241,ls),
(494,246,o),
(492,249,o),
(485,249,cs),
(116,249,ls),
(109,249,o),
(102,246,o),
(101,241,cs),
(98,229,ls),
(97,224,o),
(100,220,o),
(107,220,cs)
);
}
);
width = 581;
}
);
unicode = 8211;
},
{
glyphname = emdash;
kernLeft = hyphen;
kernRight = hyphen;
lastChange = "2022-08-23 20:03:55 +0000";
layers = (
{
layerId = m002;
shapes = (
{
closed = 1;
nodes = (
(718,220,ls),
(724,220,o),
(730,224,o),
(731,229,cs),
(735,241,ls),
(736,246,o),
(734,249,o),
(727,249,cs),
(116,249,ls),
(109,249,o),
(102,246,o),
(101,241,cs),
(98,229,ls),
(97,224,o),
(100,220,o),
(107,220,cs)
);
}
);
width = 822;
}
);
unicode = 8212;
},
{
glyphname = underscore;
lastChange = "2022-08-11 19:14:16 +0000";
layers = (
{
layerId = m002;
shapes = (
{
closed = 1;
nodes = (
(302,-93,ls),
(309,-93,o),
(315,-89,o),
(316,-84,cs),
(320,-72,ls),
(321,-67,o),
(319,-64,o),
(312,-64,cs),
(-50,-75,ls),
(-56,-75,o),
(-62,-79,o),
(-63,-85,cs),
(-66,-99,ls),
(-67,-105,o),
(-64,-109,o),
(-58,-109,cs)
);
}
);
width = 428;
}
);
unicode = 95;
},
{
glyphname = parenleft;
lastChange = "2022-09-01 21:01:08 +0000";
layers = (
{
layerId = m002;
shapes = (
{
closed = 1;
nodes = (
(252,-102,o),
(256,-99,o),
(256,-95,cs),
(258,-92,o),
(256,-89,o),
(253,-85,cs),
(189,-21,o),
(160,58,o),
(160,170,cs),
(160,316,o),
(246,503,o),
(467,607,cs),
(473,609,o),
(475,612,o),
(476,615,cs),
(477,619,o),
(475,622,o),
(468,623,cs),
(465,623,o),
(461,623,o),
(458,621,cs),
(231,538,o),
(90,377,o),
(90,187,cs),
(90,59,o),
(164,-43,o),
(236,-97,cs),
(238,-99,o),
(241,-100,o),
(245,-101,cs)
);
}
);
width = 398;
}
);
unicode = 40;
},
{
glyphname = braceleft;
lastChange = "2022-09-01 21:01:41 +0000";
layers = (
{
background = {
shapes = (
{
closed = 1;
nodes = (
(199,-82,o),
(206,-77,o),
(208,-71,cs),
(209,-65,o),
(205,-61,o),
(197,-61,cs),
(143,-61,o),
(128,-32,o),
(147,31,cs),
(185,151,ls),
(209,227,o),
(193,257,o),
(138,274,c),
(204,291,o),
(238,320,o),
(262,396,cs),
(299,517,ls),
(319,580,o),
(352,609,o),
(406,609,cs),
(414,609,o),
(421,613,o),
(423,619,cs),
(425,625,o),
(421,629,o),
(413,629,cs),
(319,629,o),
(256,592,o),
(231,513,cs),
(194,393,ls),
(169,313,o),
(136,284,o),
(82,284,cs),
(74,284,o),
(67,280,o),
(64,274,cs),
(63,268,o),
(68,264,o),
(76,264,cs),
(130,264,o),
(145,235,o),
(120,155,cs),
(82,34,ls),
(57,-44,o),
(97,-82,o),
(191,-82,cs)
);
}
);
};
layerId = m002;
shapes = (
{
closed = 1;
nodes = (
(200,-82,o),
(209,-78,o),
(209,-71,cs),
(209,-65,o),
(205,-61,o),
(194,-61,cs),
(140,-61,o),
(130,-33,o),
(150,30,cs),
(186,149,ls),
(209,224,o),
(193,256,o),
(140,274,c),
(204,290,o),
(238,316,o),
(261,392,cs),
(298,511,ls),
(322,589,o),
(354,609,o),
(402,609,cs),
(414,609,o),
(422,614,o),
(422,620,cs),
(422,626,o),
(416,629,o),
(405,629,cs),
(316,629,o),
(255,592,o),
(231,514,cs),
(194,395,ls),
(170,316,o),
(136,284,o),
(83,284,cs),
(72,284,o),
(64,280,o),
(64,273,cs),
(64,267,o),
(70,264,o),
(82,264,cs),
(131,264,o),
(146,238,o),
(122,159,cs),
(85,40,ls),
(61,-37,o),
(94,-82,o),
(184,-82,cs)
);
}
);
width = 368;
}
);
unicode = 123;
},
{
glyphname = bracketleft;
lastChange = "2022-09-01 21:02:14 +0000";
layers = (
{
background = {
shapes = (
{
closed = 1;
nodes = (
(194,-83,ls),
(205,-83,o),
(213,-79,o),
(214,-73,cs),
(216,-67,o),
(212,-63,o),
(201,-63,cs),
(92,-63,ls),
(84,-63,o),
(79,-59,o),
(82,-53,cs),
(285,598,ls),
(286,604,o),
(293,609,o),
(301,609,cs),
(411,609,ls),
(421,609,o),
(428,613,o),
(430,619,cs),
(432,625,o),
(428,629,o),
(417,629,cs),
(255,629,ls),
(238,629,o),
(225,621,o),
(221,609,cs),
(12,-63,ls),
(7,-76,o),
(15,-83,o),
(32,-83,cs)
);
}
);
};
layerId = m002;
shapes = (
{
closed = 1;
nodes = (
(193,-83,ls),
(206,-83,o),
(214,-78,o),
(214,-72,cs),
(214,-66,o),
(209,-63,o),
(199,-63,cs),
(91,-63,ls),
(83,-63,o),
(79,-59,o),
(82,-53,cs),
(285,598,ls),
(288,604,o),
(293,609,o),
(301,609,cs),
(411,609,ls),
(423,609,o),
(431,614,o),
(431,620,cs),
(431,626,o),
(427,629,o),
(416,629,cs),
(255,629,ls),
(238,629,o),
(224,621,o),
(221,609,cs),
(12,-63,ls),
(8,-76,o),
(15,-83,o),
(32,-83,cs)
);
}
);
width = 375;
}
);
unicode = 91;
},
{
glyphname = quoteleft;
kernLeft = quoteleft;
kernRight = quoteleft;
lastChange = "2023-02-22 10:42:32 +0000";
layers = (
{
background = {
shapes = (
{
closed = 1;
nodes = (
(177,478,o),
(198,495,o),
(198,515,cs),
(198,555,o),
(138,547,o),
(138,588,cs),
(138,608,o),
(147,620,o),
(199,654,cs),
(209,660,o),
(208,666,o),
(202,670,cs),
(197,673,o),
(190,672,o),
(181,666,cs),
(109,629,o),
(80,586,o),
(80,535,cs),
(80,500,o),
(105,478,o),
(143,478,cs)
);
}
);
};
layerId = m002;
shapes = (
{
closed = 1;
nodes = (
(218,478,o),
(241,496,o),
(241,518,cs),
(241,549,o),
(201,552,o),
(201,579,cs),
(201,599,o),
(222,626,o),
(283,654,cs),
(291,657,o),
(293,660,o),
(293,664,cs),
(293,672,o),
(283,674,o),
(269,668,cs),
(185,638,o),
(128,580,o),
(128,524,cs),
(128,497,o),
(150,478,o),
(185,478,cs)
);
}
);
width = 191;
}
);
metricLeft = "=|quoteright";
metricRight = "=|quoteright";
unicode = 8216;
},
{
glyphname = quoteright;
kernLeft = quoteright;
kernRight = quoteright;
lastChange = "2022-09-19 13:28:36 +0000";
layers = (
{
background = {
shapes = (
{
closed = 1;
nodes = (
(228,469,o),
(256,512,o),
(256,564,cs),
(256,598,o),
(232,620,o),
(194,620,cs),
(160,620,o),
(139,604,o),
(139,583,cs),
(139,543,o),
(199,551,o),
(199,510,cs),
(199,496,o),
(190,478,o),
(138,445,cs),
(128,439,o),
(129,432,o),
(135,428,cs),
(140,425,o),
(147,427,o),
(156,432,cs)
);
}
);
};
layerId = m002;
shapes = (
{
closed = 1;
nodes = (
(213,461,o),
(270,518,o),
(270,574,cs),
(270,601,o),
(248,620,o),
(213,620,cs),
(179,620,o),
(156,603,o),
(156,581,cs),
(156,549,o),
(197,547,o),
(197,519,cs),
(197,499,o),
(176,472,o),
(115,445,cs),
(107,441,o),
(105,438,o),
(105,434,cs),
(105,427,o),
(115,424,o),
(129,430,cs)
);
}
);
width = 191;
}
);
unicode = 8217;
},
{
glyphname = guilsinglleft;
kernLeft = guilleft;
kernRight = guilleft;
lastChange = "2022-08-23 20:04:35 +0000";
layers = (
{
background = {
shapes = (
{
closed = 1;
nodes = (
(154,71,o),
(159,67,o),
(167,67,cs),
(176,67,o),
(181,73,o),
(179,78,cs),
(139,212,ls),
(137,220,o),
(138,226,o),
(144,231,cs),
(260,347,ls),
(264,352,o),
(263,360,o),
(252,360,cs),
(246,360,o),
(241,360,o),
(229,350,cs),
(78,238,ls),
(66,229,o),
(62,221,o),
(69,210,cs),
(147,82,ls)
);
}
);
};
layerId = m002;
shapes = (
{
closed = 1;
nodes = (
(154,71,o),
(159,67,o),
(167,67,cs),
(176,67,o),
(181,73,o),
(179,78,cs),
(137,208,ls),
(135,216,o),
(136,222,o),
(141,227,cs),
(260,347,ls),
(264,352,o),
(263,360,o),
(252,360,cs),
(246,360,o),
(241,360,o),
(229,350,cs),
(78,238,ls),
(66,229,o),
(62,221,o),
(69,210,cs),
(147,82,ls)
);
}
);
width = 307;
}
);
unicode = 8249;
},
{
glyphname = quotesingle;
kernLeft = quotesingle;
kernRight = quotesingle;
lastChange = "2022-09-01 20:16:30 +0000";
layers = (
{
background = {
shapes = (
{
closed = 1;
nodes = (
(207,416,o),
(213,422,o),
(215,429,cs),
(246,518,o),
(300,542,o),
(300,584,cs),
(300,606,o),
(286,621,o),
(255,621,cs),
(214,621,o),
(194,596,o),
(194,564,cs),
(194,545,o),
(198,526,o),
(198,502,cs),
(198,483,o),
(195,460,o),
(189,433,cs),
(185,422,o),
(191,416,o),
(200,416,cs)
);
}
);
};
layerId = m002;
shapes = (
{
closed = 1;
nodes = (
(207,416,o),
(213,422,o),
(215,429,cs),
(246,518,o),
(300,542,o),
(300,584,cs),
(300,606,o),
(286,621,o),
(255,621,cs),
(214,621,o),
(194,596,o),
(194,564,cs),
(194,507,o),
(204,488,o),
(189,433,cs),
(185,422,o),
(191,416,o),
(200,416,cs)
);
}
);
width = 270;
}
);
unicode = 39;
},
{
glyphname = at;
kernLeft = o;
kernRight = o;
lastChange = "2022-08-23 20:05:05 +0000";
layers = (
{
background = {
shapes = (
{
closed = 1;
nodes = (
(486,-69,o),
(558,-53,o),
(611,-22,cs),
(621,-16,o),
(622,-10,o),
(616,-3,cs),
(611,3,o),
(600,3,o),
(588,-5,cs),
(540,-31,o),
(477,-44,o),
(402,-44,cs),
(223,-44,o),
(126,36,o),
(126,183,cs),
(126,352,o),
(256,470,o),
(442,470,cs),
(584,470,o),
(673,394,o),
(673,274,cs),
(673,175,o),
(600,80,o),
(524,80,cs),
(492,80,o),
(483,104,o),
(498,150,cs),
(561,351,ls),
(565,361,o),
(560,368,o),
(550,368,cs),
(542,368,o),
(534,363,o),
(529,354,cs),
(527,349,o),
(523,348,o),
(520,348,cs),
(515,348,o),
(513,349,o),
(509,354,cs),
(499,366,o),
(480,372,o),
(457,372,cs),
(351,372,o),
(230,242,o),
(230,128,cs),
(230,80,o),
(252,54,o),
(292,54,cs),
(339,54,o),
(389,89,o),
(444,163,cs),
(447,168,o),
(454,167,o),
(452,162,cs),
(448,151,ls),
(428,91,o),
(453,54,o),
(513,54,cs),
(620,54,o),
(718,157,o),
(718,271,cs),
(718,404,o),
(608,493,o),
(446,493,cs),
(236,493,o),
(51,349,o),
(51,185,cs),
(51,38,o),
(179,-69,o),
(405,-69,cs)
);
},
{
closed = 1;
nodes = (
(297,85,o),
(290,95,o),
(290,122,cs),
(290,219,o),
(382,349,o),
(452,349,cs),
(474,349,o),
(486,337,o),
(486,314,cs),
(486,236,o),
(371,85,o),
(313,85,cs)
);
}
);
};
layerId = m002;
shapes = (
{
closed = 1;
nodes = (
(436,-69,o),
(489,-60,o),
(535,-41,cs),
(544,-37,o),
(550,-31,o),
(546,-23,cs),
(540,-14,o),
(529,-17,o),
(518,-21,cs),
(478,-37,o),
(432,-44,o),
(382,-44,cs),
(229,-44,o),
(110,13,o),
(110,145,cs),
(110,280,o),
(237,471,o),
(477,471,cs),
(618,471,o),
(696,416,o),
(696,305,cs),
(696,218,o),
(606,79,o),
(498,79,cs),
(453,79,o),
(451,105,o),
(477,146,cs),
(600,338,ls),
(606,347,o),
(605,356,o),
(592,356,cs),
(585,356,o),
(576,353,o),
(569,344,cs),
(566,340,o),
(564,339,o),
(560,339,cs),
(555,339,o),
(553,342,o),
(550,346,cs),
(540,359,o),
(516,371,o),
(491,371,cs),
(367,371,o),
(202,201,o),
(202,101,cs),
(202,70,o),
(223,54,o),
(255,54,cs),
(309,54,o),
(376,102,o),
(434,164,cs),
(438,169,o),
(446,167,o),
(442,162,cs),
(420,132,o),
(415,117,o),
(415,102,cs),
(415,71,o),
(445,54,o),
(489,54,cs),
(631,54,o),
(739,210,o),
(739,309,cs),
(739,422,o),
(637,493,o),
(483,493,cs),
(262,493,o),
(39,348,o),
(39,157,cs),
(39,14,o),
(192,-69,o),
(378,-69,cs)
);
},
{
closed = 1;
nodes = (
(267,83,o),
(260,88,o),
(260,99,cs),
(260,163,o),
(393,348,o),
(481,348,cs),
(512,348,o),
(515,332,o),
(508,309,cs),
(486,234,o),
(340,83,o),
(279,83,cs)
);
}
);
width = 765;
}
);
metricLeft = O;
metricRight = O;
unicode = 64;
},
{
glyphname = ampersand;
lastChange = "2022-08-27 16:49:40 +0000";
layers = (
{
background = {
shapes = (
{
closed = 1;
nodes = (
(22,177,ls),
(22,96,o),
(84,-14,o),
(239,-14,cs),
(317,-14,o),
(385,11,o),
(435,48,cs),
(484,85,o),
(514,133,o),
(514,182,cs),
(514,202,o),
(511,219,o),
(507,230,c),
(511,230,o),
(518,229,o),
(523,229,cs),
(574,229,o),
(620,269,o),
(620,314,cs),
(620,333,o),
(619,334,o),
(613,334,cs),
(606,334,o),
(604,324,o),
(598,312,cs),
(584,284,o),
(561,281,o),
(470,281,cs),
(392,281,o),
(342,261,o),
(312,236,cs),
(289,217,o),
(278,196,o),
(278,181,cs),
(278,174,o),
(279,172,o),
(284,172,cs),
(296,172,o),
(327,243,o),
(409,243,cs),
(459,243,o),
(482,218,o),
(482,181,cs),
(482,102,o),
(384,20,o),
(278,20,cs),
(179,20,o),
(105,93,o),
(105,189,cs),
(105,260,o),
(158,338,o),
(248,361,c),
(268,351,o),
(296,345,o),
(320,345,cs),
(348,345,o),
(360,353,o),
(360,363,cs),
(360,380,o),
(339,388,o),
(293,388,cs),
(282,388,o),
(268,386,o),
(255,385,c),
(235,405,o),
(227,429,o),
(227,450,cs),
(227,523,o),
(301,572,o),
(363,572,cs),
(405,572,o),
(445,554,o),
(453,517,cs),
(460,484,o),
(453,454,o),
(474,454,cs),
(491,454,o),
(496,483,o),
(501,503,cs),
(506,520,o),
(514,551,o),
(514,570,cs),
(514,577,o),
(482,620,o),
(396,620,cs),
(284,620,o),
(194,550,o),
(194,463,cs),
(194,434,o),
(205,403,o),
(227,380,c),
(112,360,o),
(22,285,o),
(22,178,cs)
);
}
);
};
layerId = m002;
shapes = (
{
closed = 1;
nodes = (
(407,-8,o),
(518,73,o),
(518,182,cs),
(518,212,o),
(509,236,o),
(493,252,c),
(469,235,l),
(554,213,o),
(620,248,o),
(620,307,cs),
(620,345,o),
(593,371,o),
(550,371,cs),
(516,371,o),
(497,356,o),
(497,337,cs),
(497,296,o),
(580,309,o),
(580,281,cs),
(580,266,o),
(555,262,o),
(505,268,cs),
(469,272,ls),
(365,285,o),
(281,244,o),
(281,181,cs),
(281,144,o),
(307,119,o),
(348,119,cs),
(381,119,o),
(402,132,o),
(402,152,cs),
(402,196,o),
(327,175,o),
(327,208,cs),
(327,227,o),
(353,242,o),
(398,242,cs),
(455,242,o),
(483,221,o),
(483,176,cs),
(483,89,o),
(391,20,o),
(277,20,cs),
(169,20,o),
(105,81,o),
(105,185,cs),
(105,292,o),
(168,354,o),
(288,368,c),
(282,377,l),
(248,388,o),
(228,421,o),
(228,460,cs),
(228,530,o),
(291,584,o),
(374,584,cs),
(439,584,o),
(466,549,o),
(471,455,cs),
(473,437,ls),
(474,427,o),
(478,422,o),
(488,422,cs),
(496,422,o),
(501,427,o),
(504,435,cs),
(536,559,ls),
(539,573,o),
(537,579,o),
(524,587,cs),
(494,608,o),
(446,620,o),
(398,620,cs),
(283,620,o),
(193,552,o),
(193,463,cs),
(193,396,o),
(246,345,o),
(316,345,cs),
(344,345,o),
(360,353,o),
(360,366,cs),
(360,380,o),
(338,388,o),
(299,388,cs),
(150,388,o),
(22,286,o),
(22,167,cs),
(22,63,o),
(116,-8,o),
(256,-8,cs)
);
}
);
width = 604;
}
);
unicode = 38;
},
{
glyphname = paragraph;
lastChange = "2022-08-13 19:12:03 +0000";
layers = (
{
layerId = m002;
shapes = (
{
closed = 1;
nodes = (
(236,-110,ls),
(245,-110,o),
(252,-108,o),
(254,-100,cs),
(462,566,ls),
(466,579,o),
(478,586,o),
(496,586,cs),
(522,586,ls),
(540,586,o),
(547,577,o),
(544,566,cs),
(337,-98,ls),
(335,-105,o),
(340,-110,o),
(351,-110,cs),
(381,-110,ls),
(390,-110,o),
(397,-108,o),
(399,-100,cs),
(604,556,ls),
(611,580,o),
(620,585,o),
(653,589,cs),
(681,592,ls),
(692,594,o),
(699,598,o),
(699,604,cs),
(699,609,o),
(695,612,o),
(684,612,cs),
(409,612,ls),
(214,612,o),
(98,519,o),
(98,416,cs),
(98,334,o),
(169,277,o),
(278,277,cs),
(292,277,ls),
(305,277,o),
(307,273,o),
(305,265,cs),
(192,-98,ls),
(190,-105,o),
(195,-110,o),
(206,-110,cs)
);
}
);
width = 601;
}
);
metricLeft = "=|P";
metricRight = "=|P";
unicode = 182;
},
{
glyphname = section;
lastChange = "2022-08-14 16:25:16 +0000";
layers = (
{
background = {
shapes = (
{
closed = 1;
nodes = (
(304,-110,o),
(370,-69,o),
(370,-7,cs),
(370,34,o),
(340,71,o),
(285,115,cs),
(278,121,o),
(281,126,o),
(291,128,cs),
(361,140,o),
(412,183,o),
(412,243,cs),
(412,298,o),
(368,347,o),
(282,407,cs),
(191,470,o),
(166,503,o),
(166,543,cs),
(166,574,o),
(199,597,o),
(243,597,cs),
(289,597,o),
(319,572,o),
(352,498,cs),
(355,490,o),
(359,484,o),
(370,484,cs),
(378,484,o),
(385,489,o),
(385,497,cs),
(383,591,ls),
(383,598,o),
(378,601,o),
(371,604,cs),
(347,615,o),
(315,620,o),
(282,620,cs),
(169,620,o),
(102,580,o),
(102,518,cs),
(102,477,o),
(132,439,o),
(187,396,cs),
(194,390,o),
(192,385,o),
(182,383,cs),
(112,371,o),
(61,328,o),
(61,268,cs),
(61,212,o),
(105,164,o),
(191,104,cs),
(282,41,o),
(307,8,o),
(307,-32,cs),
(307,-63,o),
(274,-86,o),
(230,-86,cs),
(184,-86,o),
(154,-61,o),
(121,13,cs),
(117,20,o),
(114,26,o),
(102,26,cs),
(94,26,o),
(87,22,o),
(87,14,cs),
(90,-80,ls),
(90,-87,o),
(94,-90,o),
(101,-94,cs),
(125,-105,o),
(158,-110,o),
(191,-110,cs)
);
},
{
closed = 1;
nodes = (
(251,144,o),
(240,148,o),
(230,156,cs),
(154,213,o),
(124,251,o),
(124,293,cs),
(124,333,o),
(155,359,o),
(207,365,cs),
(222,366,o),
(232,363,o),
(243,354,cs),
(319,298,o),
(348,260,o),
(348,218,cs),
(348,178,o),
(316,151,o),
(266,146,cs)
);
}
);
};
layerId = m002;
shapes = (
{
closed = 1;
nodes = (
(222,-104,o),
(291,-59,o),
(291,8,cs),
(291,40,o),
(274,73,o),
(241,111,cs),
(236,117,o),
(240,122,o),
(251,123,cs),
(344,130,o),
(408,188,o),
(408,257,cs),
(408,301,o),
(381,346,o),
(327,401,cs),
(273,457,o),
(251,492,o),
(251,523,cs),
(251,558,o),
(276,593,o),
(334,593,cs),
(388,593,o),
(413,568,o),
(423,484,cs),
(424,475,o),
(427,468,o),
(439,468,cs),
(446,468,o),
(453,472,o),
(455,479,cs),
(482,572,ls),
(484,579,o),
(481,583,o),
(475,587,cs),
(443,609,o),
(388,615,o),
(350,615,cs),
(251,615,o),
(182,570,o),
(182,503,cs),
(182,471,o),
(199,438,o),
(231,400,cs),
(237,394,o),
(232,388,o),
(222,388,cs),
(129,381,o),
(64,323,o),
(64,254,cs),
(64,210,o),
(92,165,o),
(146,110,cs),
(200,54,o),
(222,19,o),
(222,-12,cs),
(222,-47,o),
(197,-82,o),
(139,-82,cs),
(85,-82,o),
(60,-57,o),
(49,27,cs),
(48,36,o),
(46,42,o),
(33,42,cs),
(26,42,o),
(20,39,o),
(17,31,cs),
(-8,-72,ls),
(-10,-80,o),
(-7,-85,o),
(-2,-90,cs),
(30,-98,o),
(85,-104,o),
(123,-104,cs)
);
},
{
closed = 1;
nodes = (
(216,144,o),
(207,149,o),
(200,158,cs),
(154,209,o),
(135,245,o),
(135,279,cs),
(135,320,o),
(163,366,o),
(241,366,cs),
(256,366,o),
(266,362,o),
(273,353,cs),
(319,302,o),
(338,266,o),
(338,232,cs),
(338,192,o),
(308,144,o),
(231,144,cs)
);
}
);
width = 436;
}
);
metricLeft = S;
metricRight = S;
unicode = 167;
},
{
glyphname = copyright;
lastChange = "2022-08-14 16:28:39 +0000";
layers = (
{
layerId = m002;
shapes = (
{
closed = 1;
nodes = (
(754,-13,o),
(948,130,o),
(948,306,cs),
(948,482,o),
(754,625,o),
(516,625,cs),
(278,625,o),
(85,482,o),
(85,306,cs),
(85,130,o),
(278,-13,o),
(516,-13,cs)
);
},
{
closed = 1;
nodes = (
(304,20,o),
(131,149,o),
(131,306,cs),
(131,463,o),
(304,592,o),
(516,592,cs),
(729,592,o),
(902,463,o),
(902,306,cs),
(902,149,o),
(729,20,o),
(516,20,cs)
);
},
{
closed = 1;
nodes = (
(583,121,o),
(621,127,o),
(652,136,cs),
(660,139,o),
(664,142,o),
(664,148,cs),
(667,236,ls),
(667,247,o),
(661,252,o),
(652,252,cs),
(643,252,o),
(638,248,o),
(634,235,cs),
(626,215,ls),
(601,154,o),
(570,138,o),
(521,138,cs),
(447,138,o),
(373,206,o),
(373,309,cs),
(373,408,o),
(438,476,o),
(520,476,cs),
(564,476,o),
(595,459,o),
(619,398,cs),
(627,377,ls),
(631,365,o),
(636,360,o),
(645,360,cs),
(654,360,o),
(660,366,o),
(660,377,cs),
(657,465,ls),
(657,471,o),
(653,473,o),
(645,476,cs),
(614,486,o),
(576,492,o),
(527,492,cs),
(398,492,o),
(296,409,o),
(296,309,cs),
(296,204,o),
(386,121,o),
(523,121,cs)
);
}
);
width = 977;
}
);
metricLeft = O;
metricRight = O;
unicode = 169;
},
